<svg id="Grupo_30417" data-name="Grupo 30417" xmlns="http://www.w3.org/2000/svg" xmlns:xlink="http://www.w3.org/1999/xlink" width="550" height="403.23" viewBox="0 0 550 403.23">
  <defs>
    <clipPath id="clip-path">
      <rect id="Rectángulo_3901" data-name="Rectángulo 3901" width="550" height="403.23" fill="none"/>
    </clipPath>
    <clipPath id="clip-path-3">
      <rect id="Rectángulo_3828" data-name="Rectángulo 3828" width="475.96" height="322.005" transform="translate(32.36 9.124)" fill="none"/>
    </clipPath>
    <clipPath id="clip-path-4">
      <rect id="Rectángulo_3830" data-name="Rectángulo 3830" width="443.647" height="301.477" transform="translate(60.112 10.264)" fill="none"/>
    </clipPath>
    <clipPath id="clip-path-5">
      <rect id="Rectángulo_3831" data-name="Rectángulo 3831" width="36.755" height="30.215" transform="translate(133.406 103.074)" fill="none"/>
    </clipPath>
    <clipPath id="clip-path-6">
      <rect id="Rectángulo_3833" data-name="Rectángulo 3833" width="36.754" height="30.215" transform="translate(192.712 66.912)" fill="none"/>
    </clipPath>
    <clipPath id="clip-path-7">
      <rect id="Rectángulo_3835" data-name="Rectángulo 3835" width="34.275" height="30.216" transform="translate(451.267 137.539)" fill="none"/>
    </clipPath>
    <clipPath id="clip-path-8">
      <rect id="Rectángulo_3837" data-name="Rectángulo 3837" width="35.415" height="30.215" transform="translate(422.82 237.054)" fill="none"/>
    </clipPath>
    <clipPath id="clip-path-9">
      <rect id="Rectángulo_3839" data-name="Rectángulo 3839" width="36.755" height="30.215" transform="translate(183.162 248.103)" fill="none"/>
    </clipPath>
    <clipPath id="clip-path-10">
      <rect id="Rectángulo_3841" data-name="Rectángulo 3841" width="36.755" height="30.215" transform="translate(335.615 252.162)" fill="none"/>
    </clipPath>
    <clipPath id="clip-path-11">
      <rect id="Rectángulo_3843" data-name="Rectángulo 3843" width="36.755" height="30.215" transform="translate(367.54 243.095)" fill="none"/>
    </clipPath>
    <clipPath id="clip-path-12">
      <rect id="Rectángulo_3845" data-name="Rectángulo 3845" width="40.663" height="34.717" transform="translate(269.68 191.541)" fill="none"/>
    </clipPath>
    <clipPath id="clip-path-13">
      <rect id="Rectángulo_3847" data-name="Rectángulo 3847" width="36.144" height="30.262" transform="translate(246.471 259.868)" fill="none"/>
    </clipPath>
    <clipPath id="clip-path-14">
      <rect id="Rectángulo_3849" data-name="Rectángulo 3849" width="36.755" height="30.216" transform="translate(115.029 239.985)" fill="none"/>
    </clipPath>
    <clipPath id="clip-path-15">
      <rect id="Rectángulo_3851" data-name="Rectángulo 3851" width="36.526" height="34.322" transform="translate(153.479 236.983)" fill="none"/>
    </clipPath>
    <clipPath id="clip-path-16">
      <rect id="Rectángulo_3853" data-name="Rectángulo 3853" width="36.755" height="30.216" transform="translate(105.446 61.067)" fill="none"/>
    </clipPath>
    <clipPath id="clip-path-17">
      <rect id="Rectángulo_3855" data-name="Rectángulo 3855" width="36.754" height="30.216" transform="translate(241.182 184.321)" fill="none"/>
    </clipPath>
    <clipPath id="clip-path-18">
      <rect id="Rectángulo_3857" data-name="Rectángulo 3857" width="36.755" height="30.216" transform="translate(331.814 192.023)" fill="none"/>
    </clipPath>
    <clipPath id="clip-path-19">
      <rect id="Rectángulo_3859" data-name="Rectángulo 3859" width="36.754" height="30.216" transform="translate(368.924 187.461)" fill="none"/>
    </clipPath>
    <clipPath id="clip-path-20">
      <rect id="Rectángulo_3861" data-name="Rectángulo 3861" width="36.755" height="30.215" transform="translate(453.528 211.577)" fill="none"/>
    </clipPath>
    <clipPath id="clip-path-21">
      <rect id="Rectángulo_3863" data-name="Rectángulo 3863" width="36.686" height="25.069" transform="translate(469.544 317.053)" fill="none"/>
    </clipPath>
    <clipPath id="clip-path-22">
      <rect id="Rectángulo_3865" data-name="Rectángulo 3865" width="36.755" height="30.216" transform="translate(453.528 76.909)" fill="none"/>
    </clipPath>
    <clipPath id="clip-path-23">
      <rect id="Rectángulo_3867" data-name="Rectángulo 3867" width="25.599" height="33.986" transform="translate(49.847 137.993)" fill="none"/>
    </clipPath>
    <clipPath id="clip-path-24">
      <rect id="Rectángulo_3869" data-name="Rectángulo 3869" width="36.755" height="30.216" transform="translate(106.831 195.858)" fill="none"/>
    </clipPath>
    <clipPath id="clip-path-25">
      <rect id="Rectángulo_3871" data-name="Rectángulo 3871" width="36.754" height="30.216" transform="translate(145.661 195.858)" fill="none"/>
    </clipPath>
    <clipPath id="clip-path-26">
      <rect id="Rectángulo_3873" data-name="Rectángulo 3873" width="40.663" height="34.717" transform="translate(157.728 144.438)" fill="none"/>
    </clipPath>
    <clipPath id="clip-path-27">
      <rect id="Rectángulo_3875" data-name="Rectángulo 3875" width="37.323" height="30.854" transform="translate(353.815 84.862)" fill="none"/>
    </clipPath>
    <clipPath id="clip-path-28">
      <rect id="Rectángulo_3877" data-name="Rectángulo 3877" width="37.323" height="30.853" transform="translate(426.85 68.842)" fill="none"/>
    </clipPath>
    <clipPath id="clip-path-29">
      <rect id="Rectángulo_3879" data-name="Rectángulo 3879" width="37.323" height="30.854" transform="translate(266.899 125.046)" fill="none"/>
    </clipPath>
    <clipPath id="clip-path-30">
      <rect id="Rectángulo_3881" data-name="Rectángulo 3881" width="34.838" height="32.173" transform="translate(145.622 61.874)" fill="none"/>
    </clipPath>
    <clipPath id="clip-path-31">
      <rect id="Rectángulo_3883" data-name="Rectángulo 3883" width="34.838" height="32.173" transform="translate(307.387 181.29)" fill="none"/>
    </clipPath>
    <clipPath id="clip-path-32">
      <rect id="Rectángulo_3885" data-name="Rectángulo 3885" width="34.837" height="32.173" transform="translate(258.231 64.124)" fill="none"/>
    </clipPath>
    <clipPath id="clip-path-33">
      <rect id="Rectángulo_3887" data-name="Rectángulo 3887" width="39.051" height="32.825" transform="translate(285.643 71.546)" fill="none"/>
    </clipPath>
    <clipPath id="clip-path-34">
      <rect id="Rectángulo_3889" data-name="Rectángulo 3889" width="35.874" height="30.278" transform="translate(332.254 65.356)" fill="none"/>
    </clipPath>
    <clipPath id="clip-path-35">
      <rect id="Rectángulo_3891" data-name="Rectángulo 3891" width="34.69" height="31.046" transform="translate(372.508 9.156)" fill="none"/>
    </clipPath>
    <clipPath id="clip-path-36">
      <rect id="Rectángulo_3893" data-name="Rectángulo 3893" width="33.773" height="31.045" transform="translate(391.197 324.319)" fill="none"/>
    </clipPath>
    <clipPath id="clip-path-37">
      <rect id="Rectángulo_3894" data-name="Rectángulo 3894" width="35.873" height="30.277" transform="translate(422.82 160.897)" fill="none"/>
    </clipPath>
    <clipPath id="clip-path-38">
      <rect id="Rectángulo_3898" data-name="Rectángulo 3898" width="64.745" height="3.422" transform="translate(245.553 302.877)" fill="none"/>
    </clipPath>
    <clipPath id="clip-path-39">
      <rect id="Rectángulo_3899" data-name="Rectángulo 3899" width="524.418" height="326.871" transform="translate(0 76.359)" fill="none"/>
    </clipPath>
  </defs>
  <g id="Grupo_30416" data-name="Grupo 30416" clip-path="url(#clip-path)">
    <g id="Grupo_30415" data-name="Grupo 30415">
      <g id="Grupo_30414" data-name="Grupo 30414" clip-path="url(#clip-path)">
        <g id="Grupo_30305" data-name="Grupo 30305" opacity="0.4">
          <g id="Grupo_30304" data-name="Grupo 30304">
            <g id="Grupo_30303" data-name="Grupo 30303" clip-path="url(#clip-path-3)">
              <path id="Trazado_25740" data-name="Trazado 25740" d="M44.145,323.526V179.056L32.36,176.775l5.892-37.256,5.893.532V16.727a7.6,7.6,0,0,1,7.6-7.6h448.97a7.6,7.6,0,0,1,7.6,7.6v306.8a7.6,7.6,0,0,1-7.6,7.6H51.748a7.6,7.6,0,0,1-7.6-7.6" fill="#5f6368"/>
            </g>
          </g>
        </g>
        <path id="Trazado_25741" data-name="Trazado 25741" d="M49.847,314.4V7.6a7.6,7.6,0,0,1,7.6-7.6H506.42a7.6,7.6,0,0,1,7.6,7.6V314.4a7.6,7.6,0,0,1-7.6,7.6H57.451a7.6,7.6,0,0,1-7.6-7.6" fill="#6b747e"/>
        <rect id="Rectángulo_3829" data-name="Rectángulo 3829" width="443.647" height="301.477" transform="translate(60.112 10.264)" fill="#fafaf8"/>
        <g id="Grupo_30308" data-name="Grupo 30308" opacity="0.4">
          <g id="Grupo_30307" data-name="Grupo 30307">
            <g id="Grupo_30306" data-name="Grupo 30306" clip-path="url(#clip-path-4)">
              <path id="Trazado_25742" data-name="Trazado 25742" d="M60.112,10.264v5.7H499.2V311.741h4.563V10.264Z" fill="#5f6368"/>
            </g>
          </g>
        </g>
        <path id="Trazado_25743" data-name="Trazado 25743" d="M491.7,51.936c-16.7-1.081-33.6-.69-50.327-.852q-26.223-.252-52.445-.465-53.581-.4-107.163-.813c-70.321-.547-140.931.376-211.114-4.64-2.329-.166-3.064,3.44-.7,3.6,68.994,4.8,138.322,3.632,207.44,3.862q53.568.178,107.138.444,26.214.113,52.426.161c18.173.039,36.532.726,54.68-.242.591-.032.684-1.019.068-1.059" fill="#ffc2cc"/>
        <path id="Trazado_25744" data-name="Trazado 25744" d="M238.186,161.066q-.3-32.791-.478-65.583c-.123-21.8.46-43.775-.776-65.541-.069-1.221-2.107-1.357-2.172-.1-1.092,21.14-.394,42.483-.276,63.645q.185,32.792.484,65.582c.4,44.457.737,88.95,1.99,133.392.046,1.644,2.527,1.4,2.521-.211-.146-43.727-.9-87.46-1.293-131.186" fill="#ffc2cc"/>
        <path id="Trazado_25745" data-name="Trazado 25745" d="M414.052,98.12c.083-22.6,1.426-45.682-.442-68.217-.14-1.682-2.884-1.9-3.02-.137-1.624,21.2-.3,42.852-.1,64.1q.327,34.1.518,68.21c.209,45.492-.2,91,.232,136.489.021,2.137,3.278,1.831,3.286-.274.164-44.723-.511-89.461-.569-134.186q-.042-32.993.1-65.986" fill="#ffc2cc"/>
        <path id="Trazado_25746" data-name="Trazado 25746" d="M103.414,230.446c.083,22.6,1.426,45.682-.442,68.218-.14,1.681-2.885,1.9-3.02.136-1.623-21.2-.3-42.852-.1-64.1q.327-34.105.518-68.211c.209-45.492-.2-91,.232-136.488.021-2.138,3.278-1.831,3.286.273.164,44.723-.511,89.461-.569,134.186q-.042,32.994.1,65.986" fill="#ffc2cc"/>
        <path id="Trazado_25747" data-name="Trazado 25747" d="M202.868,42.007H125.209a2.851,2.851,0,0,1,0-5.7h77.659a2.851,2.851,0,0,1,0,5.7" fill="#aec4c2"/>
        <path id="Trazado_25748" data-name="Trazado 25748" d="M180.362,33.644H147.715a2.851,2.851,0,1,1,0-5.7h32.647a2.851,2.851,0,0,1,0,5.7" fill="#ff5b98"/>
        <path id="Trazado_25749" data-name="Trazado 25749" d="M92.554,72.938H71.919a2.851,2.851,0,0,1,0-5.7H92.554a2.851,2.851,0,0,1,0,5.7" fill="#aec4c2"/>
        <path id="Trazado_25750" data-name="Trazado 25750" d="M92.554,84.85H71.919a2.851,2.851,0,0,1,0-5.7H92.554a2.851,2.851,0,0,1,0,5.7" fill="#aec4c2"/>
        <path id="Trazado_25751" data-name="Trazado 25751" d="M82.236,96.762H71.919a2.851,2.851,0,0,1,0-5.7H82.236a2.851,2.851,0,0,1,0,5.7" fill="#aec4c2"/>
        <path id="Trazado_25752" data-name="Trazado 25752" d="M87.992,198.221H77.675a2.851,2.851,0,0,1,0-5.7H87.992a2.851,2.851,0,0,1,0,5.7" fill="#aec4c2"/>
        <path id="Trazado_25753" data-name="Trazado 25753" d="M92.554,210.133H71.919a2.852,2.852,0,0,1,0-5.7H92.554a2.852,2.852,0,0,1,0,5.7" fill="#aec4c2"/>
        <path id="Trazado_25754" data-name="Trazado 25754" d="M92.5,222.045H71.919a2.852,2.852,0,1,1,0-5.7H92.5a2.852,2.852,0,0,1,0,5.7" fill="#aec4c2"/>
        <path id="Trazado_25755" data-name="Trazado 25755" d="M306.962,257.082H296.645a2.852,2.852,0,1,1,0-5.7h10.317a2.852,2.852,0,1,1,0,5.7" fill="#aec4c2"/>
        <path id="Trazado_25756" data-name="Trazado 25756" d="M311.523,268.994H290.888a2.852,2.852,0,0,1,0-5.7h20.635a2.852,2.852,0,1,1,0,5.7" fill="#aec4c2"/>
        <path id="Trazado_25757" data-name="Trazado 25757" d="M311.471,280.906H290.889a2.852,2.852,0,1,1,0-5.7h20.582a2.852,2.852,0,1,1,0,5.7" fill="#aec4c2"/>
        <path id="Trazado_25758" data-name="Trazado 25758" d="M92.554,120.079H71.919a2.851,2.851,0,0,1,0-5.7H92.554a2.851,2.851,0,0,1,0,5.7" fill="#aec4c2"/>
        <path id="Trazado_25759" data-name="Trazado 25759" d="M87.992,266.062H71.919a2.852,2.852,0,0,1,0-5.7H87.992a2.852,2.852,0,0,1,0,5.7" fill="#aec4c2"/>
        <path id="Trazado_25760" data-name="Trazado 25760" d="M467.165,42.007H439.892a2.851,2.851,0,1,1,0-5.7h27.273a2.851,2.851,0,1,1,0,5.7" fill="#aec4c2"/>
        <path id="Trazado_25761" data-name="Trazado 25761" d="M476.593,33.644H432.54a2.851,2.851,0,1,1,0-5.7h44.053a2.851,2.851,0,1,1,0,5.7" fill="#ff5b98"/>
        <path id="Trazado_25762" data-name="Trazado 25762" d="M364.62,42.007H290.2a2.851,2.851,0,1,1,0-5.7H364.62a2.851,2.851,0,1,1,0,5.7" fill="#aec4c2"/>
        <path id="Trazado_25763" data-name="Trazado 25763" d="M320.717,33.644H267.389a2.851,2.851,0,1,1,0-5.7h53.328a2.851,2.851,0,1,1,0,5.7" fill="#ff5b98"/>
        <path id="Trazado_25764" data-name="Trazado 25764" d="M375.46,33.644H342.19a2.851,2.851,0,1,1,0-5.7h33.27a2.851,2.851,0,1,1,0,5.7" fill="#ff5b98"/>
        <path id="Trazado_25765" data-name="Trazado 25765" d="M207.378,214.374c-2.4-2.543-10.038-7.626-13.4-4.754a1.762,1.762,0,0,0,1.091,3.05c10.146.317,14.945,10.22,15.737,18.933.083.917,1.554.932,1.769.084,1.62-6.375-.789-12.639-5.193-17.313" fill="#aec4c2"/>
        <path id="Trazado_25766" data-name="Trazado 25766" d="M202.461,204.9a29.955,29.955,0,0,0-11.588,2.3,1.574,1.574,0,0,0-.83,1.762,29.952,29.952,0,0,0,2.445,5.784c.878,1.728,1.418,3.377,3.266,4.159.926.391,1.742-.459,1.862-1.3.252-1.757-.926-3.11-1.732-4.6-.68-1.261-1.318-2.536-2.035-3.767a40.618,40.618,0,0,1,8.743-2.845.76.76,0,0,0-.131-1.5" fill="#aec4c2"/>
        <path id="Trazado_25767" data-name="Trazado 25767" d="M246.426,98.672c.748,3.412,4.689,11.7,9.053,10.969a1.762,1.762,0,0,0,.632-3.177c-8.539-5.489-7.564-16.449-3.763-24.331.4-.829-.854-1.6-1.474-.982-4.669,4.637-5.822,11.247-4.448,17.521" fill="#aec4c2"/>
        <path id="Trazado_25768" data-name="Trazado 25768" d="M245.772,109.326a29.945,29.945,0,0,0,11.124,3.982,1.574,1.574,0,0,0,1.618-1.085,29.921,29.921,0,0,0,.875-6.217c.137-1.934.521-3.626-.662-5.247a1.444,1.444,0,0,0-2.263.154c-1.119,1.377-.8,3.144-.882,4.84-.065,1.431-.173,2.853-.191,4.278a40.618,40.618,0,0,1-8.962-2.056.761.761,0,0,0-.657,1.351" fill="#aec4c2"/>
        <path id="Trazado_25769" data-name="Trazado 25769" d="M355.5,155c2.1,2.791,5.82,11.182,2.421,14.015a1.762,1.762,0,0,1-2.821-1.592c1.4-10.053-7.548-16.456-16-18.709-.89-.237-.656-1.689.216-1.758,6.558-.52,12.325,2.913,16.187,8.044" fill="#aec4c2"/>
        <path id="Trazado_25770" data-name="Trazado 25770" d="M364.006,161.451a29.967,29.967,0,0,1-4.229,11.032A1.577,1.577,0,0,1,357.9,173a30.023,30.023,0,0,1-5.287-3.388c-1.556-1.157-3.089-1.968-3.547-3.922-.231-.979.747-1.639,1.591-1.616,1.774.049,2.91,1.438,4.246,2.485,1.128.883,2.277,1.728,3.37,2.643a40.705,40.705,0,0,0,4.28-8.137.761.761,0,0,1,1.453.382" fill="#aec4c2"/>
        <path id="Trazado_25771" data-name="Trazado 25771" d="M314.146,117.038c-15.4-16.516-40.529-6.84-53.7,6.746-.474.488.292,1.11.774.682a57.064,57.064,0,0,1,11.252-7.861c-1.131.846-2.215,1.739-3.237,2.639-7.74,6.817-13.251,16.633-11.832,27.126,2.938,21.73,33.869,20.64,48.317,13.729,17.316-8.283,21.381-29.161,8.422-43.061m-6.424,36.98c-12.035,9.077-35.274,9.94-44.286-3.653-9.958-15.02,11.982-35.6,26.212-34.722,1.592.1,2.6-2.057.936-2.834a13.317,13.317,0,0,0-3.006-1,32.259,32.259,0,0,1,18.576,3.426c16.059,8.307,14.764,28.827,1.568,38.78" fill="#ffc2cc"/>
        <g id="Grupo_30311" data-name="Grupo 30311" opacity="0.4">
          <g id="Grupo_30310" data-name="Grupo 30310">
            <g id="Grupo_30309" data-name="Grupo 30309" clip-path="url(#clip-path-5)">
              <path id="Trazado_25772" data-name="Trazado 25772" d="M133.407,131.485l34.274,1.8,2.481-30.216H135.887Z" fill="#5f6368"/>
            </g>
          </g>
        </g>
        <rect id="Rectángulo_3832" data-name="Rectángulo 3832" width="34.275" height="34.274" transform="translate(135.887 94.956)" fill="#d4f031"/>
        <g id="Grupo_30314" data-name="Grupo 30314" opacity="0.4">
          <g id="Grupo_30313" data-name="Grupo 30313">
            <g id="Grupo_30312" data-name="Grupo 30312" clip-path="url(#clip-path-6)">
              <path id="Trazado_25773" data-name="Trazado 25773" d="M192.711,95.323l34.274,1.8,2.481-30.216H195.191Z" fill="#5f6368"/>
            </g>
          </g>
        </g>
        <rect id="Rectángulo_3834" data-name="Rectángulo 3834" width="34.274" height="34.274" transform="translate(195.192 58.794)" fill="#d4f031"/>
        <g id="Grupo_30317" data-name="Grupo 30317" opacity="0.4">
          <g id="Grupo_30316" data-name="Grupo 30316">
            <g id="Grupo_30315" data-name="Grupo 30315" clip-path="url(#clip-path-7)">
              <path id="Trazado_25774" data-name="Trazado 25774" d="M458.549,163.7l24.513,4.059,2.48-30.216H451.268Z" fill="#5f6368"/>
            </g>
          </g>
        </g>
        <rect id="Rectángulo_3836" data-name="Rectángulo 3836" width="34.274" height="34.274" transform="translate(451.268 129.422)" fill="#d4f031"/>
        <g id="Grupo_30320" data-name="Grupo 30320" opacity="0.4">
          <g id="Grupo_30319" data-name="Grupo 30319">
            <g id="Grupo_30318" data-name="Grupo 30318" clip-path="url(#clip-path-8)">
              <path id="Trazado_25775" data-name="Trazado 25775" d="M422.819,267.269h32.935l2.48-30.215H423.96Z" fill="#5f6368"/>
            </g>
          </g>
        </g>
        <rect id="Rectángulo_3838" data-name="Rectángulo 3838" width="34.274" height="34.274" transform="translate(423.96 228.936)" fill="#d4f031"/>
        <g id="Grupo_30323" data-name="Grupo 30323" opacity="0.4">
          <g id="Grupo_30322" data-name="Grupo 30322">
            <g id="Grupo_30321" data-name="Grupo 30321" clip-path="url(#clip-path-9)">
              <path id="Trazado_25776" data-name="Trazado 25776" d="M183.163,276.514l34.274,1.8,2.481-30.216H185.643Z" fill="#5f6368"/>
            </g>
          </g>
        </g>
        <rect id="Rectángulo_3840" data-name="Rectángulo 3840" width="34.274" height="34.274" transform="translate(185.643 239.985)" fill="#8bd6f5"/>
        <g id="Grupo_30326" data-name="Grupo 30326" opacity="0.4">
          <g id="Grupo_30325" data-name="Grupo 30325">
            <g id="Grupo_30324" data-name="Grupo 30324" clip-path="url(#clip-path-10)">
              <path id="Trazado_25777" data-name="Trazado 25777" d="M335.615,280.574l34.274,1.8,2.481-30.216H338.1Z" fill="#5f6368"/>
            </g>
          </g>
        </g>
        <rect id="Rectángulo_3842" data-name="Rectángulo 3842" width="34.274" height="34.274" transform="translate(338.096 244.045)" fill="#8bd6f5"/>
        <g id="Grupo_30329" data-name="Grupo 30329" opacity="0.4">
          <g id="Grupo_30328" data-name="Grupo 30328">
            <g id="Grupo_30327" data-name="Grupo 30327" clip-path="url(#clip-path-11)">
              <path id="Trazado_25778" data-name="Trazado 25778" d="M367.54,271.506l34.274,1.8,2.481-30.215H370.02Z" fill="#5f6368"/>
            </g>
          </g>
        </g>
        <rect id="Rectángulo_3844" data-name="Rectángulo 3844" width="34.274" height="34.274" transform="translate(370.021 234.977)" fill="#ff5b98"/>
        <g id="Grupo_30332" data-name="Grupo 30332" opacity="0.4">
          <g id="Grupo_30331" data-name="Grupo 30331">
            <g id="Grupo_30330" data-name="Grupo 30330" clip-path="url(#clip-path-12)">
              <path id="Trazado_25779" data-name="Trazado 25779" d="M269.68,219.241l33.6,7.018,7.066-29.483-33.872-5.235Z" fill="#5f6368"/>
            </g>
          </g>
        </g>
        <rect id="Rectángulo_3846" data-name="Rectángulo 3846" width="34.275" height="34.275" transform="translate(272.475 217.391) rotate(-81.216)" fill="#d4f031"/>
        <g id="Grupo_30335" data-name="Grupo 30335" opacity="0.4">
          <g id="Grupo_30334" data-name="Grupo 30334">
            <g id="Grupo_30333" data-name="Grupo 30333" clip-path="url(#clip-path-13)">
              <path id="Trazado_25780" data-name="Trazado 25780" d="M246.471,289.053l34.306,1.076,1.838-30.261-34.267.727Z" fill="#5f6368"/>
            </g>
          </g>
        </g>
        <rect id="Rectángulo_3848" data-name="Rectángulo 3848" width="34.275" height="34.274" transform="translate(248.175 252.48) rotate(-1.217)" fill="#ff5b98"/>
        <g id="Grupo_30338" data-name="Grupo 30338" opacity="0.4">
          <g id="Grupo_30337" data-name="Grupo 30337">
            <g id="Grupo_30336" data-name="Grupo 30336" clip-path="url(#clip-path-14)">
              <path id="Trazado_25781" data-name="Trazado 25781" d="M115.029,268.4l34.274,1.8,2.481-30.216H117.509Z" fill="#5f6368"/>
            </g>
          </g>
        </g>
        <rect id="Rectángulo_3850" data-name="Rectángulo 3850" width="34.275" height="34.274" transform="translate(117.509 231.868)" fill="#d4f031"/>
        <g id="Grupo_30341" data-name="Grupo 30341" opacity="0.4">
          <g id="Grupo_30340" data-name="Grupo 30340">
            <g id="Grupo_30339" data-name="Grupo 30339" clip-path="url(#clip-path-15)">
              <path id="Trazado_25782" data-name="Trazado 25782" d="M155.933,271.305l34.072-4.132-2.765-30.19-33.762,5.908Z" fill="#5f6368"/>
            </g>
          </g>
        </g>
        <rect id="Rectángulo_3852" data-name="Rectángulo 3852" width="34.274" height="34.274" transform="translate(152.08 234.895) rotate(-9.926)" fill="#d4f031"/>
        <g id="Grupo_30344" data-name="Grupo 30344" opacity="0.4">
          <g id="Grupo_30343" data-name="Grupo 30343">
            <g id="Grupo_30342" data-name="Grupo 30342" clip-path="url(#clip-path-16)">
              <path id="Trazado_25783" data-name="Trazado 25783" d="M105.446,89.479l34.274,1.8L142.2,61.067H107.926Z" fill="#5f6368"/>
            </g>
          </g>
        </g>
        <rect id="Rectángulo_3854" data-name="Rectángulo 3854" width="34.274" height="34.274" transform="translate(107.926 52.95)" fill="#8bd6f5"/>
        <g id="Grupo_30347" data-name="Grupo 30347" opacity="0.4">
          <g id="Grupo_30346" data-name="Grupo 30346">
            <g id="Grupo_30345" data-name="Grupo 30345" clip-path="url(#clip-path-17)">
              <path id="Trazado_25784" data-name="Trazado 25784" d="M241.182,212.733l34.274,1.8,2.481-30.216H243.662Z" fill="#5f6368"/>
            </g>
          </g>
        </g>
        <rect id="Rectángulo_3856" data-name="Rectángulo 3856" width="34.274" height="34.274" transform="translate(243.662 176.204)" fill="#8bd6f5"/>
        <g id="Grupo_30350" data-name="Grupo 30350" opacity="0.4">
          <g id="Grupo_30349" data-name="Grupo 30349">
            <g id="Grupo_30348" data-name="Grupo 30348" clip-path="url(#clip-path-18)">
              <path id="Trazado_25785" data-name="Trazado 25785" d="M331.814,220.435l34.274,1.8,2.481-30.216H334.293Z" fill="#5f6368"/>
            </g>
          </g>
        </g>
        <rect id="Rectángulo_3858" data-name="Rectángulo 3858" width="34.274" height="34.274" transform="translate(334.294 183.906)" fill="#ff5b98"/>
        <g id="Grupo_30353" data-name="Grupo 30353" opacity="0.4">
          <g id="Grupo_30352" data-name="Grupo 30352">
            <g id="Grupo_30351" data-name="Grupo 30351" clip-path="url(#clip-path-19)">
              <path id="Trazado_25786" data-name="Trazado 25786" d="M368.924,215.873l34.274,1.8,2.481-30.215H371.4Z" fill="#5f6368"/>
            </g>
          </g>
        </g>
        <rect id="Rectángulo_3860" data-name="Rectángulo 3860" width="34.274" height="34.274" transform="translate(371.404 179.344)" fill="#8bd6f5"/>
        <g id="Grupo_30356" data-name="Grupo 30356" opacity="0.4">
          <g id="Grupo_30355" data-name="Grupo 30355">
            <g id="Grupo_30354" data-name="Grupo 30354" clip-path="url(#clip-path-20)">
              <path id="Trazado_25787" data-name="Trazado 25787" d="M453.528,239.988l34.274,1.805,2.481-30.216H456.008Z" fill="#5f6368"/>
            </g>
          </g>
        </g>
        <rect id="Rectángulo_3862" data-name="Rectángulo 3862" width="34.274" height="34.274" transform="translate(456.009 203.459)" fill="#8bd6f5"/>
        <g id="Grupo_30359" data-name="Grupo 30359" opacity="0.4">
          <g id="Grupo_30358" data-name="Grupo 30358">
            <g id="Grupo_30357" data-name="Grupo 30357" clip-path="url(#clip-path-21)">
              <path id="Trazado_25788" data-name="Trazado 25788" d="M470.494,331.129l-.95,5.122,31.933,5.871,4.752-25.069-13.083,14.076Z" fill="#5f6368"/>
            </g>
          </g>
        </g>
        <rect id="Rectángulo_3864" data-name="Rectángulo 3864" width="34.275" height="34.275" transform="translate(477.615 328.205) rotate(-79.335)" fill="#8bd6f5"/>
        <g id="Grupo_30362" data-name="Grupo 30362" opacity="0.4">
          <g id="Grupo_30361" data-name="Grupo 30361">
            <g id="Grupo_30360" data-name="Grupo 30360" clip-path="url(#clip-path-22)">
              <path id="Trazado_25789" data-name="Trazado 25789" d="M453.528,105.321l34.274,1.8,2.481-30.216H456.008Z" fill="#5f6368"/>
            </g>
          </g>
        </g>
        <rect id="Rectángulo_3866" data-name="Rectángulo 3866" width="34.274" height="34.274" transform="translate(456.009 68.792)" fill="#8bd6f5"/>
        <g id="Grupo_30365" data-name="Grupo 30365" opacity="0.4">
          <g id="Grupo_30364" data-name="Grupo 30364">
            <g id="Grupo_30363" data-name="Grupo 30363" clip-path="url(#clip-path-23)">
              <path id="Trazado_25790" data-name="Trazado 25790" d="M49.847,169.621l19.327,2.358,6.273-29.661-25.6-4.324Z" fill="#5f6368"/>
            </g>
          </g>
        </g>
        <rect id="Rectángulo_3868" data-name="Rectángulo 3868" width="34.274" height="34.275" transform="translate(38.146 163.941) rotate(-82.752)" fill="#d4f031"/>
        <g id="Grupo_30368" data-name="Grupo 30368" opacity="0.4">
          <g id="Grupo_30367" data-name="Grupo 30367">
            <g id="Grupo_30366" data-name="Grupo 30366" clip-path="url(#clip-path-24)">
              <path id="Trazado_25791" data-name="Trazado 25791" d="M106.831,224.27l34.274,1.8,2.481-30.216H109.311Z" fill="#5f6368"/>
            </g>
          </g>
        </g>
        <rect id="Rectángulo_3870" data-name="Rectángulo 3870" width="34.274" height="34.275" transform="translate(109.312 187.74)" fill="#8bd6f5"/>
        <g id="Grupo_30371" data-name="Grupo 30371" opacity="0.4">
          <g id="Grupo_30370" data-name="Grupo 30370">
            <g id="Grupo_30369" data-name="Grupo 30369" clip-path="url(#clip-path-25)">
              <path id="Trazado_25792" data-name="Trazado 25792" d="M145.661,224.27l34.274,1.8,2.481-30.216H148.141Z" fill="#5f6368"/>
            </g>
          </g>
        </g>
        <rect id="Rectángulo_3872" data-name="Rectángulo 3872" width="34.274" height="34.275" transform="translate(148.141 187.74)" fill="#d4f031"/>
        <g id="Grupo_30374" data-name="Grupo 30374" opacity="0.4">
          <g id="Grupo_30373" data-name="Grupo 30373">
            <g id="Grupo_30372" data-name="Grupo 30372" clip-path="url(#clip-path-26)">
              <path id="Trazado_25793" data-name="Trazado 25793" d="M157.729,172.137l33.6,7.018,7.066-29.483-33.872-5.234Z" fill="#5f6368"/>
            </g>
          </g>
        </g>
        <rect id="Rectángulo_3874" data-name="Rectángulo 3874" width="34.274" height="34.275" transform="matrix(0.153, -0.988, 0.988, 0.153, 160.524, 170.288)" fill="#ff5b98"/>
        <g id="Grupo_30377" data-name="Grupo 30377" opacity="0.4">
          <g id="Grupo_30376" data-name="Grupo 30376">
            <g id="Grupo_30375" data-name="Grupo 30375" clip-path="url(#clip-path-27)">
              <path id="Trazado_25794" data-name="Trazado 25794" d="M353.815,113.217l34.23,2.5,3.093-30.16-34.267-.694Z" fill="#5f6368"/>
            </g>
          </g>
        </g>
        <rect id="Rectángulo_3876" data-name="Rectángulo 3876" width="34.275" height="34.275" transform="translate(356.34 111.013) rotate(-88.838)" fill="#8bd6f5"/>
        <g id="Grupo_30380" data-name="Grupo 30380" opacity="0.4">
          <g id="Grupo_30379" data-name="Grupo 30379">
            <g id="Grupo_30378" data-name="Grupo 30378" clip-path="url(#clip-path-28)">
              <path id="Trazado_25795" data-name="Trazado 25795" d="M426.851,97.2l34.23,2.5,3.092-30.159-34.266-.7Z" fill="#5f6368"/>
            </g>
          </g>
        </g>
        <rect id="Rectángulo_3878" data-name="Rectángulo 3878" width="34.275" height="34.275" transform="matrix(0.02, -1, 1, 0.02, 429.376, 94.993)" fill="#ff5b98"/>
        <g id="Grupo_30383" data-name="Grupo 30383" opacity="0.4">
          <g id="Grupo_30382" data-name="Grupo 30382">
            <g id="Grupo_30381" data-name="Grupo 30381" clip-path="url(#clip-path-29)">
              <path id="Trazado_25796" data-name="Trazado 25796" d="M266.9,153.4l34.23,2.5,3.093-30.16-34.267-.694Z" fill="#5f6368"/>
            </g>
          </g>
        </g>
        <rect id="Rectángulo_3880" data-name="Rectángulo 3880" width="34.275" height="34.275" transform="translate(269.425 151.198) rotate(-88.838)" fill="#ff5b98"/>
        <g id="Grupo_30386" data-name="Grupo 30386" opacity="0.4">
          <g id="Grupo_30385" data-name="Grupo 30385">
            <g id="Grupo_30384" data-name="Grupo 30384" clip-path="url(#clip-path-30)">
              <path id="Trazado_25797" data-name="Trazado 25797" d="M146.189,94.047l34.271-1.865L179.7,61.874l-34.079,3.659Z" fill="#5f6368"/>
            </g>
          </g>
        </g>
        <rect id="Rectángulo_3882" data-name="Rectángulo 3882" width="34.275" height="34.274" transform="translate(144.755 57.462) rotate(-6.128)" fill="#ffe028"/>
        <g id="Grupo_30389" data-name="Grupo 30389" opacity="0.4">
          <g id="Grupo_30388" data-name="Grupo 30388">
            <g id="Grupo_30387" data-name="Grupo 30387" clip-path="url(#clip-path-31)">
              <path id="Trazado_25798" data-name="Trazado 25798" d="M307.954,213.462l34.271-1.865-.759-30.308-34.079,3.659Z" fill="#5f6368"/>
            </g>
          </g>
        </g>
        <rect id="Rectángulo_3884" data-name="Rectángulo 3884" width="34.274" height="34.274" transform="translate(306.521 176.877) rotate(-6.127)" fill="#ffe028"/>
        <g id="Grupo_30392" data-name="Grupo 30392" opacity="0.4">
          <g id="Grupo_30391" data-name="Grupo 30391">
            <g id="Grupo_30390" data-name="Grupo 30390" clip-path="url(#clip-path-32)">
              <path id="Trazado_25799" data-name="Trazado 25799" d="M258.8,96.3l34.271-1.865-.759-30.308L258.23,67.783Z" fill="#5f6368"/>
            </g>
          </g>
        </g>
        <rect id="Rectángulo_3886" data-name="Rectángulo 3886" width="34.274" height="34.274" transform="translate(257.364 59.712) rotate(-6.128)" fill="#8bd6f5"/>
        <g id="Grupo_30395" data-name="Grupo 30395" opacity="0.4">
          <g id="Grupo_30394" data-name="Grupo 30394">
            <g id="Grupo_30393" data-name="Grupo 30393" clip-path="url(#clip-path-33)">
              <path id="Trazado_25800" data-name="Trazado 25800" d="M285.644,99.641l33.994,4.73,5.057-29.892-34.149-2.933Z" fill="#5f6368"/>
            </g>
          </g>
        </g>
        <rect id="Rectángulo_3888" data-name="Rectángulo 3888" width="34.274" height="34.274" transform="matrix(0.086, -0.996, 0.996, 0.086, 288.308, 97.607)" fill="#d4f031"/>
        <g id="Grupo_30398" data-name="Grupo 30398" opacity="0.4">
          <g id="Grupo_30397" data-name="Grupo 30397">
            <g id="Grupo_30396" data-name="Grupo 30396" clip-path="url(#clip-path-34)">
              <path id="Trazado_25801" data-name="Trazado 25801" d="M332.254,94.873l34.314.761,1.56-30.278L333.869,66.4Z" fill="#5f6368"/>
            </g>
          </g>
        </g>
        <rect id="Rectángulo_3890" data-name="Rectángulo 3890" width="34.275" height="34.275" transform="matrix(1, -0.03, 0.03, 1, 333.622, 58.285)" fill="#ffe028"/>
        <g id="Grupo_30401" data-name="Grupo 30401" opacity="0.4">
          <g id="Grupo_30400" data-name="Grupo 30400">
            <g id="Grupo_30399" data-name="Grupo 30399" clip-path="url(#clip-path-35)">
              <path id="Trazado_25802" data-name="Trazado 25802" d="M372.983,40.2,407.2,39.157,405.582,9.6l-27.337-.442.207,6.81h-5.945Z" fill="#5f6368"/>
            </g>
          </g>
        </g>
        <rect id="Rectángulo_3892" data-name="Rectángulo 3892" width="34.274" height="34.274" transform="matrix(1, -0.03, 0.03, 1, 377.998, 1.043)" fill="#ffe028"/>
        <g id="Grupo_30404" data-name="Grupo 30404" opacity="0.4">
          <g id="Grupo_30403" data-name="Grupo 30403">
            <g id="Grupo_30402" data-name="Grupo 30402" clip-path="url(#clip-path-36)">
              <path id="Trazado_25803" data-name="Trazado 25803" d="M393.036,355.364l31.934-1.045c-3.179-6.722-3.392-16.96-1.616-29.558l-21.635-.442-.933,6.811h-9.365c-.533,10.032-.162,18.417,1.615,24.234" fill="#5f6368"/>
            </g>
          </g>
        </g>
        <path id="Trazado_25804" data-name="Trazado 25804" d="M401.374,350.463l34.259-1.043c-3.306-8.466-2.927-20.61-1.042-34.258L400.332,316.2c-2.054,14.092-3.129,27.1,1.042,34.259" fill="#ffe028"/>
        <g id="Grupo_30407" data-name="Grupo 30407" opacity="0.4">
          <g id="Grupo_30406" data-name="Grupo 30406">
            <g id="Grupo_30405" data-name="Grupo 30405" clip-path="url(#clip-path-37)">
              <path id="Trazado_25805" data-name="Trazado 25805" d="M422.819,190.414l34.313.761,1.561-30.278-34.259,1.043Z" fill="#5f6368"/>
            </g>
          </g>
        </g>
        <rect id="Rectángulo_3895" data-name="Rectángulo 3895" width="34.275" height="34.274" transform="translate(424.188 153.826) rotate(-1.744)" fill="#ffe028"/>
        <path id="Trazado_25806" data-name="Trazado 25806" d="M215.787,300.027h91.645a5.857,5.857,0,0,1,0,11.714H215.787Z" fill="#36333d"/>
        <rect id="Rectángulo_3896" data-name="Rectángulo 3896" width="5.247" height="11.714" transform="translate(215.787 300.027)" fill="#ff5b98"/>
        <rect id="Rectángulo_3897" data-name="Rectángulo 3897" width="45.239" height="11.714" transform="translate(230.158 300.027)" fill="#ce4a7c"/>
        <path id="Trazado_25807" data-name="Trazado 25807" d="M284.521,300.027v11.714h22.91a5.857,5.857,0,0,0,0-11.714Z" fill="#ff5b98"/>
        <g id="Grupo_30410" data-name="Grupo 30410" opacity="0.5">
          <g id="Grupo_30409" data-name="Grupo 30409">
            <g id="Grupo_30408" data-name="Grupo 30408" clip-path="url(#clip-path-38)">
              <path id="Trazado_25808" data-name="Trazado 25808" d="M308.587,306.3h-4.276a1.711,1.711,0,1,1,0-3.422h4.276a1.711,1.711,0,1,1,0,3.422" fill="#fff"/>
              <path id="Trazado_25809" data-name="Trazado 25809" d="M298.3,306.3H247.265a1.711,1.711,0,1,1,0-3.422H298.3a1.711,1.711,0,0,1,0,3.422" fill="#fff"/>
            </g>
          </g>
        </g>
        <path id="Trazado_25810" data-name="Trazado 25810" d="M329.552,147.183a1.5,1.5,0,0,0-1.712-.56,1.3,1.3,0,0,0-.582.374,1.79,1.79,0,0,0-.332,1.461c0,.018-.037.491,0,.271a1.785,1.785,0,0,0,.316,1.276,1.5,1.5,0,0,0,2.057.387c1.131-.714.947-2.256.256-3.209" fill="#ffc2cc"/>
        <path id="Trazado_25811" data-name="Trazado 25811" d="M332.789,119.178a1.5,1.5,0,0,0-2.54-.465c-1.958,2.883-1.824,6.474-2.1,9.883a43.791,43.791,0,0,0,.279,11.329,1.082,1.082,0,0,0,2.135.1c.809-3.533,1.082-7.143,1.544-10.732.432-3.349,1.591-6.813.677-10.111" fill="#ffc2cc"/>
        <path id="Trazado_25812" data-name="Trazado 25812" d="M147.994,295.747a15.694,15.694,0,0,0-5.116,6.8c-.879,2.735-.3,6.1,2.01,7.818-8.495,8.587-9.814,23.331-2.979,33.29,3.526-12.358,16.065-21.515,28.911-21.113a28.017,28.017,0,0,1,26.68,21.815,31.924,31.924,0,0,0,6.244-4.462c3.365-3.051,4.5-7.994,3.938-12.5s-2.6-8.683-4.771-12.674c3.831-2.141,5.136-7.355,3.842-11.548s-4.619-7.463-8.225-9.965c-14.907-10.34-36.74-9.242-50.534,2.541" fill="#ce4a7c"/>
        <path id="Trazado_25813" data-name="Trazado 25813" d="M213.748,154.586c-.043-.08-.1-.176-.143-.264a5.383,5.383,0,0,1-.925,0c-9.722-.815-10.464-12.523-6.9-19.473a11.072,11.072,0,0,1,6.2-5.424,12.738,12.738,0,0,0-2,.051,12.155,12.155,0,0,0-3.946,1.061,12.648,12.648,0,0,0-3.887,2.782,13.808,13.808,0,0,0-1.424,1.771,9.4,9.4,0,0,0-2.561.622,11.022,11.022,0,0,0-2.792,1.6,16.593,16.593,0,0,0-4.369,5.31,24.039,24.039,0,0,0-2.4,6.766,28.228,28.228,0,0,0-.54,5.8c-.193.293-.388.579-.577.88a15.362,15.362,0,0,0-.855,1.84,9.661,9.661,0,0,0-.6,2.014c-.076.347-.154.695-.213,1.046l-.062,1.076a9.371,9.371,0,0,0,.072,2.14,10.984,10.984,0,0,0,.4,2.065,19.823,19.823,0,0,0,.676,1.916c.291.582.594,1.152.9,1.7a15.315,15.315,0,0,0,1.04,1.461l.531.674c.181.208.376.388.562.576l1.1,1.047a21.124,21.124,0,0,0,2.883,1.987c1.045.557,1.664.854,1.664.854a6.5,6.5,0,0,0,.8.318,6.062,6.062,0,0,0,7.893-5.666,8.067,8.067,0,0,0,2.083-3.461,8.051,8.051,0,0,0,8.006-12l-.617-1.075" fill="#f09f70"/>
        <path id="Trazado_25814" data-name="Trazado 25814" d="M359.425,296.1c-.066-.062-.146-.138-.219-.2a5.416,5.416,0,0,1-.878.292c-9.488,2.266-13.854-8.623-12.644-16.338a11.079,11.079,0,0,1,4.194-7.091,12.669,12.669,0,0,0-1.886.674,12.158,12.158,0,0,0-3.416,2.242,12.663,12.663,0,0,0-2.822,3.859,13.586,13.586,0,0,0-.8,2.128,9.3,9.3,0,0,0-2.238,1.39,11.032,11.032,0,0,0-2.151,2.4,16.571,16.571,0,0,0-2.489,6.41,24.059,24.059,0,0,0-.168,7.178,28.333,28.333,0,0,0,1.3,5.678c-.092.338-.187.671-.273,1.015a15.561,15.561,0,0,0-.238,2.017,9.749,9.749,0,0,0,.064,2.1c.037.354.071.709.125,1.061l.278,1.041a9.456,9.456,0,0,0,.737,2.01,11.032,11.032,0,0,0,1.027,1.836,19.735,19.735,0,0,0,1.242,1.609c.458.462.923.909,1.388,1.334a15.1,15.1,0,0,0,1.444,1.062l.714.475c.238.141.479.25.714.371l1.37.651a21.291,21.291,0,0,0,3.359.987c1.168.2,1.848.29,1.848.29a6.658,6.658,0,0,0,.863.051,6.066,6.066,0,0,0,5.727-7.851,8.068,8.068,0,0,0,.895-3.939,8.05,8.05,0,0,0,3.852-13.9l-.922-.828" fill="#f09f70"/>
        <g id="Grupo_30413" data-name="Grupo 30413" opacity="0.4">
          <g id="Grupo_30412" data-name="Grupo 30412">
            <g id="Grupo_30411" data-name="Grupo 30411" clip-path="url(#clip-path-39)">
              <path id="Trazado_25815" data-name="Trazado 25815" d="M138.2,126.651l-.386-.061c-.145-.017-.238-.048-.507-.068-.325-.012-.7-.02-1.133-.014a17.1,17.1,0,0,0-2.514.273,23.862,23.862,0,0,0-2.911.749c-4.061,1.293-8.473,3.64-12.556,5.442a46.153,46.153,0,0,1-5.661,2.154,22.242,22.242,0,0,1-2.317.552c-.049.008-.091.011-.14.018l5.169-29.643c.7-1.708,1.521-3.657,2.44-5.606.47-.969.962-1.981,1.465-2.87a26.153,26.153,0,0,1,1.441-2.327c.23-.34.417-.553.481-.675a2.645,2.645,0,0,1,.382.329,6.666,6.666,0,0,1,.739.772,9.933,9.933,0,0,1,.687.866c.44.568.82,1.2,1.152,1.716.316.552.59.957.828,1.429l.741,1.426a3.549,3.549,0,0,0,4.636,1.464,4.754,4.754,0,0,0,2.917-5.366v0s-.153-.58-.422-1.593c-.123-.494-.373-1.215-.611-1.981-.275-.772-.549-1.611-.969-2.555-.208-.47-.4-.958-.685-1.472a14.71,14.71,0,0,0-.912-1.593,10.829,10.829,0,0,0-3.263-3.415,7.828,7.828,0,0,0-1-.546c-.144-.068-.286-.138-.433-.2a5.873,5.873,0,0,0-.844-.285l-.089-.022c-.288-.074-.585-.14-.871-.2a10.225,10.225,0,0,0-2.106-.067c-.36.035-.724.081-1.081.146a7.609,7.609,0,0,0-1.038.259,11.331,11.331,0,0,0-1.911.745c-.29.144-.568.3-.837.449s-.529.313-.781.472c-.506.323-.909.641-1.364.978-.208.165-.4.327-.594.491s-.38.328-.574.5q-.542.492-1.025.976c-.971.968-1.789,1.915-2.556,2.838-.256.309-.5.613-.739.915-.712.9-1.348,1.78-1.971,2.638-1.21,1.7-2.267,3.3-3.194,4.738q-.463.718-.884,1.383c-.166.262-.315.5-.47.747-.215.343-.42.67-.615.984-.379.611-.73,1.181-1.03,1.67l-.253.412-.94-.026c.045-.256.091-.5.136-.77.307-1.835.666-3.977,1.05-6.271.377-2.2.785-4.5,1.305-6.462a24.118,24.118,0,0,1,.824-2.606,11.451,11.451,0,0,1,.725-1.509,1.764,1.764,0,0,1,.576-.682,3.022,3.022,0,0,1,1.324-.444,4.992,4.992,0,0,1,.85-.07,6.034,6.034,0,0,1,.851.018c.568.01.992.106,1.389.133.458.086.875.19,1.132.244l.407.09a4.627,4.627,0,0,0,4.831-2.366c1.189-2.073.622-4.489-1.266-5.395l-.007,0-.368-.176c-.25-.116-.569-.282-1.063-.5-.582-.212-1.3-.534-2.132-.757a12.583,12.583,0,0,0-1.373-.356,12.314,12.314,0,0,0-1.673-.263,12.625,12.625,0,0,0-4.4.293c-.024.006-.046.008-.07.014a11.16,11.16,0,0,0-1.342.411,14.11,14.11,0,0,0-2.731,1.382c-.33.215-.641.457-.952.7A3.291,3.291,0,0,0,94.743,77.8h-.007l-1.49-.185c-.434-.055-1.116-.084-1.83-.125l-.175-.01c-.4,0-.819-.013-1.267-.013-.225,0-.457,0-.7.014s-.5.024-.764.048l-.806.063-.891.132a16.329,16.329,0,0,0-1.975.433,13.867,13.867,0,0,0-4.878,2.539,12.127,12.127,0,0,0-1.6,1.566c-.261.3-.514.607-.744.926-.021.029-.035.059-.056.087a14.344,14.344,0,0,0-1.552,2.741,21.729,21.729,0,0,0-1.435,4.992c-.026.152-.046.3-.07.444l-.608.186c-.246.083-.516.191-.777.291l.009-.01-.614.237a15.385,15.385,0,0,0-3.195,1.784c-.284.207-.578.44-.873.7a11.055,11.055,0,0,0-2.454,3.057,10.744,10.744,0,0,0-1.26,5.058c0,.366.016.716.042,1.054.033.429.087.834.152,1.222.1.579.219,1.121.353,1.627a26.769,26.769,0,0,0,1.024,2.952c.182.437.365.855.545,1.256s.351.764.521,1.121l-4.239,13.338c-5.7,1.247-10.27,4.681-11.062,8.145l-.023.008.023-.007c-.006.026-.01.052-.016.078-1.567.545-3.19,1.139-4.831,1.764a18.772,18.772,0,0,0-4.5,1.191l-6.746,2.727L32.4,140.686l-4.54,2.021-5.169,2.315c-1.807.824-3.608,1.739-5.544,2.671-1.919.947-3.934,1.9-5.995,2.952L4.8,154.014l-3.312,1.772L0,156.64v43.848L1.39,199.4l1.465-1.069q2.927-2.141,5.773-4.222c1.913-1.359,3.839-2.623,5.7-3.906q1.4-.954,2.772-1.888,1.4-.885,2.759-1.75,2.729-1.727,5.3-3.352c1.726-1.058,3.427-2.017,5.044-2.975,1.617-.934,3.187-1.9,4.645-2.7l4.13-2.244,3.636-1.986,3.438-1.72,6.579-3.267a20.824,20.824,0,0,0,3.15-1.955c1.79-.857,3.5-1.632,5.123-2.345a12.8,12.8,0,0,1-1.748.82l10.46-3.886a12.2,12.2,0,0,0,3.758-2.217l.664-.259,8.122-3.174a17.969,17.969,0,0,0,2.723-1.351l14.533-2.692a7.431,7.431,0,0,0,1.072.125l.459.017.6.022c.393,0,.967.053,1.7,0a22.027,22.027,0,0,0,2.609-.241,26.1,26.1,0,0,0,3.24-.7,32.761,32.761,0,0,0,3.546-1.233c1.183-.51,2.4-1.074,3.56-1.714a65.348,65.348,0,0,0,6.667-4.2c2.073-1.464,4.01-2.93,5.739-4.179a51.4,51.4,0,0,1,4.489-2.993,17.14,17.14,0,0,1,1.574-.81c.416-.187.81-.314,1-.392a.989.989,0,0,0,.167-.1,3.988,3.988,0,0,1,.442-.043l.4-.03h.011a4.888,4.888,0,0,0,4.176-3.482,3.489,3.489,0,0,0-2.678-4.662M91.017,87.085q-.271.53-.521,1.047c-.468.965-.868,1.888-1.249,2.8q-.429,1.019-.813,1.995c-.389.985-.752,1.94-1.1,2.859l-.086.232,0-.009c-.14-.98-.285-1.993-.432-3.023-.128-.962-.244-1.906-.291-2.685s-.037-1.413-.04-1.724c.012-.329-.127-.278-.184-.388s.18-.386.616-.663a5.634,5.634,0,0,1,.789-.385,6.214,6.214,0,0,1,.911-.325,18.252,18.252,0,0,1,1.831-.457c.4-.062.726-.126,1.054-.18-.167.306-.33.609-.484.91" fill="#5f6368"/>
              <path id="Trazado_25816" data-name="Trazado 25816" d="M120.281,94.327c-.067,0-.153-.1-.154-.116.005.005-.014-.108.059-.068s.115-.03.218.036.2.088.312.141c.057.045.117.086.175.127a1.362,1.362,0,0,1-.61-.12" fill="#5f6368"/>
              <path id="Trazado_25817" data-name="Trazado 25817" d="M73.659,100.044c-.016.171-.033.329-.05.5a.45.45,0,0,0-.069-.055c-.065-.039-.043-.2.119-.44" fill="#5f6368"/>
              <path id="Trazado_25818" data-name="Trazado 25818" d="M246.318,155.47a72.432,72.432,0,0,0-2.241-8.4c-.382-1.227-.719-2.354-1-3.4a28.1,28.1,0,0,1-.612-2.818,13.023,13.023,0,0,1-.16-2.123,5.619,5.619,0,0,1,.049-.79c.031-.216.051-.495.072-.557a2.236,2.236,0,0,0,.015-.314c.1-.232.186-.43.256-.59.139-.321.214-.492.214-.492a3.528,3.528,0,0,0-1.505-4.655,3.7,3.7,0,0,0-1.047-.339l4.727-11.2a3.928,3.928,0,0,0-1.2-4.8l1.708-4.08a1.3,1.3,0,0,0-.809-1.8,1.688,1.688,0,0,0-1.974.981l-1.728,4.126a5.159,5.159,0,0,0-4.333,3.085L232.4,127.6a3.366,3.366,0,0,0-.637-.611l0,0-1.3-.936c-.4-.295-1.041-.688-1.7-1.119-.7-.417-1.43-.882-2.357-1.348-.461-.232-.92-.484-1.475-.709a16.111,16.111,0,0,0-1.751-.677,13.215,13.215,0,0,0-4.95-.76,10.145,10.145,0,0,0-1.233.133c-.169.026-.338.05-.508.081a7.135,7.135,0,0,0-.79.2c-.378.107-.761.228-1.152.381a10.853,10.853,0,0,0-3.252,2.1c-.139.126-.289.249-.412.38-.262.258-.5.518-.717.777a12.641,12.641,0,0,0-1.106,1.547c-.156.255-.3.507-.441.756-.276.5-.461.948-.682,1.435-.073.175-.135.342-.2.51a13.946,13.946,0,0,0-6.164,1.072,14.75,14.75,0,0,0-4.191,2.693,15.812,15.812,0,0,0-1.619,1.714,10.37,10.37,0,0,0-2.628.6,12.8,12.8,0,0,0-2.969,1.552,19.093,19.093,0,0,0-4.949,5.139,25.71,25.71,0,0,0-3.145,6.547,27.782,27.782,0,0,0-1.174,5.614c-.225.283-.452.56-.674.851a16.951,16.951,0,0,0-1.057,1.781,10.259,10.259,0,0,0-.817,1.949c-.113.337-.23.673-.327,1.013l-.18,1.041a8.861,8.861,0,0,0-.162,2.072,9.861,9.861,0,0,0,.175,2,16.97,16.97,0,0,0,.466,1.854c.2.5.416.985.635,1.46l6.667,20.885c-1.6,1.9-3.277,3.976-5.088,6.263-3.024,3.913-6.316,8.393-9.618,13.389q-1.231,1.878-2.511,3.833c-.854,1.3-1.641,2.654-2.487,4.017-1.707,2.724-3.325,5.578-4.994,8.516-.857,1.465-1.638,2.967-2.453,4.485s-1.652,3.053-2.443,4.615c-1.56,3.127-3.209,6.32-4.709,9.6-3.118,6.534-6.016,13.342-8.793,20.282-2.8,6.941-5.316,14.023-7.751,21.116-2.042,6.046-3.93,12.1-5.713,18.088A29.99,29.99,0,0,0,118.55,319.7s-.305,1.2-.841,3.292c-.134.523-.282,1.1-.443,1.734-.165.674-.344,1.4-.534,2.181l-1.253,5.19c-1.79,7.5-4,17.495-5.968,27.456s-3.757,19.893-5.009,27.315l-2.03,12.351c-.1.618-.193,1.318-.252,1.945-.066.7-.1,1.382-.112,2.063h59.5a28.876,28.876,0,0,0,.464-3.09l.023-.238s.447-4.719,1.119-11.8c.7-7.065,1.723-16.449,2.93-25.783s2.6-18.62,3.767-25.552c.292-1.7.559-3.269.8-4.655.119-.686.231-1.329.334-1.924.118-.635.226-1.219.324-1.746.39-2.109.614-3.315.614-3.315a24,24,0,0,0-2.7-16.461c1.173-5.383,2.428-10.8,3.805-16.194,1.711-6.543,3.49-13.08,5.514-19.409,2-6.337,4.111-12.532,6.406-18.409,1.1-2.965,2.321-5.806,3.469-8.618.583-1.4,1.214-2.754,1.808-4.111s1.178-2.7,1.817-3.988c1.239-2.6,2.435-5.134,3.706-7.516.628-1.195,1.21-2.4,1.845-3.532s1.255-2.251,1.864-3.342c2.451-4.363,4.892-8.223,7.127-11.59,2.266-3.319,4.359-6.262,5.969-8.3q.613-.809,1.161-1.527l.527-.7q.328-.386.634-.748l2.071-2.44,1.724-2.032.045-.052a17.444,17.444,0,0,0,1.678-2.37l12.866-10.59c.182-.118.363-.236.539-.369l2.156-1.624c.678-.566,1.5-1.254,2.415-2.106q.674-.677,1.43-1.438c.495-.52.989-1.132,1.5-1.74s.995-1.341,1.5-2.049c.494-.727.936-1.546,1.4-2.356a23.7,23.7,0,0,0,1.981-5.407,22.973,22.973,0,0,0,.592-5.561,28.826,28.826,0,0,0-.511-5.08m-40.387-16.206q-.062.94-.1,1.826c-.074,1.711-.092,3.26-.1,4.636,0,.049,0,.1,0,.152q0,.706,0,1.345c.006,1.057.021,1.945.033,2.684l-.618.338a25.268,25.268,0,0,1-.75-2.9,17.084,17.084,0,0,1-.329-4.287,8.27,8.27,0,0,1,.721-3.031,2.517,2.517,0,0,1,1.177-1.222c-.012.152-.028.311-.039.462m21.629-.191-4.087,9.683-2.974-5.849c-.346-1.613-.718-3.468-1-5.373-.13-.954-.264-1.952-.316-2.866a19.539,19.539,0,0,1-.025-2.456c.015-.382.059-.629.042-.745a3.243,3.243,0,0,1,.547.037,8.169,8.169,0,0,1,1.12.171,11.572,11.572,0,0,1,1.126.267c.73.18,1.443.442,2.042.64.606.235,1.091.384,1.579.6.954.412,1.5.646,1.5.646a4.075,4.075,0,0,0,2.585.179l-2.137,5.063ZM234,161.2a10.674,10.674,0,0,1-.8,2.657,8.961,8.961,0,0,1-1.107,1.854l-3.49-6.863,4.756-11.27c.083.848.175,1.7.275,2.535a66.1,66.1,0,0,1,.634,7.737A18.272,18.272,0,0,1,234,161.2" fill="#5f6368"/>
              <path id="Trazado_25819" data-name="Trazado 25819" d="M218.152,131.619c.073-.013.087-.083.22-.09s.233-.041.366-.062c.078,0,.156,0,.233,0a1.737,1.737,0,0,1-.626.235.287.287,0,0,1-.208,0c.007,0-.075-.072.015-.081" fill="#5f6368"/>
              <path id="Trazado_25820" data-name="Trazado 25820" d="M364.723,403.23c.045-.676.091-1.358.136-2.024.176-2.528.314-5.007.506-7.373q.377-3.507.725-6.764t.658-6.237q.156-1.488.3-2.9c.052-.475.088-.923.154-1.4s.146-.968.218-1.44c.572-3.782,1.071-7.078,1.482-9.792.822-5.429,1.293-8.532,1.293-8.532a18.078,18.078,0,0,0-.518-7.756c.9-2.709,1.755-5.1,2.492-6.926q.358-.943.68-1.785.159-.423.309-.817c.138-.308.27-.607.4-.894.513-1.15.95-2.128,1.3-2.921.707-1.586,1.085-2.432,1.085-2.432l.028-.062A16.635,16.635,0,0,0,377.009,330l8.385-14.95a8.865,8.865,0,0,0,1.631-3.746l.435-2.482c.152-.783.257-1.762.414-2.864s.251-2.372.381-3.739c.079-1.379.166-2.867.155-4.449s-.066-3.243-.226-4.951a47.282,47.282,0,0,0-.774-5.2,45.772,45.772,0,0,0-1.4-5.153,54.079,54.079,0,0,0-4.135-9.046c-1.464-2.615-2.806-4.821-3.566-6.576a12.883,12.883,0,0,1-.807-2.305c-.106-.335-.113-.63-.182-.916-.024-.279-.047-.535-.067-.768a3.848,3.848,0,0,0-.023-.464,1.218,1.218,0,0,1,.028-.315c.016-.118.032-.226.046-.321.054-.383.084-.587.084-.587a3.425,3.425,0,0,0-2.87-3.983,4.7,4.7,0,0,0-5.071,3.305l-.172.58c-.028.1-.059.2-.094.317a3.381,3.381,0,0,0-.115.451c-.083.416-.173.9-.26,1.438-.05.483-.1,1.008-.138,1.583.005.554-.036,1.192.026,1.808a21.325,21.325,0,0,0,.641,3.966c.677,2.714,1.762,5.358,2.7,8.028a46.189,46.189,0,0,1,2.186,8.1,36.348,36.348,0,0,1,.418,4.092,37.49,37.49,0,0,1-.052,4.017c-.086,1.311-.232,2.588-.424,3.806-.008.051-.02.1-.027.152L361.714,283.5c-.075-.12-.144-.232-.221-.357-.821-1.358-1.745-2.937-2.586-4.579-.408-.813-.817-1.656-1.133-2.45a16.694,16.694,0,0,1-.741-2.188c-.153-.606-.186-1.023-.278-1.047s-.37.1-.27-.133a2.884,2.884,0,0,1,1.171-.854,13.594,13.594,0,0,1,2.09-.726c.721-.2,1.444-.332,2.082-.459.635-.1,1.148-.191,1.649-.254l1.661-.171,1.04-7.961-1.617-.167c-.545-.044-1.3-.079-2.13-.116-.826-.009-1.753-.031-2.837.038a23.752,23.752,0,0,0-3.706.495,15.678,15.678,0,0,0-4.92,2.015c-.026.015-.05.034-.075.049l-.1.048a13.684,13.684,0,0,0-1.744,1.146,12.934,12.934,0,0,0-1.618,1.6,11.068,11.068,0,0,0-1.253,1.85,12.659,12.659,0,0,0-1.3,3.578c-.12.556-.166,1.028-.236,1.551,0,.039-.005.075-.009.114a15.108,15.108,0,0,0-5.752,2.9,15.163,15.163,0,0,0-3.327,3.811,15.572,15.572,0,0,0-1.077,2.1,11.137,11.137,0,0,0-2.421,1.374,13.331,13.331,0,0,0-2.465,2.367,18.892,18.892,0,0,0-3.327,6.331,24.322,24.322,0,0,0-1.107,7.091,25.839,25.839,0,0,0,.558,5.609c-.135.334-.275.662-.406,1a16.281,16.281,0,0,0-.5,1.991,9.62,9.62,0,0,0-.211,2.074c-.009.349-.022.7-.013,1.047l.14,1.029a8.325,8.325,0,0,0,.475,1.986,9.339,9.339,0,0,0,.786,1.814,16.27,16.27,0,0,0,1.031,1.587c.353.407.714.793,1.076,1.169l13.013,17.458c-.773,1.753-1.558,3.61-2.377,5.6a22.44,22.44,0,0,0-7,11.192l0,.008-2.175,8.47-2.5,9.72q-.182.7-.367,1.43-.168.771-.343,1.563-.341,1.6-.7,3.287-.72,3.381-1.512,7.1t-1.634,7.731c-.5,2.643-.934,5.346-1.424,8.144-.1.566-.2,1.148-.3,1.719Zm-19.817-118.2a2.775,2.775,0,0,1,.316-.917,2.963,2.963,0,0,1,.343-.465c.059.253.119.5.178.752.606,2.394,1.262,4.482,1.834,6.242.452,1.389.853,2.552,1.174,3.476l-.355.353a24.319,24.319,0,0,1-1.633-2.481,16.016,16.016,0,0,1-1.641-3.9,7.707,7.707,0,0,1-.216-3.055" fill="#5f6368"/>
              <path id="Trazado_25821" data-name="Trazado 25821" d="M460.968,296.137q.671,2.152,1.347,4.322c.882,2.889,1.84,5.777,2.673,8.694s1.663,5.818,2.492,8.721,1.515,5.789,2.276,8.653q.553,2.145,1.1,4.272.488,2.122.972,4.224c.625,2.791,1.3,5.55,1.863,8.257l1.565,7.937c.555,2.588.888,5.09,1.308,7.539q.3,1.828.591,3.607.145.887.289,1.761.111.865.218,1.719c.553,4.514,1.183,8.765,1.432,12.552.166,1.891.324,3.7.473,5.4.11,1.685.146,3.251.218,4.728s.124,2.836.18,4.1c.084,1.268.007,2.359.021,3.379-.019,4-.031,6.269-.031,6.269l-.005.823c0,.044,0,.089.006.134h44.457c-.073-.887-.147-1.8-.224-2.75-.18-2.031-.324-4.2-.57-6.5q-.455-3.473-.958-7.322c-.577-5.151-1.677-10.791-2.72-16.789q-.2-1.13-.406-2.277-.247-1.148-.5-2.31-.505-2.328-1.024-4.72c-.72-3.193-1.342-6.476-2.244-9.8q-1.279-5-2.607-10.179c-.93-3.449-1.995-6.922-3.008-10.442q-.777-2.638-1.563-5.3-.859-2.643-1.727-5.307c-1.181-3.544-2.267-7.141-3.544-10.673s-2.535-7.078-3.8-10.61-2.683-6.98-4-10.437q-1.008-2.586-2.006-5.151-1.053-2.533-2.1-5.038l-4.138-9.854-4.194-9.379-2.038-4.526-2.066-4.351-3.952-8.312-3.814-7.619c-1.231-2.43-2.372-4.76-3.522-6.963s-2.261-4.275-3.293-6.227-1.994-3.765-2.883-5.445l-2.427-4.38-3.472-6.23L450.062,179.9l0-.013a39.019,39.019,0,0,0-1.174-14.876,20.4,20.4,0,0,0-1.486-3.575,11.3,11.3,0,0,0-2.16-2.835,6.3,6.3,0,0,0-2.662-1.53c-.12-.036-.24-.054-.36-.08a5.187,5.187,0,0,0-1.162-.118h-.012a6.61,6.61,0,0,0-1.083.1,7.224,7.224,0,0,0-.941.271c-.06-.079-.107-.159-.17-.237l-.64-.817-.323-.4-.386-.374a10.179,10.179,0,0,0-1.61-1.336,8.119,8.119,0,0,0-1.844-.89,7.667,7.667,0,0,0-1.948-.3,11.289,11.289,0,0,0-1.877.258c-.576.208-1.136.436-1.673.676a14.242,14.242,0,0,0-1.425.9c-.223.157-.442.311-.659.462-.191.174-.381.344-.565.512l-1.035.959c0,.005-.017.008-.022.013-.116.12-.215.232-.326.349a14.331,14.331,0,0,0-2.563-2.616,5.713,5.713,0,0,0-3.918-1.313,5.5,5.5,0,0,0-2.684,1.042l-.034.024q-.258.183-.5.381l-.1.086c-.166.144-.327.289-.476.439a7.668,7.668,0,0,0-.682.73c-.205.247-.394.493-.586.732-.34.482-.652.947-.92,1.383l-.691,1.221c-.2.4-.386.775-.552,1.108-.078.161-.169.338-.222.461l-.138.325c-.085.2-.158.374-.216.513s-.1.245-.134.317l-.046.108h0l-.006.011a7.263,7.263,0,0,0-.29.842c-.027.094-.047.19-.07.286-.047.193-.091.385-.124.582-.021.119-.036.236-.05.356-.023.179-.04.357-.052.536-.008.12-.014.238-.016.357,0,.184,0,.367.01.548,0,.108.008.214.018.32.013.156.036.309.059.462a6.86,6.86,0,0,0-.882-.226,5.594,5.594,0,0,0-4.4,1.138,11.59,11.59,0,0,0-3.17,4.1,24.83,24.83,0,0,0-1.559,4.051q-.241.9-.458,1.722-.177.8-.332,1.51c-.2.945-.343,1.83-.457,2.486-.161,1.154-.251,1.812-.251,1.812l0,.01a7.439,7.439,0,0,0-.066.84c0,.092,0,.181,0,.271,0,.182.006.362.021.539.008.109.023.213.036.32.02.156.043.308.072.459.021.1.043.2.068.305.037.148.079.29.125.429.03.089.058.178.091.263.055.141.117.273.183.4.036.071.068.145.107.212a3.282,3.282,0,0,0,.246.362c.038.051.073.109.114.157a2.55,2.55,0,0,0,.414.393h0a1.8,1.8,0,0,0,.255.138,2.053,2.053,0,0,0,.248.132,1.573,1.573,0,0,0,.481.085,1.3,1.3,0,0,0,.153-.016,1.563,1.563,0,0,0,.332-.053,1.609,1.609,0,0,0,.174-.069,1.923,1.923,0,0,0,.292-.143c.063-.039.123-.085.185-.131a2.765,2.765,0,0,0,.252-.215c.062-.061.124-.125.183-.194a3.341,3.341,0,0,0,.22-.282c.056-.079.111-.157.165-.244.073-.12.14-.251.205-.385.041-.083.084-.16.122-.248a6.02,6.02,0,0,0,.264-.741l.032-.114c.043-.151.127-.448.246-.871q.092-.319.207-.732c.155-.451.311-.93.526-1.515l.354-.921c.129-.286.266-.589.408-.9.073-.136.147-.276.221-.411a4.532,4.532,0,0,1,.67-.989c.287-.32.5-.376.583-.281a3.092,3.092,0,0,0,.389.412,7.692,7.692,0,0,1,1,1.15c.29.4.594.893.9,1.409q.387.663.768,1.406c.276.54.547,1.09.808,1.668.392.854.76,1.736,1.105,2.586.229.574.442,1.129.648,1.671l2.842,18.562c-.6-.625-1.218-1.3-1.836-2.01-2.659-3.044-5.326-6.626-7.885-8.984a14.792,14.792,0,0,0-1.875-1.5c-.3-.2-.621-.367-.895-.522-.3-.138-.588-.25-.84-.346a6.459,6.459,0,0,0-.893-.206l-.187-.028-.1,0-.16.01-.293.019c-1.205.071-2.264,1.554-2.486,3.6-.25,2.311.655,4.5,2.031,4.908l.01,0,.284.084.154.046a.6.6,0,0,1,.082.027l.007.037c.013.049.007.074.036.106.084.086.174.164.277.256l.37.4a14.855,14.855,0,0,1,.985,1.3c.75,1.084,1.653,2.634,2.637,4.417s2.068,3.81,3.235,5.855a62.884,62.884,0,0,0,3.849,6.038,29.862,29.862,0,0,0,2.221,2.678,19.543,19.543,0,0,0,2.4,2.189c.413.309.839.58,1.234.841.215.123.427.237.634.345l.039.254,1.142.289a8.9,8.9,0,0,0,1.584.473,5.506,5.506,0,0,0,.873.149L436.24,232.1l.244.543c.1,1.5,1.2,2.679,1.88,4.212q.958,2.249,2.068,4.855l2.351,5.513c.824,1.952,1.659,4.07,2.546,6.242s1.8,4.45,2.748,6.8l2.81,7.334q.723,1.883,1.465,3.817.7,1.947,1.427,3.938,1.434,3.977,2.922,8.107,1.4,4.145,2.837,8.4.713,2.124,1.43,4.269M420.883,178.56c-.975-1.634-2.141-3.513-3.548-5.423a29.972,29.972,0,0,0-3.783-4.338.174.174,0,0,0,.024-.023c.063-.058.126-.109.188-.175a4.529,4.529,0,0,0,.464-.588l.231-.353.28-.426.178-.27a1,1,0,0,1,.079-.1c.024-.027.048-.052.075-.087l.333-.4.424-.455c.145-.134.29-.249.434-.369.128-.052.272-.182.363-.164a.291.291,0,0,1,.13,0c.1.024.119.127.115.226,0,.133.1.284.346.693.061.1.126.214.2.342.212.384.466.891.726,1.494q.261.6.531,1.283t.541,1.438c.181.5.361,1.015.541,1.54.464,1.358.921,2.779,1.367,4.174.071.221.142.444.211.662l.515,1.612q.546,1.716,1.032,3.237c-.51-.935-1.171-2.132-1.994-3.518" fill="#5f6368"/>
            </g>
          </g>
        </g>
        <path id="Trazado_25822" data-name="Trazado 25822" d="M138.56,76.777l-.743-1.539c-.237-.507-.513-.954-.829-1.553-.333-.564-.714-1.256-1.155-1.89-.221-.321-.441-.677-.688-.97a8.324,8.324,0,0,0-.742-.883,6.7,6.7,0,0,0-.735-.695c-.112-.069-.215-.12-.313-.188s-.156-.032-.218-.069-.055.065-.06.059c0,.018.087.132.154.14a1.815,1.815,0,0,0,.651.221c.366.025.075.194-.343.747a21,21,0,0,0-1.444,2.109c-.505.813-1,1.751-1.469,2.649-.939,1.843-1.778,3.705-2.487,5.328-.7,1.656-1.287,3.035-1.7,4l-.638,1.549a8.041,8.041,0,1,1-14.87-6.126,8.486,8.486,0,0,1,.757-1.417l.971-1.447c.627-.925,1.513-2.245,2.639-3.847s2.471-3.478,4.088-5.505c.832-1.019,1.689-2.064,2.716-3.144a28.785,28.785,0,0,1,3.59-3.273c.389-.277.753-.545,1.17-.81.457-.269.861-.526,1.368-.773a11.591,11.591,0,0,1,3.537-1.132,9.318,9.318,0,0,1,2.125-.085,10.648,10.648,0,0,1,2.11.385,10.328,10.328,0,0,1,3.246,1.747,13.515,13.515,0,0,1,3.271,3.908A17.5,17.5,0,0,1,143.436,66c.284.556.479,1.074.688,1.575.42,1.008.7,1.888.971,2.7.239.8.489,1.561.613,2.073.269,1.054.422,1.656.422,1.656v0a4.05,4.05,0,0,1-7.571,2.761" fill="#feb782"/>
        <path id="Trazado_25823" data-name="Trazado 25823" d="M122.58,59.511l-.408-.152c-.258-.093-.675-.26-1.134-.415-.4-.087-.824-.247-1.393-.343a6.362,6.362,0,0,0-.853-.146,4.929,4.929,0,0,0-.852-.058,2.718,2.718,0,0,0-1.328.243,1.42,1.42,0,0,0-.576.6,9.475,9.475,0,0,0-.727,1.4,21.144,21.144,0,0,0-.827,2.482c-.521,1.889-.93,4.123-1.308,6.265l-1.052,6.112c-.325,1.84-.648,3.421-.877,4.525l-.387,1.751a8.044,8.044,0,1,1-15.71-3.47,8.142,8.142,0,0,1,.5-1.533l.024-.049s.23-.511.634-1.405c.4-.912.96-2.213,1.616-3.856l2.283-5.79c.884-2.2,1.836-4.6,3.168-7.173a29.318,29.318,0,0,1,2.417-3.933,15.931,15.931,0,0,1,3.891-3.776,11.7,11.7,0,0,1,5.359-1.921,12.784,12.784,0,0,1,4.48.368,13.724,13.724,0,0,1,1.677.516,14.344,14.344,0,0,1,1.376.564c.834.348,1.554.779,2.137,1.078.5.294.815.508,1.066.662l.368.232.008,0a4.051,4.051,0,0,1-3.574,7.223" fill="#feb782"/>
        <path id="Trazado_25824" data-name="Trazado 25824" d="M106.368,56.761l-1.546-.073c-.495-.024-.922.018-1.5.021a17.1,17.1,0,0,0-1.835.18,5.6,5.6,0,0,0-.913.188,4.847,4.847,0,0,0-.791.265c-.438.211-.675.458-.618.57s.2.089.184.416c0,.312-.014.943.04,1.731s.164,1.747.292,2.728c.148,1.052.293,2.087.434,3.089.3,2.113.557,4.255.675,6.186a45.654,45.654,0,0,1,.052,4.858c-.069,1.223-.139,1.937-.139,1.937l-.036.379A8.073,8.073,0,0,1,84.6,77.677a8.556,8.556,0,0,1,.381-1.789s.131-.387.348-1.1a28.706,28.706,0,0,0,.71-3.223c.238-1.425.429-3.2.6-5.281.09-1.095.183-2.228.278-3.378.117-1.22.24-2.5.5-3.944a19.293,19.293,0,0,1,1.438-4.775,11.434,11.434,0,0,1,3.963-4.723,11.826,11.826,0,0,1,4.89-1.8,15.155,15.155,0,0,1,1.98-.134,13.632,13.632,0,0,1,1.7.061,26.951,26.951,0,0,1,2.739.363c.78.165,1.538.307,2.011.438l1.492.41.008,0a4.054,4.054,0,0,1-1.265,7.959" fill="#feb782"/>
        <path id="Trazado_25825" data-name="Trazado 25825" d="M93.543,65.145l-1.241.244c-.426.071-.794.189-1.269.306s-1,.3-1.558.467l-.828.316c-.274.114-.528.249-.8.372a4.7,4.7,0,0,0-1.228.868c-.28.291-.317.508-.238.567s.138.11.243.428a10.989,10.989,0,0,0,.592,1.339c.3.554.66,1.157,1.049,1.757.8,1.215,1.7,2.419,2.5,3.5l2.017,2.732.79,1.121A6.078,6.078,0,1,1,83.037,85.1l-.023-.054-.46-1.064c-.3-.684-.772-1.694-1.372-2.974s-1.331-2.84-2.061-4.7A30.5,30.5,0,0,1,78.1,73.207a15.638,15.638,0,0,1-.549-3.986,9.661,9.661,0,0,1,1.263-4.868A9.1,9.1,0,0,1,82.144,61.1a12.981,12.981,0,0,1,3.2-1.3c.476-.109.946-.227,1.385-.308l1.252-.2c.788-.075,1.485-.162,2.133-.179.631-.025,1.224-.063,1.6-.047l1.265.013a3.06,3.06,0,0,1,.563,6.063" fill="#feb782"/>
        <path id="Trazado_25826" data-name="Trazado 25826" d="M71.63,104.431c14.073-1.9,22.352,5.11,24.789,19.084l24.124-.822,7.81-43.513L83.571,71.142Z" fill="#feb782"/>
        <path id="Trazado_25827" data-name="Trazado 25827" d="M81.746,94.87c-2.271.411-3.1,7.679-3.441,9.363a30.026,30.026,0,0,0-6.675.2L82.814,71.006l34.159,6.132a73.285,73.285,0,0,1-5.764,8.535c-2.559,4.163-13.127,6.244-29.463,9.2" fill="#f09f70"/>
        <path id="Trazado_25828" data-name="Trazado 25828" d="M111.691,78.25l.971-1.446c.628-.926,1.513-2.245,2.639-3.848s2.471-3.478,4.088-5.505c.832-1.018,1.689-2.064,2.716-3.144a28.785,28.785,0,0,1,3.59-3.273c.39-.277.753-.544,1.17-.81.457-.268.861-.526,1.368-.772a11.561,11.561,0,0,1,3.538-1.133,9.364,9.364,0,0,1,2.124-.085,10.723,10.723,0,0,1,2.11.386,11.537,11.537,0,0,1,1.809.781c.245.144.486.294.723.447-.181.077-.357.169-.535.256a9.694,9.694,0,0,0-2.424-.264,9.534,9.534,0,0,0-6.971,2.249c-6.191,5.039-10.11,12.316-14.252,18.994-.707,1.141-1.023,2.181-2.28,2.93a1.443,1.443,0,0,1-.789.256c-2.274-.115-.136-5.212.4-6.019" fill="#f09f70"/>
        <path id="Trazado_25829" data-name="Trazado 25829" d="M103.408,65.551c-1.6,4.3-3.9,9.386,2.089,11.149,2.371.7-7.416,6.667-8.29,8.908a8.043,8.043,0,0,1-1.538-8.881l.005-.01.633-1.405c.4-.911.96-2.212,1.616-3.855l2.283-5.791c.442-1.1.895-2.242,1.418-3.447s1.075-2.438,1.75-3.725a29.43,29.43,0,0,1,2.417-3.934,15.985,15.985,0,0,1,3.891-3.776,11.7,11.7,0,0,1,5.359-1.92l.071,0c-6.464,2.728-9.32,10.29-11.7,16.69" fill="#f09f70"/>
        <path id="Trazado_25830" data-name="Trazado 25830" d="M86.635,66.283c.09-1.095.184-2.228.278-3.378.118-1.22.241-2.5.5-3.944a19.245,19.245,0,0,1,1.437-4.775A12.2,12.2,0,0,1,90.462,51.6a10.81,10.81,0,0,1,2.35-2.138,11.831,11.831,0,0,1,4.89-1.8,15.166,15.166,0,0,1,1.98-.134l.892,0,.809.059a26.928,26.928,0,0,1,2.738.363l.572.119c-6.414-.4-12.752,3.516-13.569,10.941a237.922,237.922,0,0,0-1.633,26.872,8.069,8.069,0,0,1-4.509-10s.13-.387.348-1.1a28.934,28.934,0,0,0,.71-3.223c.116-.714.228-1.51.324-2.4s.185-1.848.271-2.886" fill="#f09f70"/>
        <path id="Trazado_25831" data-name="Trazado 25831" d="M78.809,64.353A9.107,9.107,0,0,1,82.143,61.1a13,13,0,0,1,3.2-1.3l.615-.143a9.538,9.538,0,0,0-3.377,6.829c-.341,6.063,3.61,11.048,6.983,15.7a5.443,5.443,0,0,0,4.851,2.233,6.075,6.075,0,0,1-11.395.66l-.01-.024-.46-1.064c-.3-.684-.773-1.694-1.372-2.974s-1.331-2.84-2.061-4.7A30.5,30.5,0,0,1,78.1,73.207a15.638,15.638,0,0,1-.549-3.986,9.661,9.661,0,0,1,1.263-4.868" fill="#f09f70"/>
        <path id="Trazado_25832" data-name="Trazado 25832" d="M149.678,112.135l-.4-.031a3.931,3.931,0,0,0-.443-.024.847.847,0,0,1-.168.076c-.193.048-.589.117-1.006.241a14.564,14.564,0,0,0-1.577.571,42.253,42.253,0,0,0-4.5,2.315c-1.733.988-3.674,2.162-5.753,3.311a54.318,54.318,0,0,1-6.682,3.2,35.709,35.709,0,0,1-3.57,1.175,29.062,29.062,0,0,1-3.554.7,24.411,24.411,0,0,1-3.248.209,22.06,22.06,0,0,1-2.615-.153c-.732-.062-1.307-.2-1.7-.261l-.6-.113-.461-.086a8.1,8.1,0,0,1,2.975-15.923A8.376,8.376,0,0,1,118.4,108l.177.085a4.452,4.452,0,0,0,.514.248,6.4,6.4,0,0,0,.886.316,8.883,8.883,0,0,0,1.332.269,13.676,13.676,0,0,0,1.832.1,20.581,20.581,0,0,0,2.324-.2,40.778,40.778,0,0,0,5.674-1.3c4.093-1.184,8.516-2.865,12.586-3.545a22.331,22.331,0,0,1,2.917-.308,16.767,16.767,0,0,1,2.521.107c.43.058.81.123,1.136.185.27.06.363.1.508.145l.387.118a4.055,4.055,0,0,1-1.5,7.919Z" fill="#feb782"/>
        <path id="Trazado_25833" data-name="Trazado 25833" d="M106.73,107.148A15.463,15.463,0,0,0,89.206,94.067H89.2l-8.285,1.2-4.366.634-5.471,1.013c-3.914.746-8.408,1.52-13.052,2.67l-7.338,1.7c-2.527.642-5.123,1.4-7.8,2.13-5.385,1.382-10.94,3.33-16.745,5.2-2.879,1-5.768,2.143-8.718,3.239-1.468.563-2.963,1.1-4.437,1.7l-4.414,1.892L4.116,117.36l-2.239.966L0,119.23v46c3.389-2.4,6.91-4.667,10.4-7l7.212-4.348,1.8-1.085,1.843-1,3.67-1.987q1.83-1,3.646-1.981c1.222-.635,2.469-1.2,3.693-1.806,2.462-1.172,4.867-2.4,7.288-3.5,4.9-2.064,9.581-4.231,14.212-5.864,2.3-.855,4.519-1.737,6.7-2.508l6.375-2.1c4.112-1.432,7.8-2.4,11.1-3.354l4.643-1.324,4.291-1.027,8.142-1.945a15.529,15.529,0,0,0,11.708-17.262" fill="#feb782"/>
        <path id="Trazado_25834" data-name="Trazado 25834" d="M76.619,112.25A17.4,17.4,0,0,0,55.485,99.645l-6.762,1.707-3.587.917-4.55,1.336L35.4,105.138c-1.812.551-3.617,1.195-5.557,1.834-1.924.657-3.944,1.3-6.009,2.047l-6.367,2.409-3.32,1.272-3.359,1.419c-2.259.969-4.592,1.915-6.924,2.967q-1.915.9-3.868,1.817v46.626c1.3-.9,2.6-1.781,3.892-2.681.964-.65,1.906-1.339,2.884-1.956L9.7,159.046l2.907-1.836,1.445-.911,1.469-.848L21.31,152.1c1.918-1.072,3.848-2.044,5.715-3.044l2.779-1.471,2.765-1.334,5.314-2.55c1.731-.8,3.437-1.5,5.058-2.213,1.62-.691,3.194-1.413,4.656-2l4.139-1.619,3.645-1.437,3.446-1.2,6.594-2.274a17.472,17.472,0,0,0,11.2-20.714" fill="#b8b181"/>
        <path id="Trazado_25835" data-name="Trazado 25835" d="M71.963,130.47l10.485-2.306c15.666-3.445,8.533-35.887-7.134-32.443L64.829,98.027c15.884-3.493,23.018,28.95,7.134,32.443" fill="#ac7768"/>
        <path id="Trazado_25836" data-name="Trazado 25836" d="M64.723,99.259c.189,3.96,5.694,6.914,12.294,6.6s11.8-3.782,11.608-7.742-5.694-6.914-12.294-6.6-11.8,3.782-11.608,7.742" fill="#ac7768"/>
        <path id="Trazado_25837" data-name="Trazado 25837" d="M68.127,97.089c.093,1.952,3.953,3.353,8.62,3.129s8.376-1.986,8.282-3.938-3.953-3.353-8.62-3.129-8.375,1.986-8.282,3.938" fill="#fafaf8"/>
        <path id="Trazado_25838" data-name="Trazado 25838" d="M199.784,198.553c9.338-10.7,20.182-10.881,31.221-1.974l17.608-16.512-22.792-37.88-38.985,23.456Z" fill="#feb782"/>
        <path id="Trazado_25839" data-name="Trazado 25839" d="M201.1,184.7c-1.438,1.806,2.727,7.819,3.579,9.312a30.039,30.039,0,0,0-4.891,4.545L186.177,166.04l29.737-17.892a73.152,73.152,0,0,1,1.287,10.218c.818,4.818-5.761,13.347-16.105,26.33" fill="#f09f70"/>
        <path id="Trazado_25840" data-name="Trazado 25840" d="M227.9,177.273a15.459,15.459,0,0,0-21.773,1.97l-1.651,1.979-1.983,2.377-.607.728-.713.94q-.733.974-1.559,2.067c-2.293,2.977-4.616,6.368-7.262,10.4-2.581,4.043-5.367,8.672-8.1,13.835q-1.018,1.941-2.078,3.96c-.706,1.348-1.34,2.743-2.032,4.152-1.4,2.815-2.693,5.763-4.03,8.8-.691,1.512-1.3,3.065-1.946,4.632s-1.306,3.156-1.92,4.769c-1.206,3.231-2.494,6.531-3.623,9.914-2.379,6.753-4.506,13.787-6.5,20.958-2.014,7.172-3.73,14.49-5.362,21.819-1.593,7.331-2.982,14.675-4.239,21.909-1.2,7.234-2.313,14.36-3.213,21.252-.922,6.894-1.705,13.556-2.36,19.869-.672,6.315-1.2,12.277-1.664,17.779-.915,11-1.474,20.145-1.841,26.534-.111,2.073-.207,3.852-.285,5.316h48.137q-.045-1.89-.1-4.386c-.12-6.149-.258-14.917-.194-25.39.037-5.235.1-10.9.278-16.874.158-5.976.411-12.262.775-18.742.342-6.487.864-13.149,1.457-19.909.646-6.743,1.4-13.573,2.333-20.349.971-6.762,2.01-13.515,3.317-20.056,1.287-6.547,2.694-12.948,4.324-19.021.761-3.063,1.663-6,2.493-8.9.424-1.448.9-2.847,1.343-4.249s.873-2.79,1.365-4.12c.945-2.684,1.855-5.306,2.856-7.767.493-1.234.938-2.477,1.445-3.648l1.486-3.455c1.957-4.507,3.961-8.5,5.816-11.975,1.89-3.429,3.65-6.471,5.03-8.577q.521-.835.986-1.578l.45-.723q.283-.4.549-.773l1.794-2.521,1.494-2.1.039-.053a15.461,15.461,0,0,0-2.729-20.786" fill="#feb782"/>
        <path id="Trazado_25841" data-name="Trazado 25841" d="M196.919,403.23c-.034-1.889-.075-4.2-.121-6.838-.1-7.3-.138-17,.013-26.641s.491-19.24.875-26.4c.1-1.763.188-3.379.268-4.81.041-.71.081-1.374.116-1.989.047-.656.088-1.259.127-1.8.151-2.18.239-3.425.239-3.425a27.184,27.184,0,0,0-54.047-5.608s-.171,1.238-.468,3.4c-.076.541-.157,1.139-.248,1.792-.088.7-.185,1.449-.287,2.253-.2,1.6-.422,3.4-.666,5.363-.939,7.752-2.019,18.077-2.861,28.369s-1.5,20.556-1.918,28.225c-.158,3.222-.3,5.985-.4,8.113Z" fill="#6b4f7e"/>
        <path id="Trazado_25842" data-name="Trazado 25842" d="M241.623,127.1a1.5,1.5,0,0,1-1.439-1.926l4.744-16.046a1.5,1.5,0,0,1,2.877.85l-4.744,16.047a1.5,1.5,0,0,1-1.438,1.075" fill="#36333d"/>
        <path id="Trazado_25843" data-name="Trazado 25843" d="M222.23,195.178a4.5,4.5,0,0,1-4.313-5.79l21.765-72.813a4.5,4.5,0,0,1,8.623,2.578L226.54,191.966a4.5,4.5,0,0,1-4.31,3.212" fill="#36333d"/>
        <path id="Trazado_25844" data-name="Trazado 25844" d="M222.23,195.178a4.5,4.5,0,0,1-4.313-5.79l15.04-50.316a4.5,4.5,0,1,1,8.623,2.577l-15.04,50.317a4.5,4.5,0,0,1-4.31,3.212" fill="#ce4a7c"/>
        <path id="Trazado_25845" data-name="Trazado 25845" d="M222.23,195.178a4.5,4.5,0,0,1-4.313-5.79l1.167-3.9a4.5,4.5,0,1,1,8.623,2.578l-1.167,3.9a4.5,4.5,0,0,1-4.31,3.212" fill="#ff5b98"/>
        <path id="Trazado_25846" data-name="Trazado 25846" d="M231.916,133.655l-1.573-.668c-.513-.225-1.014-.379-1.647-.622-.622-.205-1.363-.475-2.114-.662-.377-.1-.778-.218-1.156-.276a8.462,8.462,0,0,0-1.14-.176,6.762,6.762,0,0,0-1.011-.037c-.13.021-.241.05-.359.064s-.139.079-.21.092c-.089.01,0,.085-.006.084a.283.283,0,0,0,.208,0,1.8,1.8,0,0,0,.635-.262c.291-.222.185.1.234.788a21.4,21.4,0,0,0,.3,2.538c.156.945.4,1.975.64,2.961.509,2.005,1.1,3.958,1.64,5.647.563,1.707,1.032,3.13,1.36,4.126l.541,1.587a8.041,8.041,0,0,1-15.223,5.188,8.53,8.53,0,0,1-.364-1.566s-.082-.628-.223-1.727-.341-2.686-.55-4.633-.432-4.245-.551-6.835c-.045-1.315-.089-2.665-.028-4.155a28.962,28.962,0,0,1,.544-4.827c.111-.465.208-.906.347-1.381.166-.5.3-.962.52-1.481a11.592,11.592,0,0,1,1.915-3.184,9.4,9.4,0,0,1,1.542-1.463,10.651,10.651,0,0,1,1.842-1.1,10.336,10.336,0,0,1,3.592-.825,13.536,13.536,0,0,1,5.037.785,17.786,17.786,0,0,1,1.827.7c.579.232,1.068.492,1.555.732.98.48,1.767.962,2.51,1.393.708.445,1.4.851,1.827,1.155l1.409.968,0,0a4.05,4.05,0,0,1-3.877,7.065" fill="#feb782"/>
        <path id="Trazado_25847" data-name="Trazado 25847" d="M215.148,138.306l-.379-.039-.456-.045-.281-.027-.195.016-.45.028-.593.061a4.833,4.833,0,0,0-1.169.334,2.241,2.241,0,0,0-.852.6,2.588,2.588,0,0,0-.476.821,8.316,8.316,0,0,0-.377,3.131,18.983,18.983,0,0,0,.814,4.431,31.077,31.077,0,0,0,1.558,4.1c.541,1.2,1.079,2.186,1.456,2.873l.617,1.075a8.062,8.062,0,1,1-14.728,6.292l-.024-.089s-.169-.586-.466-1.613c-.279-1.035-.668-2.515-1.011-4.353a44.275,44.275,0,0,1-.764-6.439A30.385,30.385,0,0,1,198,141.55a20.943,20.943,0,0,1,1.451-4.247,15,15,0,0,1,2.692-3.979,12.651,12.651,0,0,1,3.887-2.783,12.148,12.148,0,0,1,3.946-1.061,14.472,14.472,0,0,1,3.125.033l1.2.193c.38.076.744.168,1.061.245l.452.113.282.1.432.151.36.126.006,0a4.057,4.057,0,0,1-1.747,7.867" fill="#feb782"/>
        <path id="Trazado_25848" data-name="Trazado 25848" d="M202.474,143.238l-.336.023-.184.013c-.025,0-.088,0-.086.01l.042.03c.045.043.169.047.184.072a7.076,7.076,0,0,1-.457.8,8.372,8.372,0,0,0-.895,2.546,13.291,13.291,0,0,0-.171,3.809,15.7,15.7,0,0,0,.846,3.855,14.809,14.809,0,0,0,.691,1.673,14.029,14.029,0,0,0,.761,1.419,18.387,18.387,0,0,0,1.359,1.971l.582.7a8.106,8.106,0,1,1-13.657,8.432l-.129-.306-.66-1.539A33.248,33.248,0,0,1,189,162.553a31.152,31.152,0,0,1-.921-6.121,28.3,28.3,0,0,1,.513-7.037,24.061,24.061,0,0,1,2.4-6.766,16.58,16.58,0,0,1,4.369-5.31,11.022,11.022,0,0,1,2.792-1.6,9.452,9.452,0,0,1,2.657-.633,10.259,10.259,0,0,1,1.264-.024l.27.014a.911.911,0,0,1,.123.02l.181.036.33.066a4.065,4.065,0,0,1-.51,8.043" fill="#feb782"/>
        <path id="Trazado_25849" data-name="Trazado 25849" d="M202.939,152.655l-1.113.624-1.278.715c-.436.28-.79.6-1.246.921a10.421,10.421,0,0,0-1.36,1.172,6.406,6.406,0,0,0-.688.68l-.6.748a4.46,4.46,0,0,0-.3.375l-.22.4a8.476,8.476,0,0,0-.431.785q-.126.4-.276.779a6.016,6.016,0,0,0-.126.739,1.884,1.884,0,0,0-.008.677l0,.313c.037.1.069.2.1.292a1.405,1.405,0,0,0,.187.537c.11.163.1.338.259.479.129.145.2.3.314.43a3.683,3.683,0,0,1,.381.377,4.809,4.809,0,0,0,.428.32l.191.156c.072.047.163.08.237.12.155.077.295.154.422.233a3.291,3.291,0,0,0,.435.163,3.053,3.053,0,0,0,.726.233c.435.089.663.161.663.161l.393.124a6.071,6.071,0,1,1-3.652,11.58,6.493,6.493,0,0,1-.8-.318s-.618-.3-1.664-.854a12.7,12.7,0,0,1-1.82-1.171,13,13,0,0,1-1.063-.815l-1.1-1.048c-.186-.188-.381-.367-.562-.575l-.531-.675a15.316,15.316,0,0,1-1.04-1.461c-.307-.549-.61-1.118-.9-1.7a20.1,20.1,0,0,1-.676-1.916,11.072,11.072,0,0,1-.4-2.064,9.381,9.381,0,0,1-.072-2.141l.062-1.076c.059-.351.137-.7.213-1.046a9.712,9.712,0,0,1,.6-2.013,15.227,15.227,0,0,1,.856-1.841c.347-.553.7-1.093,1.06-1.617a17.236,17.236,0,0,1,1.193-1.369l.6-.641c.2-.2.425-.362.635-.542l1.253-1a12.049,12.049,0,0,1,1.244-.809,16.994,16.994,0,0,1,2.366-1.288c.757-.339,1.489-.687,2.063-.9l1.395-.445,1.216-.387.011,0a3.059,3.059,0,0,1,2.422,5.585" fill="#feb782"/>
        <path id="Trazado_25850" data-name="Trazado 25850" d="M212.673,152.464l-.223-1.728c-.137-1.109-.34-2.686-.549-4.632s-.433-4.245-.552-6.835c-.044-1.315-.089-2.665-.028-4.155a28.864,28.864,0,0,1,.545-4.827c.111-.466.208-.906.347-1.381.166-.5.3-.962.52-1.482a11.577,11.577,0,0,1,1.915-3.183,9.363,9.363,0,0,1,1.542-1.463,10.642,10.642,0,0,1,1.841-1.1,11.507,11.507,0,0,1,1.876-.6c.28-.053.559-.1.838-.14-.085.177-.157.363-.234.545a9.769,9.769,0,0,0-2,1.4,9.541,9.541,0,0,0-3.763,6.285c-1.337,7.869.509,15.926,1.793,23.678.219,1.325,1.158,4.531.706,5.922-.087.267-1.012.178-1.232.352-1.786,1.412-3.22-5.687-3.345-6.65" fill="#f09f70"/>
        <path id="Trazado_25851" data-name="Trazado 25851" d="M247.962,135.887l-.158.508c-.051.165-.115.37-.189.61a2.311,2.311,0,0,1,.02.324c-.013.065,0,.353-.008.576a6.056,6.056,0,0,0,.04.816,14.394,14.394,0,0,0,.4,2.194c.232.865.53,1.831.931,2.911s.86,2.245,1.381,3.513a83.683,83.683,0,0,1,3.191,8.675,32.283,32.283,0,0,1,1.087,5.249,24.141,24.141,0,0,1,.037,5.747,22.8,22.8,0,0,1-1.369,5.586c-.367.838-.717,1.684-1.129,2.435-.426.732-.819,1.493-1.269,2.117s-.871,1.261-1.306,1.8l-1.268,1.486c-.818.881-1.562,1.592-2.177,2.176l-1.972,1.678a8.042,8.042,0,1,1-10.423-12.25,8.162,8.162,0,0,1,1.147-.816l.2-.112,1.282-.742c.368-.248.827-.546,1.316-.9l.722-.572c.248-.2.45-.429.708-.653s.426-.482.677-.73c.226-.255.39-.536.62-.814a8.717,8.717,0,0,0,.955-2.017,10.436,10.436,0,0,0,.5-2.745,19.348,19.348,0,0,0-.108-3.461,73.394,73.394,0,0,0-1.51-8c-.308-1.369-.61-2.766-.862-4.137a41.048,41.048,0,0,1-.556-4.071,22.517,22.517,0,0,1,.013-3.822,13.629,13.629,0,0,1,.244-1.69,12.579,12.579,0,0,1,.375-1.524c.163-.509.324-.966.467-1.339l.289-.57.241-.474a4.044,4.044,0,0,1,7.467,3.032" fill="#feb782"/>
        <path id="Trazado_25852" data-name="Trazado 25852" d="M147.994,295.747a15.694,15.694,0,0,0-5.116,6.8c-.879,2.735-.3,6.1,2.01,7.818-8.495,8.587-9.814,23.331-2.979,33.29,3.526-12.358,16.065-21.515,28.911-21.113a28.017,28.017,0,0,1,26.68,21.815,31.924,31.924,0,0,0,6.244-4.462c3.365-3.051,4.5-7.994,3.938-12.5s-2.6-8.683-4.771-12.674c3.831-2.141,5.136-7.355,3.842-11.548s-4.619-7.463-8.225-9.965c-14.907-10.34-36.74-9.242-50.534,2.541" fill="#ce4a7c"/>
        <path id="Trazado_25853" data-name="Trazado 25853" d="M213.748,154.586c-.043-.08-.1-.176-.143-.264a5.383,5.383,0,0,1-.925,0c-9.722-.815-10.464-12.523-6.9-19.473a11.072,11.072,0,0,1,6.2-5.424,12.738,12.738,0,0,0-2,.051,12.155,12.155,0,0,0-3.946,1.061,12.648,12.648,0,0,0-3.887,2.782,13.808,13.808,0,0,0-1.424,1.771,9.4,9.4,0,0,0-2.561.622,11.022,11.022,0,0,0-2.792,1.6,16.593,16.593,0,0,0-4.369,5.31,24.039,24.039,0,0,0-2.4,6.766,28.228,28.228,0,0,0-.54,5.8c-.193.293-.388.579-.577.88a15.362,15.362,0,0,0-.855,1.84,9.661,9.661,0,0,0-.6,2.014c-.076.347-.154.695-.213,1.046l-.062,1.076a9.371,9.371,0,0,0,.072,2.14,10.984,10.984,0,0,0,.4,2.065,19.823,19.823,0,0,0,.676,1.916c.291.582.594,1.152.9,1.7a15.315,15.315,0,0,0,1.04,1.461l.531.674c.181.208.376.388.562.576l1.1,1.047a21.124,21.124,0,0,0,2.883,1.987c1.045.557,1.664.854,1.664.854a6.5,6.5,0,0,0,.8.318,6.062,6.062,0,0,0,7.893-5.666,8.067,8.067,0,0,0,2.083-3.461,8.051,8.051,0,0,0,8.006-12l-.617-1.075" fill="#f09f70"/>
        <path id="Trazado_25854" data-name="Trazado 25854" d="M359.909,342.228c5.525-13.081,15.768-16.646,29.039-11.638l7.712-18.221-29.645-31.823-29.7,34.471Z" fill="#feb782"/>
        <path id="Trazado_25855" data-name="Trazado 25855" d="M356.822,328.656c-.8,2.164,5.035,6.574,6.312,7.725a30,30,0,0,0-3.225,5.847L336.817,315.6l22.651-26.293a73.048,73.048,0,0,1,4.418,9.3c2.284,4.321-1.3,14.479-7.064,30.046" fill="#f09f70"/>
        <path id="Trazado_25856" data-name="Trazado 25856" d="M382.529,403.23c-.141-1.754-.265-3.5-.36-5.215-.235-3.149-.3-6.219-.417-9.238-.049-1.508-.033-2.986-.053-4.456s-.043-2.923.009-4.34c.058-2.845.1-5.62.284-8.27.082-1.327.117-2.646.232-3.918s.223-2.522.331-3.746c.45-4.892,1.106-9.308,1.78-13.193.722-3.848,1.443-7.287,2.094-9.72q.237-.955.445-1.807c.069-.285.135-.561.2-.826.1-.313.19-.616.281-.907.361-1.163.667-2.153.915-2.956.5-1.605.763-2.462.763-2.462l.02-.063A15.459,15.459,0,0,0,359.9,321.9s-.331.834-.949,2.4c-.31.782-.691,1.745-1.141,2.878-.111.283-.228.576-.348.881q-.185.54-.383,1.116-.395,1.155-.835,2.452c-1.248,3.543-2.394,7.491-3.647,12.147-1.188,4.647-2.385,9.915-3.371,15.676q-.358,2.16-.734,4.41c-.25,1.5-.416,3.024-.633,4.578-.448,3.112-.756,6.317-1.076,9.619-.184,1.654-.278,3.319-.4,5.009s-.255,3.4-.333,5.131c-.135,3.445-.327,6.982-.342,10.55-.03,1.485-.039,2.984-.043,4.485Z" fill="#feb782"/>
        <path id="Trazado_25857" data-name="Trazado 25857" d="M387.1,403.23c-.049-.75-.1-1.508-.146-2.246-.159-2.559-.349-5.068-.47-7.465q-.09-3.549-.172-6.847t-.168-6.314q-.04-1.506-.081-2.935c-.01-.48-.034-.934-.032-1.418s.018-.979.027-1.458c.072-3.828.135-7.165.186-9.913.1-5.5.162-8.636.162-8.636a19.486,19.486,0,0,0-38.824-2.74v.008s-.382,3.118-1.052,8.574c-.335,2.729-.742,6.041-1.208,9.841q-.087.713-.178,1.447-.066.78-.135,1.582-.131,1.62-.268,3.329-.271,3.422-.572,7.183t-.61,7.826c-.145,2.676-.225,5.411-.344,8.245-.024.637-.05,1.292-.075,1.937Z" fill="#ac7768"/>
        <path id="Trazado_25858" data-name="Trazado 25858" d="M369.882,268.448l-1.639.172c-.491.064-.993.157-1.615.258-.621.129-1.327.26-2.021.464a11.95,11.95,0,0,0-1.995.736,2.393,2.393,0,0,0-1.057.863c-.069.236.2.106.288.135s.184.447.417,1.061a19.482,19.482,0,0,0,1.03,2.214c.421.8.943,1.658,1.458,2.481,1.059,1.662,2.192,3.26,3.193,4.636l2.5,3.352.977,1.284-13.673,8.316-.721-1.521c-.458-.977-1.116-2.366-1.89-4.1s-1.668-3.782-2.55-6.149c-.436-1.2-.877-2.449-1.26-3.851a27.914,27.914,0,0,1-.917-4.621,14.7,14.7,0,0,1,.526-6,10.851,10.851,0,0,1,1.632-3.173q.268-.357.55-.7c.2-.208.4-.408.6-.6a8.594,8.594,0,0,1,1.244-1.028,13.582,13.582,0,0,1,4.655-2.039,22.367,22.367,0,0,1,3.64-.5c1.074-.07,2-.047,2.832-.039.829.037,1.594.074,2.145.118,1.044.108,1.64.168,1.64.168Z" fill="#feb782"/>
        <path id="Trazado_25859" data-name="Trazado 25859" d="M355.664,280.2l-.372.082-.447.1-.276.062c-.056.025-.117.05-.18.077l-.418.166-.545.244a4.839,4.839,0,0,0-1.006.683,2.236,2.236,0,0,0-.621.836,2.564,2.564,0,0,0-.2.929,8.281,8.281,0,0,0,.622,3.092,18.991,18.991,0,0,0,2.158,3.954,31.048,31.048,0,0,0,2.76,3.4c.889.969,1.709,1.739,2.282,2.273l.922.828a8.062,8.062,0,1,1-12.022,10.583l-.051-.078s-.343-.5-.946-1.386-1.422-2.18-2.322-3.819a44.153,44.153,0,0,1-2.739-5.877,30.329,30.329,0,0,1-1.875-7.71,20.909,20.909,0,0,1,.049-4.487,15.047,15.047,0,0,1,1.313-4.621,12.658,12.658,0,0,1,2.822-3.858,12.128,12.128,0,0,1,3.416-2.243,14.579,14.579,0,0,1,2.979-.946l1.2-.191c.385-.047.76-.074,1.085-.1l.464-.033.3,0,.458.008c.249.005.381.006.381.006h.006a4.058,4.058,0,0,1,.8,8.02" fill="#feb782"/>
        <path id="Trazado_25860" data-name="Trazado 25860" d="M345.167,288.845l-.312.128-.17.069c-.023.011-.083.029-.08.036l.05.016c.057.026.176-.009.2.011a7.489,7.489,0,0,1-.183.9,8.355,8.355,0,0,0-.055,2.7,13.246,13.246,0,0,0,1.03,3.671,15.667,15.667,0,0,0,2.008,3.4,14.791,14.791,0,0,0,1.179,1.373,14.109,14.109,0,0,0,1.167,1.11,18.376,18.376,0,0,0,1.907,1.447l.771.48a8.107,8.107,0,1,1-10.335,12.279l-.218-.249-1.109-1.256a33.506,33.506,0,0,1-2.6-3.555,28.68,28.68,0,0,1-1.458-2.547,29.588,29.588,0,0,1-3.045-9.825,24.02,24.02,0,0,1,.168-7.177,16.6,16.6,0,0,1,2.488-6.41,11.039,11.039,0,0,1,2.152-2.4,9.457,9.457,0,0,1,2.325-1.433,10.453,10.453,0,0,1,1.194-.418c.09-.024.177-.047.261-.071a.938.938,0,0,1,.123-.019l.183-.023.334-.041a4.065,4.065,0,0,1,2.03,7.8" fill="#feb782"/>
        <path id="Trazado_25861" data-name="Trazado 25861" d="M348.555,297.645s-.313.342-.862.939c-.275.3-.608.664-.991,1.08-.326.4-.564.812-.895,1.265a10.456,10.456,0,0,0-.926,1.538,6.347,6.347,0,0,0-.44.861c-.109.294-.221.592-.334.9a4.209,4.209,0,0,0-.164.45l-.083.449a8.065,8.065,0,0,0-.164.881c0,.283,0,.557-.019.827a6.286,6.286,0,0,0,.111.742,1.866,1.866,0,0,0,.205.644l.1.3c.067.084.128.166.182.248a1.375,1.375,0,0,0,.346.451c.155.121.2.29.395.375.168.1.277.22.433.311a3.7,3.7,0,0,1,.48.238,4.694,4.694,0,0,0,.506.17l.231.089c.082.021.179.024.262.039.171.024.328.055.474.09a3.307,3.307,0,0,0,.464.018,3.01,3.01,0,0,0,.762-.005c.442-.051.681-.055.681-.055l.411-.005a6.071,6.071,0,1,1,.152,12.142,6.494,6.494,0,0,1-.863-.051s-.68-.089-1.848-.29a12.6,12.6,0,0,1-2.093-.544,12.773,12.773,0,0,1-1.266-.443l-1.37-.652c-.234-.12-.476-.229-.714-.37l-.714-.475a15.056,15.056,0,0,1-1.444-1.062c-.465-.425-.93-.871-1.388-1.334a19.712,19.712,0,0,1-1.242-1.608,10.994,10.994,0,0,1-1.026-1.836,9.411,9.411,0,0,1-.738-2.011l-.278-1.041c-.054-.352-.088-.707-.125-1.061a9.748,9.748,0,0,1-.063-2.1,15.394,15.394,0,0,1,.237-2.017c.157-.633.326-1.258.5-1.867a16.859,16.859,0,0,1,.7-1.673c.125-.268.249-.533.372-.8s.291-.476.434-.713q.445-.686.876-1.345a11.961,11.961,0,0,1,.929-1.158,17.049,17.049,0,0,1,1.844-1.963c.614-.558,1.2-1.118,1.678-1.5l1.187-.858,1.034-.747.009-.007a3.06,3.06,0,0,1,4.047,4.548" fill="#feb782"/>
        <path id="Trazado_25862" data-name="Trazado 25862" d="M357.741,294.857l-.752-1.571c-.477-1.011-1.163-2.445-1.971-4.229s-1.738-3.9-2.661-6.319c-.453-1.235-.918-2.5-1.325-3.939a28.753,28.753,0,0,1-.993-4.754c-.04-.477-.085-.926-.1-1.42,0-.53-.015-1.008.031-1.571a11.564,11.564,0,0,1,.824-3.622,9.264,9.264,0,0,1,1.007-1.872,10.638,10.638,0,0,1,1.4-1.621,11.5,11.5,0,0,1,1.593-1.16c.249-.138.5-.269.752-.4-.026.2-.037.394-.052.591a9.784,9.784,0,0,0-1.46,1.953,9.535,9.535,0,0,0-1.608,7.147c1.19,7.892,5.462,14.968,9.106,21.93.622,1.19,2.517,3.942,2.522,5.4,0,.28-.9.485-1.059.719-1.256,1.9-4.838-4.394-5.257-5.271" fill="#f09f70"/>
        <path id="Trazado_25863" data-name="Trazado 25863" d="M380.918,259.211s0,.207-.006.6c0,.1,0,.2,0,.324a1.214,1.214,0,0,0,.014.318,4.349,4.349,0,0,1,.084.472c.052.234.108.494.17.776.105.29.152.588.3.928a15.274,15.274,0,0,0,1.114,2.333c.992,1.776,2.626,4.01,4.436,6.657a64.525,64.525,0,0,1,5.333,9.158,50.567,50.567,0,0,1,3.552,10.486c.386,1.729.675,3.415.882,5.013s.33,3.107.434,4.5c.051,1.383.13,2.668.115,3.785s.013,2.107-.034,2.9c-.068,1.6-.107,2.514-.107,2.514a8.03,8.03,0,0,1-16.046-.676,8.143,8.143,0,0,1,.133-1.158l.043-.215s.142-.727.391-2c.141-.64.229-1.4.379-2.292s.232-1.875.365-2.965c.08-1.079.178-2.255.2-3.484s.008-2.526-.08-3.853a39.514,39.514,0,0,0-.48-4.066,40.308,40.308,0,0,0-.96-4.144,52.936,52.936,0,0,0-3.26-8.2c-1.293-2.7-2.729-5.38-3.766-8.127a23.685,23.685,0,0,1-1.165-4.016c-.144-.624-.188-1.268-.266-1.829-.041-.582-.058-1.114-.071-1.6.015-.548.04-1.035.07-1.456a3.294,3.294,0,0,1,.054-.457c.019-.118.036-.225.052-.321.062-.382.1-.588.1-.588a4.041,4.041,0,0,1,8.03.687" fill="#feb782"/>
        <path id="Trazado_25864" data-name="Trazado 25864" d="M359.425,296.1c-.066-.062-.146-.138-.219-.2a5.416,5.416,0,0,1-.878.292c-9.488,2.266-13.854-8.623-12.644-16.338a11.079,11.079,0,0,1,4.194-7.091,12.669,12.669,0,0,0-1.886.674,12.158,12.158,0,0,0-3.416,2.242,12.663,12.663,0,0,0-2.822,3.859,13.586,13.586,0,0,0-.8,2.128,9.3,9.3,0,0,0-2.238,1.39,11.032,11.032,0,0,0-2.151,2.4,16.571,16.571,0,0,0-2.489,6.41,24.059,24.059,0,0,0-.168,7.178,28.333,28.333,0,0,0,1.3,5.678c-.092.338-.187.671-.273,1.015a15.561,15.561,0,0,0-.238,2.017,9.749,9.749,0,0,0,.064,2.1c.037.354.071.709.125,1.061l.278,1.041a9.456,9.456,0,0,0,.737,2.01,11.032,11.032,0,0,0,1.027,1.836,19.735,19.735,0,0,0,1.242,1.609c.458.462.923.909,1.388,1.334a15.1,15.1,0,0,0,1.444,1.062l.714.475c.238.141.479.25.714.371l1.37.651a21.291,21.291,0,0,0,3.359.987c1.168.2,1.848.29,1.848.29a6.658,6.658,0,0,0,.863.051,6.066,6.066,0,0,0,5.727-7.851,8.068,8.068,0,0,0,.895-3.939,8.05,8.05,0,0,0,3.852-13.9l-.922-.828" fill="#f09f70"/>
        <path id="Trazado_25865" data-name="Trazado 25865" d="M447.119,154.836l.245-.161c.08-.052.179-.116.295-.193a3.7,3.7,0,0,1,.481-.283,13.043,13.043,0,0,1,1.667-.75,10.892,10.892,0,0,1,2.32-.581,10.062,10.062,0,0,1,3.015.045A10.5,10.5,0,0,1,458.38,154a13.1,13.1,0,0,1,2.843,2.02,16.864,16.864,0,0,1,2.205,2.562,22.161,22.161,0,0,1,3.695,10.949,21.345,21.345,0,0,1,.05,2.191c-.01.658-.06,1.235-.1,1.713-.1.954-.2,1.505-.2,1.505l-.1.553a6.121,6.121,0,1,1-12.062-2.094,6.418,6.418,0,0,1,.448-1.462s.106-.236.276-.674c.08-.222.182-.493.27-.819a9.9,9.9,0,0,0,.265-1.122,11.236,11.236,0,0,0,.179-1.384,12.985,12.985,0,0,0,.022-1.574,11.462,11.462,0,0,0-.619-3.239,6.463,6.463,0,0,0-1.372-2.328,2.93,2.93,0,0,0-1.668-.91,3.807,3.807,0,0,0-.947-.029c-.332.027-.553.072-.745.1a1.486,1.486,0,0,0-.379.113l-.331.12-.276.1a3.065,3.065,0,0,1-2.726-5.445Z" fill="#feb782"/>
        <path id="Trazado_25866" data-name="Trazado 25866" d="M447.119,154.836l.245-.161c.08-.052.179-.116.295-.193a3.7,3.7,0,0,1,.481-.283,13.043,13.043,0,0,1,1.667-.75,10.892,10.892,0,0,1,2.32-.581,10.42,10.42,0,0,1,2.593-.01c2.831,1.524,9.485,11.672.594,22.492a6.244,6.244,0,0,0-.272.923,6.069,6.069,0,0,1,.12-4.34l.072-.174c.043-.116.129-.277.2-.5s.182-.493.27-.819a9.9,9.9,0,0,0,.265-1.122,11.236,11.236,0,0,0,.179-1.384,12.985,12.985,0,0,0,.022-1.574,11.462,11.462,0,0,0-.619-3.239,8.917,8.917,0,0,0-.628-1.352,5.522,5.522,0,0,0-.744-.976,2.916,2.916,0,0,0-.786-.6,2.688,2.688,0,0,0-.882-.305,3.807,3.807,0,0,0-.947-.029c-.332.027-.553.072-.745.1a1.486,1.486,0,0,0-.379.113l-.331.12-.276.1a3.064,3.064,0,0,1-2.723-5.445Z" fill="#f09f70"/>
        <path id="Trazado_25867" data-name="Trazado 25867" d="M429.777,156.265l.919-.907c.146-.144.309-.3.484-.478l.276-.271.4-.329c.568-.446,1.2-.985,1.946-1.5l1.2-.755.643-.392c.25-.117.505-.234.762-.353a17.823,17.823,0,0,1,1.647-.687c.63-.182,1.287-.353,1.964-.509a20.855,20.855,0,0,1,2.243-.193,15.336,15.336,0,0,1,2.379.224,15.009,15.009,0,0,1,2.314.653,15.668,15.668,0,0,1,2.084.976l.505.272.435.29.863.6a14.327,14.327,0,0,1,1.554,1.236,30.461,30.461,0,0,1,2.554,2.495c.7.805,1.388,1.6,1.968,2.345.555.735,1.122,1.451,1.57,2.092l1.231,1.76.89,1.347c.489.748.77,1.176.77,1.176a8.075,8.075,0,1,1-14.43,6.947l-.02-.069s-.132-.407-.362-1.119c-.116-.356-.258-.788-.419-1.284-.17-.476-.36-1.012-.568-1.6s-.454-1.152-.7-1.8c-.254-.622-.537-1.208-.821-1.841-.293-.535-.6-1.191-.894-1.629a5.4,5.4,0,0,0-.435-.679l-.206-.3-.1-.157-.088-.094c-.112-.107-.237-.34-.329-.409s-.182-.245-.276-.3-.172-.187-.3-.236c-.131-.031-.249-.123-.411-.178a3.773,3.773,0,0,1-.569-.07,6.768,6.768,0,0,0-.7.059l-.358.028c-.131.038-.26.075-.386.113l-.755.206c-.477.155-.9.353-1.3.494l-.292.112-.337.19-.592.334-1.125.633a4.065,4.065,0,0,1-4.854-6.431Z" fill="#feb782"/>
        <path id="Trazado_25868" data-name="Trazado 25868" d="M430.63,155.382c.363-.324.814-.763,1.329-1.183.509-.437,1.119-.917,1.84-1.421a7.863,7.863,0,0,1,3.8.126c2.233.967,4.392,1.94,5.946,3.892a41.228,41.228,0,0,1,6.157,11.477c.087.282.428,1.319.489,1.522.2.67.4,1.34.591,2.015.419,1.512.828,3.03,1.163,4.564q.12.555.237,1.111a8.061,8.061,0,0,1-5.252-5.253l-.36-1.132c-.232-.707-.563-1.729-.99-2.875s-.941-2.445-1.524-3.639c-.29-.594-.6-1.153-.9-1.659a13.749,13.749,0,0,0-.831-1.212,7.763,7.763,0,0,0-.6-.7,1.519,1.519,0,0,0-.709-.407,3.332,3.332,0,0,0-1.256-.032,7.759,7.759,0,0,0-1.506.365,13.842,13.842,0,0,0-1.41.566c-.443.19-.765.372-1.07.513l-1.1.643-.025.015a4.064,4.064,0,0,1-4.94-6.363l.916-.931" fill="#f09f70"/>
        <path id="Trazado_25869" data-name="Trazado 25869" d="M414.747,157.2l.2-.351c.067-.114.149-.255.245-.421.049-.083.1-.173.155-.268s.167-.245.257-.377c.2-.273.41-.576.644-.9l.814-.991c.321-.352.695-.727,1.106-1.114a11.918,11.918,0,0,1,1.555-1.168,9.944,9.944,0,0,1,4.834-1.555,12.107,12.107,0,0,1,5.261,1.006,21.285,21.285,0,0,1,3.9,2.186c1.13.784,2.173,1.6,3.138,2.4,1.936,1.613,3.658,3.207,5.248,4.67,1.551,1.428,3,2.761,4.24,3.9,1.224,1.114,2.24,2.01,2.952,2.631l1.119.966A8.051,8.051,0,1,1,439.9,180a8.476,8.476,0,0,1-1.206-1.3l-.97-1.307c-.61-.832-1.473-2.023-2.468-3.441l-3.316-4.778c-1.181-1.706-2.421-3.491-3.637-5.077-.609-.8-1.208-1.522-1.773-2.154a14.779,14.779,0,0,0-1.463-1.447c-.383-.321-.536-.44-.548-.547s-.075-.216-.359-.17a1.837,1.837,0,0,0-.47.143c-.178.1-.361.2-.541.313l-.52.383-.4.34a2.216,2.216,0,0,0-.188.159c-.074.081-.144.157-.21.227l-.331.358-.275.3a4.054,4.054,0,0,1-6.48-4.792Z" fill="#feb782"/>
        <path id="Trazado_25870" data-name="Trazado 25870" d="M414.747,157.2l.2-.351c.067-.114.149-.255.245-.421.049-.083.1-.173.155-.268s.167-.245.257-.377c.2-.273.41-.576.644-.9l.814-.991c.321-.352.695-.727,1.106-1.114a11.918,11.918,0,0,1,1.555-1.168,10.053,10.053,0,0,1,3.045-1.292c7.244,3.463,15.8,16.217,13.139,22.382-2.167,5.013,4.046,7.713,2.782,6.008,0,0-2.443-3.33-3.438-4.748l-3.316-4.778c-1.181-1.706-2.421-3.491-3.637-5.077-.609-.8-1.208-1.522-1.774-2.154a14.573,14.573,0,0,0-1.462-1.447c-.383-.322-.536-.44-.548-.547s-.075-.217-.359-.17a1.837,1.837,0,0,0-.47.143c-.178.1-.361.2-.541.313l-.52.382-.4.341a2.216,2.216,0,0,0-.188.159c-.074.081-.144.157-.21.227l-.331.358-.275.3a4.054,4.054,0,0,1-6.478-4.794Z" fill="#f09f70"/>
        <path id="Trazado_25871" data-name="Trazado 25871" d="M399.162,175.786s.078-.6.216-1.652c.113-.6.258-1.4.468-2.256l.363-1.362q.255-.737.535-1.548a16.012,16.012,0,0,1,1.966-3.618A11.637,11.637,0,0,1,407,161.708a12.168,12.168,0,0,1,6.22-1.117,18.214,18.214,0,0,1,5.245,1.242,36.858,36.858,0,0,1,7.611,4.222c2.137,1.49,3.939,2.962,5.449,4.243s2.7,2.378,3.532,3.146l1.292,1.216a8.045,8.045,0,1,1-12.081,10.5l-.028-.042-.892-1.276c-.574-.8-1.393-1.95-2.408-3.259s-2.221-2.8-3.548-4.21A26.574,26.574,0,0,0,413.3,172.7a10.4,10.4,0,0,0-1.584-.919,4.379,4.379,0,0,1-.614-.328c-.134-.076-.438-.012-.825.286a5.7,5.7,0,0,0-1.163,1.289c-.177.287-.346.563-.509.825-.15.3-.294.577-.427.84-.26.534-.443.972-.625,1.385L407,177.651a4.051,4.051,0,0,1-7.843-1.856Z" fill="#feb782"/>
        <path id="Trazado_25872" data-name="Trazado 25872" d="M407,161.708a10.04,10.04,0,0,1,1.013-.427c4.352-.082,13.523,5.082,19.875,14.954,3.375,5.247,1.5,7.643,4.883,12.086a8.04,8.04,0,0,1-8.528-3.193l0-.006-.892-1.276c-.574-.8-1.393-1.95-2.408-3.259-.507-.653-1.062-1.349-1.656-2.064s-1.229-1.44-1.892-2.146-1.353-1.391-2.05-2.039A22.6,22.6,0,0,0,413.3,172.7a10.4,10.4,0,0,0-1.584-.919,4.379,4.379,0,0,1-.614-.328c-.134-.076-.438-.012-.825.286a5.7,5.7,0,0,0-1.163,1.289q-.266.431-.509.826l-.427.839c-.26.534-.443.972-.625,1.386L407,177.651a4.051,4.051,0,0,1-7.842-1.858v-.007s.078-.6.216-1.652c.113-.6.258-1.4.468-2.256l.363-1.361q.255-.738.535-1.549a16.012,16.012,0,0,1,1.966-3.618A11.637,11.637,0,0,1,407,161.708" fill="#f09f70"/>
        <path id="Trazado_25873" data-name="Trazado 25873" d="M481.514,195.039c-14.092,1.754-20.26,5.151-19.056,19.285l-28.509-.317-13.668-34.416L465.242,166.2Z" fill="#feb782"/>
        <path id="Trazado_25874" data-name="Trazado 25874" d="M427.886,176.235a117.183,117.183,0,0,1,11.661,21.11l-.84,16.714-4.759-.053L420.281,179.59Z" fill="#f09f70"/>
        <path id="Trazado_25875" data-name="Trazado 25875" d="M402.9,185.8l.455-.054.248-.029.153-.016h.295c.4.006.9.026,1.4.077.4.057.851.123,1.329.211.437.108.941.218,1.427.365a25.406,25.406,0,0,1,3.008,1.129c4.1,1.81,8.471,4.7,12.721,7.077a52.451,52.451,0,0,0,6.024,2.967,21.552,21.552,0,0,0,2.551.837,12.408,12.408,0,0,0,2.023.362l.773.026c.223-.02.423-.041.612-.047a4.323,4.323,0,0,0,.808-.2,1.82,1.82,0,0,0,.422-.181l.14-.058a8.115,8.115,0,1,1,4.191,15.529l-.676.083-.759.094a16.089,16.089,0,0,1-2.128.149,20.9,20.9,0,0,1-3.188-.189c-.579-.1-1.2-.209-1.833-.342-.606-.161-1.258-.325-1.9-.528a27.952,27.952,0,0,1-3.8-1.568,36.334,36.334,0,0,1-3.641-2.091,65.844,65.844,0,0,1-6.552-5.006c-2.024-1.733-3.92-3.47-5.644-4.99a56.889,56.889,0,0,0-4.588-3.75,17.965,17.965,0,0,0-1.684-1.078l-.625-.324c-.17-.07-.32-.131-.461-.2-.051-.026-.043-.051-.069-.1l-.014-.033a1.112,1.112,0,0,0-.132-.013l-.249-.019-.457-.035h-.017a4.049,4.049,0,0,1-.166-8.057" fill="#feb782"/>
        <path id="Trazado_25876" data-name="Trazado 25876" d="M550,266.847c-.839-1.159-1.681-2.316-2.556-3.445q-3.049-3.96-6.093-7.909c-2.027-2.625-4.162-5.132-6.215-7.674l-3.09-3.775-3.143-3.653q-3.135-3.615-6.184-7.135l-6.134-6.735-2.979-3.252-2.97-3.108-5.691-5.947-5.426-5.433c-1.751-1.736-3.39-3.409-5.017-4.979s-3.191-3.053-4.651-4.448l-4.087-3.9-3.416-3.138c-4.119-3.764-6.471-5.915-6.471-5.915a15.463,15.463,0,0,0-21.813,21.881s2.16,2.345,5.937,6.451l3.107,3.393q1.6,1.821,3.454,3.931l3.924,4.463c1.378,1.581,2.8,3.313,4.3,5.08l4.656,5.544,4.842,6.029,2.525,3.141,2.51,3.271q2.529,3.311,5.16,6.754l5.145,7.1,2.608,3.619q1.262,1.85,2.536,3.715c1.678,2.5,3.445,4.965,5.082,7.521s3.278,5.115,4.921,7.677,3.137,5.194,4.708,7.771L521.8,297.6q1.089,1.959,2.174,3.906c1.425,2.6,2.9,5.154,4.244,7.718l3.881,7.624c1.323,2.48,2.391,5.008,3.543,7.435q.845,1.827,1.673,3.613l.823,1.771q.371.893.736,1.774c1.928,4.7,3.873,9.1,5.294,13.257q1.136,3.095,2.173,5.919c.642,1.889,1.175,3.7,1.719,5.385s1.034,3.266,1.5,4.726c.174.508.314,1,.446,1.485Z" fill="#feb782"/>
        <path id="Trazado_25877" data-name="Trazado 25877" d="M550,320.182c-31.327-57.021-72.26-102.512-83.667-113.052-3.434-1.13-8.1,1.433-6.332,7.6.383,1.335,1.977,2.158,3.107,3.393q1.6,1.821,3.454,3.931l3.924,4.463c1.378,1.581,2.8,3.313,4.3,5.08l4.656,5.544,4.842,6.029,2.525,3.141,2.51,3.271q2.529,3.311,5.16,6.754l5.145,7.1,2.608,3.619q1.262,1.85,2.536,3.715c1.678,2.5,3.445,4.965,5.082,7.521s3.278,5.115,4.921,7.677,3.137,5.194,4.708,7.771L521.8,297.6q1.089,1.961,2.174,3.906c1.425,2.6,2.9,5.154,4.244,7.718l3.881,7.624c1.323,2.48,2.391,5.008,3.543,7.435q.845,1.827,1.673,3.613l.823,1.771q.371.893.736,1.774c1.928,4.7,3.873,9.1,5.294,13.258q1.136,3.093,2.173,5.918c.642,1.889,1.175,3.7,1.719,5.385s1.034,3.266,1.5,4.726c.174.508.314,1,.446,1.485Z" fill="#f09f70"/>
      </g>
    </g>
  </g>
</svg>
