<svg id="Grupo_30302" data-name="Grupo 30302" xmlns="http://www.w3.org/2000/svg" xmlns:xlink="http://www.w3.org/1999/xlink" width="659.53" height="459.061" viewBox="0 0 659.53 459.061">
  <defs>
    <clipPath id="clip-path">
      <rect id="Rectángulo_3765" data-name="Rectángulo 3765" width="659.53" height="459.061" fill="none"/>
    </clipPath>
    <clipPath id="clip-path-2">
      <path id="Trazado_25638" data-name="Trazado 25638" d="M735.922,1030.488l-31.375,2.012c.825,5.151,11.016,35,13.816,87.967,3.726,69.636-4.539,72.006-4.817,74.247-.1.82.937,2.2.829,3-.286,2.071-1.2,1.322-.962,6.672a2.036,2.036,0,0,0,2.032,1.96h10.89a1.85,1.85,0,0,0,1.808-1.884c2.7-25.009,11.567-52.618,12.613-77.039q.163-3.859.3-7.659c1.206-32.834,1.1-64.694-.277-87.412-.015-.248-.047-.484-.079-.717l-.179-1.444Z" transform="translate(-704.548 -1030.192)" fill="none"/>
    </clipPath>
    <linearGradient id="linear-gradient" x1="-4.851" y1="1.087" x2="-4.844" y2="1.087" gradientUnits="objectBoundingBox">
      <stop offset="0" stop-color="#1f54ff"/>
      <stop offset="0.035" stop-color="#1d4ff9"/>
      <stop offset="0.318" stop-color="#162cd5"/>
      <stop offset="0.582" stop-color="#1114ba"/>
      <stop offset="0.818" stop-color="#0e05aa"/>
      <stop offset="1" stop-color="#0d00a5"/>
    </linearGradient>
    <clipPath id="clip-path-3">
      <path id="Trazado_25639" data-name="Trazado 25639" d="M860.647,1045.054l.034.1-17.509,1.6-5.739.524c4.877,17.862,29.974,54.47,30.119,83.713.059,11.572-1.412,4.633-15.982,80.386-.717.449-2.222,1.18-2.208,1.975.007.375.553,1.073.487,1.352-.034.148-.451.568-.549.771-.746,1.537.269,1.017,7.792,1.017,0,.01,1.274.082,2.558.087,5.108,0,4.291.528,4.921-1.884,11.674-44.65,21.335-66.4,24.109-84.682,3.614-23.808-4.679-55.63-15.29-77.255-.316.188-.569-3.552-.808-8.788Z" transform="translate(-837.433 -1043.964)" fill="none"/>
    </clipPath>
    <linearGradient id="linear-gradient-2" x1="-3.964" y1="1.086" x2="-3.96" y2="1.086" xlink:href="#linear-gradient"/>
    <clipPath id="clip-path-5">
      <path id="Trazado_25647" data-name="Trazado 25647" d="M818.539,395.86c-.059-.007-.123-.026-.18-.029a6.93,6.93,0,0,0-2.4.353c.236,1.753,1.405,3.5,2.03,5.25,1.086,3.043.2,6.913-2.581,8.562a16.132,16.132,0,0,1-2.851,1.151c.813,2.249.647,4.744.959,7.13.336,2.573,1.688,5.409,4.3,5.989a2.064,2.064,0,0,0,.959.022,2.383,2.383,0,0,0,1.117-.805,10.979,10.979,0,0,0,2.7-8.559c-.267-2.137-1.117-4.317-.619-6.379.007.046,0,.092.009.137a9.954,9.954,0,0,0,2.7,5.129,7.173,7.173,0,0,0,2.845,1.865,4.6,4.6,0,0,0,3.444-.165,8.437,8.437,0,0,0,2.639-2.772,1.418,1.418,0,0,1,.907-.656c.7-.074,1.074.7,1.508,1.2a3.168,3.168,0,0,0,2.037.971c2.2.26,2.851.058,3.882-1.738a15.63,15.63,0,0,0,1.826-6.829,9.845,9.845,0,0,1,.27-2.135,20.784,20.784,0,0,1-3.213.446,37.193,37.193,0,0,1-11.408-.644,16.57,16.57,0,0,1-9.521-5.97c-.4-.549-.759-1.133-1.144-1.693-.063.053-.143.112-.2.164" transform="translate(-812.552 -395.696)" fill="none"/>
    </clipPath>
    <linearGradient id="linear-gradient-3" x1="-6.438" y1="11.897" x2="-6.43" y2="11.897" gradientUnits="objectBoundingBox">
      <stop offset="0" stop-color="#14124f"/>
      <stop offset="0.568" stop-color="#14124f"/>
      <stop offset="1" stop-color="#152682"/>
    </linearGradient>
    <clipPath id="clip-path-7">
      <path id="Trazado_25651" data-name="Trazado 25651" d="M833.346,408.505a16.247,16.247,0,0,1-2.378,2.188c-1.3.744-2.963.617-4.455.949a5.892,5.892,0,0,0-3.4,2.058,3.9,3.9,0,0,0-.667,3.608,25.8,25.8,0,0,0,1.658,2.817,11.579,11.579,0,0,1,.8,4.406,1.162,1.162,0,0,0,.208.687.986.986,0,0,0,1.122.156,1.981,1.981,0,0,0,.819-.82c1.439-2.377.7-5.357,1.638-7.931a9.606,9.606,0,0,1,3.924-4.517,31.908,31.908,0,0,1,5.683-2.715L836.4,407.9a1.75,1.75,0,0,0-.951-.261,3.412,3.412,0,0,0-2.1.867" transform="translate(-822.256 -407.638)" fill="none"/>
    </clipPath>
    <linearGradient id="linear-gradient-4" x1="-12.502" y1="19.016" x2="-12.487" y2="19.016" xlink:href="#linear-gradient-3"/>
    <clipPath id="clip-path-8">
      <path id="Trazado_25652" data-name="Trazado 25652" d="M838.088,395.542c-.968.6-1.813,1.546-2.98,1.594a4.131,4.131,0,0,1-2.069-.668l-2.04-.4a22.056,22.056,0,0,0,4.871,4.841c3.331,2.232,7.582,2.931,11.67,3.569l5.58.871c1.148.179,2.473.316,3.352-.389a2.262,2.262,0,0,0,.689-2.271,6.158,6.158,0,0,0-1.163-2.2,14.866,14.866,0,0,0-2.606-2.9c-2.447-1.973-5.842-2.641-9.107-2.936-.645-.058-1.308-.1-1.968-.1a7.928,7.928,0,0,0-4.228.987" transform="translate(-830.998 -394.555)" fill="none"/>
    </clipPath>
    <linearGradient id="linear-gradient-5" x1="-8.046" y1="29.189" x2="-8.036" y2="29.189" gradientUnits="objectBoundingBox">
      <stop offset="0" stop-color="#150066"/>
      <stop offset="0.387" stop-color="#150066"/>
      <stop offset="1" stop-color="#0d00a5"/>
    </linearGradient>
    <clipPath id="clip-path-10">
      <path id="Trazado_25656" data-name="Trazado 25656" d="M842.666,374.483a41.878,41.878,0,0,0-6.273,4.174c.385.56.745,1.144,1.144,1.693a16.57,16.57,0,0,0,9.521,5.97,37.193,37.193,0,0,0,11.408.644,20.784,20.784,0,0,0,3.213-.446,28.952,28.952,0,0,0,.819-4.194c.125-2.4-.927-5.2-1.946-6.171a14.136,14.136,0,0,0-9.861-3.473,17.389,17.389,0,0,0-8.024,1.8" transform="translate(-836.393 -372.679)" fill="none"/>
    </clipPath>
    <linearGradient id="linear-gradient-6" x1="-8.281" y1="24.876" x2="-8.271" y2="24.876" xlink:href="#linear-gradient-5"/>
    <clipPath id="clip-path-12">
      <path id="Trazado_25667" data-name="Trazado 25667" d="M2128.165,464.7a6.072,6.072,0,0,1-1.792,1.7,8.633,8.633,0,0,0,1.792-1.7m-13.77-28.542c-1.823,1.542-.512,1.345-3.985,2.419-2.216.685-5.135.748-6.215,2.934a12.38,12.38,0,0,0-.55,7.9c.485,1.666,2.3,3.973,2.448,5.734.054.666-.062,3.269.566,3.361.168.025.271-.141.35-.349a28.8,28.8,0,0,0,3.771,5.595,12.585,12.585,0,0,0,10.648,8.822,2.243,2.243,0,0,0,1.267-.247c1.587-.855.547-1.44,4.753-2.2,5.2-.937,2.735-4.773,3.223-7.575a7.679,7.679,0,0,1,.629-1.863c-1.041-3.541-1.813-7.175-2.878-10.582a1.731,1.731,0,0,1-1.132-.328,2.053,2.053,0,0,1-.562-2.347,4.218,4.218,0,0,1,.446-.778,18.357,18.357,0,0,0-7.652-9.252c-.714-.42.007-.721-.426-1.275-.2-.253.981-.926.837-1.2-1.035.03-4.709.533-5.538,1.234" transform="translate(-2103.245 -434.921)" fill="none"/>
    </clipPath>
    <linearGradient id="linear-gradient-7" x1="-15.451" y1="9.186" x2="-15.444" y2="9.186" xlink:href="#linear-gradient-3"/>
    <clipPath id="clip-path-14">
      <path id="Trazado_25672" data-name="Trazado 25672" d="M2220.958,1725.891l-17.394,5.469c-4.329,1.361-3.075,5.278,1.663,5.295h.061l18.22-.065c.874,0,1.569-.492,1.452-1.02l-2.02-9.073c-.1-.427-.677-.7-1.323-.7a2.207,2.207,0,0,0-.658.1" transform="translate(-2200.909 -1725.792)" fill="none"/>
    </clipPath>
    <linearGradient id="linear-gradient-8" x1="-22.054" y1="1" x2="-22.044" y2="1" gradientUnits="objectBoundingBox">
      <stop offset="0" stop-color="#200b71"/>
      <stop offset="0.387" stop-color="#200b71"/>
      <stop offset="1" stop-color="#180bb0"/>
    </linearGradient>
    <clipPath id="clip-path-15">
      <path id="Trazado_25673" data-name="Trazado 25673" d="M2076.188,1725.412l-17.394,5.469c-4.347,1.367-3.063,5.312,1.723,5.294l18.22-.065c.874,0,1.569-.492,1.451-1.02l-2.02-9.073c-.095-.427-.677-.7-1.323-.7a2.212,2.212,0,0,0-.659.1" transform="translate(-2056.14 -1725.313)" fill="none"/>
    </clipPath>
    <linearGradient id="linear-gradient-9" x1="-20.584" y1="1.01" x2="-20.574" y2="1.01" xlink:href="#linear-gradient-8"/>
    <clipPath id="clip-path-17">
      <path id="Trazado_25678" data-name="Trazado 25678" d="M2172.957,462.547c13.569-27.349-11.9-27.626-11.9-27.626-17.7,5.974,11.9,27.626,11.9,27.626" transform="translate(-2155.413 -434.921)" fill="none"/>
    </clipPath>
    <linearGradient id="linear-gradient-10" x1="-11.561" y1="12.529" x2="-11.555" y2="12.529" xlink:href="#linear-gradient-3"/>
    <clipPath id="clip-path-19">
      <path id="Trazado_25684" data-name="Trazado 25684" d="M2096.189,440.373c-2.844,8.894,7.278,14.211,9.268,21.553,1.017,3.751-.269,7.844-2.453,11.061s-5.192,5.742-8.073,8.328c-7.128,6.4-14.027,14.012-15.78,23.5-1.422,7.7.752,15.55,3,23.018,2.088,6.944,4.659,12.093,10.218,16.617,4.216,3.431,9.571,6.961,14.936,7.669,11.393,1.5,23.479.412,33.528-5.365s17.624-16.83,17.308-28.545a27.121,27.121,0,0,0-7-17.417c-3.626-3.958-8.712-7.266-9.572-12.625-.613-3.818,1.167-7.59,1.685-11.432a21.077,21.077,0,0,0-4.413-15.281,32.864,32.864,0,0,0-12.721-9.657,15.936,15.936,0,0,1-9.9-8.594c-2.449-3.786-8.446-8.393-13.4-8.394-2.84,0-5.337,1.512-6.631,5.559" transform="translate(-2078.697 -434.814)" fill="none"/>
    </clipPath>
    <linearGradient id="linear-gradient-11" x1="-4.575" y1="2.511" x2="-4.573" y2="2.511" xlink:href="#linear-gradient-5"/>
    <clipPath id="clip-path-20">
      <path id="Trazado_25685" data-name="Trazado 25685" d="M1162.938,935.179c-2.949,0-4.152,2.4-2.686,5.35l21.623,43.573c1.466,2.955,5.046,5.35,8,5.35h61.57c2.95,0,4.152-2.4,2.686-5.35L1232.5,940.529c-1.466-2.955-5.046-5.35-8-5.35Z" transform="translate(-1159.628 -935.179)" fill="none"/>
    </clipPath>
    <linearGradient id="linear-gradient-12" x1="-3.102" y1="3.983" x2="-3.1" y2="3.983" xlink:href="#linear-gradient-5"/>
    <clipPath id="clip-path-21">
      <path id="Trazado_25686" data-name="Trazado 25686" d="M1265.52,1120.832a2.585,2.585,0,0,0-2.792,2.286v1.486a2.585,2.585,0,0,0,2.792,2.286h75.78a2.585,2.585,0,0,0,2.792-2.286v-1.486a2.585,2.585,0,0,0-2.792-2.286Z" transform="translate(-1262.728 -1120.832)" fill="none"/>
    </clipPath>
    <linearGradient id="linear-gradient-13" x1="-4.031" y1="27.727" x2="-4.027" y2="27.727" xlink:href="#linear-gradient-5"/>
    <clipPath id="clip-path-22">
      <path id="Trazado_25687" data-name="Trazado 25687" d="M1400.758,1718.546c-2.71.585-5.653,2.064-8.22,2.964-1.045.366-2.159.335-3.21.674a2.872,2.872,0,0,0-2.136,2.432,2.645,2.645,0,0,0,1.057,1.966c1.865,1.588,4.482,1.677,6.919,1.7l10.323.1c2.212.022,4.856-.2,6.086-2.279,2.627-4.436-2.847-7.83-5.973-8.454a4.107,4.107,0,0,0-.811-.08c-1.367,0-2.559.658-4.034.976" transform="translate(-1387.192 -1717.57)" fill="none"/>
    </clipPath>
    <linearGradient id="linear-gradient-14" x1="-13.333" y1="1.2" x2="-13.323" y2="1.2" xlink:href="#linear-gradient-5"/>
    <clipPath id="clip-path-23">
      <path id="Trazado_25688" data-name="Trazado 25688" d="M1623.55,1719.391c-2.711.585-5.653,2.064-8.22,2.964-1.046.366-2.159.335-3.211.674a2.872,2.872,0,0,0-2.136,2.432,2.646,2.646,0,0,0,1.056,1.966c1.865,1.589,4.482,1.677,6.919,1.7l10.323.1c2.212.022,4.856-.2,6.086-2.278,2.627-4.436-2.847-7.83-5.973-8.454a4.124,4.124,0,0,0-.811-.08c-1.367,0-2.559.658-4.034.976" transform="translate(-1609.984 -1718.415)" fill="none"/>
    </clipPath>
    <linearGradient id="linear-gradient-15" x1="-15.475" y1="1.179" x2="-15.465" y2="1.179" xlink:href="#linear-gradient-5"/>
    <clipPath id="clip-path-25">
      <path id="Trazado_25694" data-name="Trazado 25694" d="M1603.745,742.811a13.811,13.811,0,0,0,.695,8.441c.759,1.734,2.979,4.043,3.4,5.9.161.7.206,1.432.387,2.13.074.287.393,1.376.725,1.4.175.013.254-.172.3-.4a34.212,34.212,0,0,0,4.732,5.652c1.225,2.516,4.694,7.965,11.8,8.494a2.642,2.642,0,0,0,.406.042,2.122,2.122,0,0,0,1.3-.359,15.98,15.98,0,0,0,1.386-1.436,7.116,7.116,0,0,1,3.107-1.277,3.893,3.893,0,0,0,2.731-1.916c.788-1.762-.491-3.814-.672-5.794a5.5,5.5,0,0,1,.021-.6c-1.666.767-2.32,3.379-3.9,4.559-1.311.977-3.052.808-4.641.6a7.137,7.137,0,0,1-2.482-.634,2.921,2.921,0,0,1-1.574-2.111,10.334,10.334,0,0,1,.353-2.543,5.3,5.3,0,0,0-2.849-5.034c-1.464-.775-3.128-.894-4.654-1.493a11.574,11.574,0,0,1-3.915-2.742c-1.361-1.382-2.6-3.3-2.277-5.282.363-2.245,2.491-3.466,4.411-4.255a5.187,5.187,0,0,0,.858-.426c-.761.046-1.521.1-2.28.183a6.155,6.155,0,0,1-5.91-2.947,3.393,3.393,0,0,0-1.453,1.84" transform="translate(-1603.363 -740.971)" fill="none"/>
    </clipPath>
    <linearGradient id="linear-gradient-16" x1="-12.797" y1="7.956" x2="-12.789" y2="7.956" xlink:href="#linear-gradient-5"/>
    <clipPath id="clip-path-27">
      <path id="Trazado_25701" data-name="Trazado 25701" d="M1637.388,751.616c-.442,4.337-3.786,8.379-7.7,8.006a10.877,10.877,0,0,1-4.4-1.764,62.062,62.062,0,0,1-8.473-6.117,33.847,33.847,0,0,0-4.865-3.81,8.918,8.918,0,0,0-3.476-1.2,18.724,18.724,0,0,0,4.153,6.676,21.374,21.374,0,0,0,4.523,5.514l.126.694a2.613,2.613,0,0,1,1.469-.7c1.791-.2,3.46,1.593,3.727,4a5.031,5.031,0,0,1-.825,3.486c3.676,3.188,8.5,5.4,11.626,5.071,3.513-.37,5.025-2.021,5.61-5.945.539-1.205.992-2.521,1.439-3.728a24.39,24.39,0,0,0,1.806-10.35,7.107,7.107,0,0,0-1.338-4.005,2.609,2.609,0,0,0-3.5-.7,6.354,6.354,0,0,0-1.51-3.43,16.176,16.176,0,0,1,1.6,8.308" transform="translate(-1608.478 -743.308)" fill="none"/>
    </clipPath>
    <linearGradient id="linear-gradient-17" x1="-12.309" y1="9.338" x2="-12.301" y2="9.338" xlink:href="#linear-gradient-5"/>
    <clipPath id="clip-path-28">
      <path id="Trazado_25702" data-name="Trazado 25702" d="M1611.335,723.278a4.265,4.265,0,0,0-1.755,1.12,2.5,2.5,0,0,0-.6,2.09,8.079,8.079,0,0,0-2.261-1.055,2.535,2.535,0,0,0-2.305.493c-1.139,1.049-1.832,5.07-1.308,6.65.049.147.338-.208.627-.563s.58-.708.636-.565a8.918,8.918,0,0,1,3.476,1.2,33.825,33.825,0,0,1,4.865,3.81,62.064,62.064,0,0,0,8.474,6.117,10.877,10.877,0,0,0,4.4,1.764c3.912.372,7.257-3.669,7.7-8.006a16.174,16.174,0,0,0-1.6-8.308,7.427,7.427,0,0,0-2.143-1.765,12.5,12.5,0,0,0-6-1.206h-.166a7.28,7.28,0,0,1-1.591-.116,12.745,12.745,0,0,1-2.743-1.255,9.812,9.812,0,0,0-4.344-1.019,9.4,9.4,0,0,0-3.359.614" transform="translate(-1602.929 -722.663)" fill="none"/>
    </clipPath>
    <linearGradient id="linear-gradient-18" x1="-13.423" y1="12.309" x2="-13.414" y2="12.309" xlink:href="#linear-gradient-5"/>
    <clipPath id="clip-path-29">
      <path id="Trazado_25703" data-name="Trazado 25703" d="M1368.118,899.158a16.515,16.515,0,0,0-9.691,9.593c-4.935,8.04-11.082,19.179-15.561,26.053-3.091,4.744-5.785,3.141-8.872,7.826-11.619,1.552-26.97,5.982-38.2,7.243-10.826,1.216-9.855,8.468,1.069,8.727,6.917.164,14.314.084,21.711,0,6.754-.073,13.509-.146,19.9-.034a7.91,7.91,0,0,0,2.287.006,9.215,9.215,0,0,0,3.385-.863,7.779,7.779,0,0,0,3.168-1.967c4.669-5.9,8.766-10.922,12.767-15.888.781,10.2,1.517,20.63,1.742,26.375.239,6.071-2.109,18.364-3.685,25.812a19.659,19.659,0,0,0,3.175,16.077,17.219,17.219,0,0,0,13.084,6.773q.65.036,1.315.036h25.756c9.036,0,13.493.246,14.336-8.167l10.615-90.7a17.337,17.337,0,0,0-8.76-18.1c-7.548-2.088-15.04-3.916-23.7-3.917-7.482,0-15.831,1.365-25.843,5.107" transform="translate(-1288.154 -894.051)" fill="none"/>
    </clipPath>
    <linearGradient id="linear-gradient-19" x1="-2.315" y1="1.873" x2="-2.313" y2="1.873" gradientUnits="objectBoundingBox">
      <stop offset="0" stop-color="#295dff"/>
      <stop offset="0.282" stop-color="#213add"/>
      <stop offset="0.561" stop-color="#1b1fc3"/>
      <stop offset="0.809" stop-color="#180fb3"/>
      <stop offset="1" stop-color="#170aae"/>
    </linearGradient>
    <clipPath id="clip-path-31">
      <path id="Trazado_25711" data-name="Trazado 25711" d="M1648.457,937.81c-5.417,0-11.231,8.422-12.92,18.715l-16.78,102.268c-1.294,7.884,1.552,14.807,6.087,14.807h55.133c5.408,0,10.648-7.089,12.191-16.49l16.5-100.585c1.689-10.293-1.362-18.715-6.779-18.715Z" transform="translate(-1618.444 -937.81)" fill="none"/>
    </clipPath>
    <linearGradient id="linear-gradient-20" x1="-4.514" y1="1.587" x2="-4.511" y2="1.587" gradientUnits="objectBoundingBox">
      <stop offset="0" stop-color="#1f0a6f"/>
      <stop offset="0.387" stop-color="#1f0a6f"/>
      <stop offset="1" stop-color="#170aae"/>
    </linearGradient>
    <clipPath id="clip-path-33">
      <path id="Trazado_25715" data-name="Trazado 25715" d="M318.268,1334.325c-1.072,14.131-13.99,53.2-19.432,88.828-.447,2.921-3.311,5.793-2.619,8.078a11.739,11.739,0,0,0,8.1,5.171c4.327.828,6.793-1.958,8.173-6.127,1.227-3.705,2.728-7.836,3.55-10.462,13.769-44.01,25.784-64.718,29.353-79.32l-27.244-6.472c.037.1.082.2.118.3" transform="translate(-296.11 -1334.021)" fill="none"/>
    </clipPath>
    <linearGradient id="linear-gradient-21" x1="-1.53" y1="1.091" x2="-1.525" y2="1.091" gradientUnits="objectBoundingBox">
      <stop offset="0" stop-color="#1e1c58"/>
      <stop offset="0.568" stop-color="#1e1c58"/>
      <stop offset="1" stop-color="#1f308b"/>
    </linearGradient>
    <clipPath id="clip-path-35">
      <path id="Trazado_25718" data-name="Trazado 25718" d="M224.656,1301.042c.081.373-16.5,2.591-21.989,1.1l1.218,13.636a20.887,20.887,0,0,0,23.294,18.841c19.028-2.253,46.806-7.316,67.16-4.52-2.057,11.884-3.758,31.88-5.916,47.741-1.127,8.286-3.873,17.677-4.338,25.835-.493,8.645,9.015,14.715,14.848,3.412,1.923-3.726,2.2-6.666,3.547-13.6,5.608-28.777,11.778-53.972,15.225-67.417,2.046-7.982-2.893-14.681-10.745-17.979-.048-.02.827-1.709.779-1.728l-.976,1.531c-14.573-6.289-34.5-8.625-53.442-8.625a231.055,231.055,0,0,0-28.664,1.769" transform="translate(-202.667 -1299.273)" fill="none"/>
    </clipPath>
    <linearGradient id="linear-gradient-22" x1="-0.166" y1="0.872" x2="-0.164" y2="0.872" xlink:href="#linear-gradient-21"/>
    <clipPath id="clip-path-37">
      <path id="Trazado_25726" data-name="Trazado 25726" d="M334.368,712.9a34,34,0,0,0-4.319,4.393,63.2,63.2,0,0,1-7.623,7.175A11.949,11.949,0,0,1,318.2,726.9c-3.983,1.059-8.213-2.041-9.49-5.946a13.551,13.551,0,0,1,.09-7.928,5.494,5.494,0,0,0-.916,3.429,2.93,2.93,0,0,0-3.492,1.286,6.043,6.043,0,0,0-.629,3.925,21.025,21.025,0,0,0,3.828,9.18c.692,1.027,1.41,2.153,2.2,3.162,1.347,3.5,3.226,4.738,6.936,4.434,3.3-.27,7.881-3.188,11.086-6.791A4.421,4.421,0,0,1,326.3,728.6c-.178-2.261,1.211-4.212,3.105-4.359a2.986,2.986,0,0,1,1.655.378v-.661a22.39,22.39,0,0,0,3.491-5.974,16.72,16.72,0,0,0,3.192-6.82,9.932,9.932,0,0,0-3.375,1.74" transform="translate(-303.698 -711.164)" fill="none"/>
    </clipPath>
    <linearGradient id="linear-gradient-23" x1="-1.801" y1="6.472" x2="-1.794" y2="6.472" xlink:href="#linear-gradient-5"/>
    <clipPath id="clip-path-38">
      <path id="Trazado_25727" data-name="Trazado 25727" d="M333.8,688.608a13.863,13.863,0,0,1-2.6,1.657,9.537,9.537,0,0,1-1.8.428,14.339,14.339,0,0,0-5.985,2.209,7.391,7.391,0,0,0-1.887,2.015,13.552,13.552,0,0,0-.09,7.928c1.277,3.9,5.507,7.005,9.49,5.946a11.949,11.949,0,0,0,4.221-2.428,63.2,63.2,0,0,0,7.623-7.175,34,34,0,0,1,4.319-4.393,9.932,9.932,0,0,1,3.375-1.74c.061-.285.148-.565.194-.853.245-1.548.094-3.457-1.284-4.213a2.962,2.962,0,0,0-2.481-.031,8.751,8.751,0,0,0-2.144,1.384,2.222,2.222,0,0,0-1.015-1.811,4.745,4.745,0,0,0-2.03-.708,10.89,10.89,0,0,0-1.631-.122,11.268,11.268,0,0,0-6.272,1.906" transform="translate(-320.886 -686.702)" fill="none"/>
    </clipPath>
    <linearGradient id="linear-gradient-24" x1="-2.238" y1="7.58" x2="-2.231" y2="7.58" xlink:href="#linear-gradient-5"/>
    <clipPath id="clip-path-40">
      <path id="Trazado_25734" data-name="Trazado 25734" d="M67.706,945.215c-5.417,0-8.468,8.422-6.779,18.715l16.5,100.584c1.543,9.4,6.783,16.491,12.19,16.491h55.133c4.534,0,7.38-6.923,6.087-14.807L134.061,963.93c-1.689-10.293-7.5-18.715-12.92-18.715Z" transform="translate(-60.462 -945.215)" fill="none"/>
    </clipPath>
    <linearGradient id="linear-gradient-25" x1="-0.156" y1="1.573" x2="-0.153" y2="1.573" xlink:href="#linear-gradient-20"/>
  </defs>
  <g id="Grupo_30221" data-name="Grupo 30221">
    <g id="Grupo_30220" data-name="Grupo 30220" clip-path="url(#clip-path)">
      <path id="Trazado_25614" data-name="Trazado 25614" d="M3.547,413.525a124.636,124.636,0,0,1,4.49-12.246c6.731-16.805,16.46-31.9,22.719-49,.021-.056.043-.11.064-.166,7.256-19.923,8.475-42.364,4.385-63.379-.74-3.8-1.651-7.555-2.734-11.239-.907-3.085-1.968-6.106-3.126-9.086q-.379-.976-.662-1.982c-3.153-11.187-7.932-21.843-11.748-32.5-7.243-19.665-9.658-41.437-4.225-61.8,12.073-46.353,45.273-81.47,87.528-91.3,32.6-7.726,63.986.7,94.168-12.642,21.731-9.833,39.237-25.284,59.76-39.33C283.743,9.884,316.34,5.67,348.333,2.158c66.4-7.023,132.8,2.809,193.165,33.712,31.993,16.153,74.852,44.246,66.4,92-1.207,8.428-4.829,15.451-7.847,23.879-7.244,21.772-26.561,31.6-38.634,51.27a37.99,37.99,0,0,0-6.286,20.837v10.025a19.877,19.877,0,0,0,.939,6.032c.335,1.052.7,2.1,1.121,3.138,5.138,12.416,13.124,21.52,22.431,29.283a186.349,186.349,0,0,0,15.6,11.451c8.573,6.28,17.645,11.784,25.9,18.451,8.628,6.534,16.565,14.039,22.415,24.56,16.4,31.6,18.831,65.316,13.364,100.432a98.294,98.294,0,0,1-3.274,13.957c-3.238,10.326-13.584,17.325-25.164,17.325H26.3c-15.261,0-27.246-12.02-26.24-26.163a85.572,85.572,0,0,1,3.488-18.827" transform="translate(0 0)" fill="#0098ff"/>
      <path id="Trazado_25615" data-name="Trazado 25615" d="M534,445a1.192,1.192,0,1,0,1.191,1.2A1.194,1.194,0,0,0,534,445" transform="translate(-394.427 -329.429)" fill="#fff"/>
      <path id="Trazado_25616" data-name="Trazado 25616" d="M533.888,468.823a1.192,1.192,0,1,0,1.191,1.2,1.195,1.195,0,0,0-1.191-1.2" transform="translate(-394.344 -347.067)" fill="#fff"/>
      <path id="Trazado_25617" data-name="Trazado 25617" d="M533.776,492.652a1.192,1.192,0,1,0,1.191,1.2,1.195,1.195,0,0,0-1.191-1.2" transform="translate(-394.262 -364.708)" fill="#fff"/>
      <path id="Trazado_25618" data-name="Trazado 25618" d="M533.664,516.479a1.192,1.192,0,1,0,1.191,1.2,1.194,1.194,0,0,0-1.191-1.2" transform="translate(-394.179 -382.347)" fill="#fff"/>
      <path id="Trazado_25619" data-name="Trazado 25619" d="M533.552,540.309a1.192,1.192,0,1,0,1.191,1.2,1.195,1.195,0,0,0-1.191-1.2" transform="translate(-394.096 -399.988)" fill="#fff"/>
      <path id="Trazado_25620" data-name="Trazado 25620" d="M533.44,564.136a1.192,1.192,0,1,0,1.191,1.2,1.194,1.194,0,0,0-1.191-1.2" transform="translate(-394.013 -417.627)" fill="#fff"/>
      <rect id="Rectángulo_3750" data-name="Rectángulo 3750" width="2.984" height="19.04" transform="translate(110.462 119.04) rotate(-89.733)" fill="#fff"/>
      <rect id="Rectángulo_3751" data-name="Rectángulo 3751" width="2.984" height="19.04" transform="matrix(0.005, -1, 1, 0.005, 110.434, 124.872)" fill="#fff"/>
      <rect id="Rectángulo_3752" data-name="Rectángulo 3752" width="2.984" height="28.81" transform="matrix(0.005, -1, 1, 0.005, 100.61, 136.491)" fill="#fff"/>
      <rect id="Rectángulo_3753" data-name="Rectángulo 3753" width="2.984" height="22.534" transform="translate(100.56 147.225) rotate(-89.733)" fill="#fff"/>
      <rect id="Rectángulo_3754" data-name="Rectángulo 3754" width="2.984" height="6.775" transform="translate(100.692 118.995) rotate(-89.732)" fill="#fff"/>
      <rect id="Rectángulo_3755" data-name="Rectángulo 3755" width="2.984" height="6.775" transform="translate(100.665 124.827) rotate(-89.732)" fill="#fff"/>
      <path id="Trazado_25621" data-name="Trazado 25621" d="M612.4,493.505c.033.362.057.725.08,1.089-.023-.364-.047-.728-.08-1.089" transform="translate(-453.357 -365.339)" fill="#fff"/>
      <path id="Trazado_25622" data-name="Trazado 25622" d="M598.76,484.937c.13.812.238,1.631.316,2.459-.077-.828-.185-1.648-.316-2.459" transform="translate(-443.259 -358.996)" fill="#fff"/>
      <path id="Trazado_25623" data-name="Trazado 25623" d="M611.2,483.644h-.018c.03.192.058.385.085.579-.027-.192-.038-.388-.067-.579" transform="translate(-452.456 -358.039)" fill="#fff"/>
      <path id="Trazado_25624" data-name="Trazado 25624" d="M612.755,498.337c-.01-.214-.033-.424-.047-.637.015.248.018.5.029.748,0-.038.019-.072.017-.11" transform="translate(-453.585 -368.445)" fill="#fff"/>
      <path id="Trazado_25625" data-name="Trazado 25625" d="M611.512,485.871c.092.656.171,1.316.231,1.983q-.091-1-.231-1.983" transform="translate(-452.699 -359.688)" fill="#fff"/>
      <path id="Trazado_25626" data-name="Trazado 25626" d="M600.027,495.117c-.017-.237-.03-.476-.052-.712.022.236.034.474.052.712" transform="translate(-444.158 -366.005)" fill="#fff"/>
      <path id="Trazado_25627" data-name="Trazado 25627" d="M340.906,430.142a36.768,36.768,0,1,1,39.628-42.478c-.018-.111-.024-.225-.043-.336h3.27a40.119,40.119,0,1,0-41.679,46.136,1.58,1.58,0,0,0,.287-.045q-.735-.036-1.464-.093Z" transform="translate(-225.033 -261.723)" fill="#fff"/>
      <path id="Trazado_25628" data-name="Trazado 25628" d="M598.636,483.98c.131.812.239,1.631.316,2.459.022.236.034.474.052.712.023.318.054.634.069.954a1.609,1.609,0,0,0,3.215-.063c-.011-.249-.014-.5-.029-.748-.023-.364-.047-.728-.08-1.089-.06-.666-.139-1.326-.231-1.982-.027-.193-.055-.386-.085-.579h-3.27c.019.111.025.225.043.336" transform="translate(-443.135 -358.039)" fill="#fff"/>
      <path id="Trazado_25629" data-name="Trazado 25629" d="M449.056,650.207a1.608,1.608,0,0,0-1.528-1.606c-.456-.022-.907-.063-1.359-.1v3.185q.729.058,1.464.093a1.6,1.6,0,0,0,1.423-1.57" transform="translate(-330.296 -480.08)" fill="#fff"/>
      <path id="Trazado_25630" data-name="Trazado 25630" d="M1211.689,356.973H951.355a15.8,15.8,0,0,1-15.8-15.8V203.359a15.8,15.8,0,0,1,15.8-15.8h260.333a15.8,15.8,0,0,1,15.8,15.8V341.173a15.8,15.8,0,0,1-15.8,15.8" transform="translate(-692.586 -138.849)" fill="#fff"/>
      <rect id="Rectángulo_3756" data-name="Rectángulo 3756" width="13.018" height="14.834" transform="translate(259.56 88.008) rotate(-0.261)" fill="#0098ff"/>
      <rect id="Rectángulo_3757" data-name="Rectángulo 3757" width="13.018" height="14.834" transform="matrix(1, -0.005, 0.005, 1, 285.863, 87.888)" fill="#f9327e"/>
      <rect id="Rectángulo_3758" data-name="Rectángulo 3758" width="13.018" height="14.834" transform="matrix(1, -0.005, 0.005, 1, 312.166, 87.768)" fill="#0098ff"/>
      <rect id="Rectángulo_3759" data-name="Rectángulo 3759" width="13.018" height="14.834" transform="matrix(1, -0.005, 0.005, 1, 259.664, 110.767)" fill="#f9327e"/>
      <rect id="Rectángulo_3760" data-name="Rectángulo 3760" width="13.018" height="14.834" transform="translate(285.967 110.647) rotate(-0.261)" fill="#b6e9ff"/>
      <rect id="Rectángulo_3761" data-name="Rectángulo 3761" width="13.018" height="14.834" transform="translate(312.27 110.528) rotate(-0.262)" fill="#0098ff"/>
      <rect id="Rectángulo_3762" data-name="Rectángulo 3762" width="13.018" height="14.834" transform="translate(259.77 133.932) rotate(-0.262)" fill="#0098ff"/>
      <rect id="Rectángulo_3763" data-name="Rectángulo 3763" width="13.018" height="14.834" transform="translate(286.073 133.812) rotate(-0.261)" fill="#0098ff"/>
      <rect id="Rectángulo_3764" data-name="Rectángulo 3764" width="13.018" height="14.834" transform="matrix(1, -0.005, 0.005, 1, 312.376, 133.693)" fill="#f9327e"/>
      <path id="Trazado_25631" data-name="Trazado 25631" d="M912.892,580.356c-6.169-9.467-24.262,2.987-17.571,12.179,6.775,9.307,12.424,16.386,18.386,23.767l13.826-11.08c-5.048-8.269-10.1-17.9-14.641-24.866" transform="translate(-661.719 -427.129)" fill="#e6f3ff"/>
      <path id="Trazado_25632" data-name="Trazado 25632" d="M995.954,698.092c-3.211-4.928-6.008-3.227-9.218-8.154-.825-1.267-1.71-2.685-2.628-4.189l-13.826,11.08c3.715,4.6,7.551,9.315,11.858,14.762,1.433,1.812,6.547,3.475,9.305,2.894,0,0,4.69-16.423,4.509-16.393" transform="translate(-718.294 -507.656)" fill="#ff8fa1"/>
      <path id="Trazado_25633" data-name="Trazado 25633" d="M1054.457,588.881c-6.689,9.926-18.491,22.226-25.427,32.276l5.927,17.745a10.97,10.97,0,0,0,6.152-5.009c6.33-12.848,14.488-27,20.818-39.848,5-10.148-1.167-14.515-7.469-5.164" transform="translate(-761.785 -432.13)" fill="#ff8fa1"/>
      <path id="Trazado_25634" data-name="Trazado 25634" d="M889.045,1703.857h8.886l1.561-10.876h-8.886Z" transform="translate(-658.156 -1253.305)" fill="#fff"/>
      <path id="Trazado_25635" data-name="Trazado 25635" d="M894.048,1723.159l11.121,2.834c4.343,1.424,2.745,5.586-2.144,5.586H884.418c-.893,0-1.568-.512-1.409-1.069l2.09-7.351Z" transform="translate(-653.67 -1275.645)" fill="#ff15a1"/>
      <path id="Trazado_25636" data-name="Trazado 25636" d="M738.83,1707.661h8.886l1.561-10.876h-8.885Z" transform="translate(-546.952 -1256.121)" fill="#fff"/>
      <path id="Trazado_25637" data-name="Trazado 25637" d="M743.832,1726.962l11.121,2.834c4.343,1.425,2.745,5.587-2.144,5.587H734.2c-.893,0-1.568-.512-1.409-1.069l2.09-7.351Z" transform="translate(-542.466 -1278.461)" fill="#ff15a1"/>
    </g>
  </g>
  <g id="Grupo_30223" data-name="Grupo 30223" transform="translate(182.975 267.546)">
    <g id="Grupo_30222" data-name="Grupo 30222" clip-path="url(#clip-path-2)">
      <rect id="Rectángulo_3766" data-name="Rectángulo 3766" width="37.718" height="176.154" transform="translate(0 0)" fill="url(#linear-gradient)"/>
    </g>
  </g>
  <g id="Grupo_30225" data-name="Grupo 30225" transform="translate(217.486 271.123)">
    <g id="Grupo_30224" data-name="Grupo 30224" clip-path="url(#clip-path-3)">
      <rect id="Rectángulo_3767" data-name="Rectángulo 3767" width="54.861" height="173.136" transform="translate(0 0)" fill="url(#linear-gradient-2)"/>
    </g>
  </g>
  <g id="Grupo_30227" data-name="Grupo 30227">
    <g id="Grupo_30226" data-name="Grupo 30226" clip-path="url(#clip-path)">
      <path id="Trazado_25640" data-name="Trazado 25640" d="M1140.5,547.3a9.9,9.9,0,0,1,3.661-2.967,11.706,11.706,0,0,0,1.934-.969,2.224,2.224,0,0,0,1.027-1.809c-.057-1.155-3.066-7.422-3.2-7.638-.371-.591.051-1.342.429-1.928a18.392,18.392,0,0,0,2.185-4.764c.113-.384.176-.884-.156-1.108-.388-.261-.881.123-1.174.487-2.893,3.6-5.661,9.341-6.6,9.947-1.307.7-3.4,2.139-3.955,3.514a4.493,4.493,0,0,0-.48,2.327c.149.946.88,1.694,1.183,2.6a20.357,20.357,0,0,0,.541,2.32c.34.72,1.378,1.215,1.92.632Z" transform="translate(-839.595 -389.416)" fill="#ff8698"/>
      <path id="Trazado_25641" data-name="Trazado 25641" d="M747.369,715.634c-3.821-2.138-8.291-3.028-11.886-5.529-6.557-4.562-8.668-13.363-8.643-21.36s1.658-16.04.426-23.942c-1.751-11.221-9.02-20.723-12.962-31.372a55.7,55.7,0,0,1-.45-36.442c-1.392.727-2.693,1.478-3.912,2.24-1.006,2.4-1.869,4.855-2.632,7.34.762-2.485,1.625-4.937,2.631-7.339-4.907,3.071-8.348,7.024-9.589,12.11-7.227,29.616,7.363,52.756-2.575,93.636-.162.664.317,2.452.606,5.226.331,3.168.742,7.666,1.12,13.391h28.513l-.005-.221,25.431.592c-.174-3.379-2.96-6.589-6.073-8.332" transform="translate(-516.537 -441.948)" fill="#fff"/>
      <path id="Trazado_25642" data-name="Trazado 25642" d="M809.417,700.793c-8.575-37.5,10.69-81.144-.309-120.37a13.859,13.859,0,0,0-11.244-10.051l-.066-.01c-7.184-.986-15.944-.48-24.108.693a60.876,60.876,0,0,0-16.326,3.311,46.849,46.849,0,0,0-5.693,2.523,55.7,55.7,0,0,0,.45,36.442c3.942,10.649,11.211,20.15,12.962,31.372,1.233,7.9-.4,15.945-.426,23.941s2.086,16.8,8.643,21.36c3.595,2.5,8.065,3.391,11.886,5.529,3.113,1.743,5.9,4.953,6.073,8.332l19.041.444c-.326-1.165-.614-2.338-.883-3.516" transform="translate(-554.355 -421.848)" fill="#deebff"/>
      <path id="Trazado_25643" data-name="Trazado 25643" d="M725.461,648.562c-6.169-9.467-23.125,4.546-16.434,13.738,5.092,7,9.547,12.729,13.977,18.28l15-11.005c-4.29-7.284-8.937-15.484-12.54-21.014" transform="translate(-523.751 -477.794)" fill="#fff"/>
      <path id="Trazado_25644" data-name="Trazado 25644" d="M797.306,756.213c-5.487-2.178-6.008-3.227-9.218-8.155-1.76-2.7-3.77-6.043-5.865-9.6l-15,11c5.138,6.438,10.243,12.63,16.266,20.249,1.433,1.812,6.547,3.475,9.305,2.894,0,0,4.69-16.423,4.509-16.393" transform="translate(-567.973 -546.676)" fill="#ff8fa1"/>
      <path id="Trazado_25645" data-name="Trazado 25645" d="M904.538,812.353c-.358-.359-.943-.023-1.329.329a6.592,6.592,0,0,1-2.3,1.655,4.981,4.981,0,0,1-.93.158l-5.889.616c-.229.024-.561-.079-.491-.32a.364.364,0,0,1,.141-.174,3.132,3.132,0,0,1,1.886-.469l2.967-.085a5,5,0,0,0,1.973-.327,1.242,1.242,0,0,0,.576-.47.655.655,0,0,0-.013-.728.78.78,0,0,0-.514-.207c-.849-.11-1.708-.139-2.565-.168l-5.177-.173a10.813,10.813,0,0,0-2.9.164,10.049,10.049,0,0,0-3.115,1.528,16.853,16.853,0,0,0-4.608-.934c-11.922-.9-28.435-5.068-40.587-6.12L829.22,820.581a10.956,10.956,0,0,0,7.393,2.869c14.276-.863,30.591-.781,44.867-1.643a17.5,17.5,0,0,0,5.336-1.069,6.282,6.282,0,0,0,1.658-.528,4.857,4.857,0,0,1,3.392-.008c1.1.335,2.144.855,3.258,1.135a4.334,4.334,0,0,0,3.37-.34,6.483,6.483,0,0,0,1.365-1.274q1.949-2.221,3.727-4.609a7.724,7.724,0,0,0,.984-1.589,1.115,1.115,0,0,0-.031-1.171" transform="translate(-613.867 -597.142)" fill="#ff8fa1"/>
      <path id="Trazado_25646" data-name="Trazado 25646" d="M832.4,584.262H820.068a3.787,3.787,0,0,1,0-7.575H832.4a3.787,3.787,0,0,1,0,7.575" transform="translate(-604.293 -426.918)" fill="#ff8698"/>
    </g>
  </g>
  <g id="Grupo_30229" data-name="Grupo 30229" transform="translate(211.024 102.764)">
    <g id="Grupo_30228" data-name="Grupo 30228" clip-path="url(#clip-path-5)">
      <rect id="Rectángulo_3769" data-name="Rectángulo 3769" width="32.684" height="30.005" transform="translate(-1.235 0.053) rotate(-2.47)" fill="url(#linear-gradient-3)"/>
    </g>
  </g>
  <g id="Grupo_30231" data-name="Grupo 30231">
    <g id="Grupo_30230" data-name="Grupo 30230" clip-path="url(#clip-path)">
      <path id="Trazado_25648" data-name="Trazado 25648" d="M818.106,411.924c-1.821.454-3.765.979-4.961,2.313-1.63,1.817-1.3,4.494-.424,6.684s2.211,4.289,2.352,6.621c.148,2.457-.949,5.3.813,7.155,1.724,1.813,5.141,1.229,7.1-.4s2.988-3.962,4.435-5.989a14.925,14.925,0,0,0,2.383-3.777c.826-2.544-.558-5.253-2.4-7.287-1.389-1.533-3.048-2.839-4.464-4.349-1.769-1.887-2.147-1.641-4.838-.969" transform="translate(-601.114 -304.579)" fill="#251930"/>
      <path id="Trazado_25649" data-name="Trazado 25649" d="M816.526,427.656a3.95,3.95,0,0,1,3.858-3.942l.136-3.212,11.953-6.084c5.166-2.63,11.642.5,11.924,5.716a102.274,102.274,0,0,0-10.7.573,11.454,11.454,0,0,0-3.318.721,8.406,8.406,0,0,0-3.066,2.494c-4.354,5.3-4.78,12.35-5.036,18.939a48.122,48.122,0,0,0,.106,7.608,29.508,29.508,0,0,0,2.343,8.237l-3.381-.092a2.27,2.27,0,0,1-2.31-2.252s1.119-24.168,1.105-24.58c-.035,0-.065.02-.1.019a3.81,3.81,0,0,1-3.516-4.144" transform="translate(-604.467 -306.088)" fill="#f76f87"/>
      <path id="Trazado_25650" data-name="Trazado 25650" d="M838.41,461.863c.256-6.588.682-13.638,5.036-18.939a8.407,8.407,0,0,1,3.066-2.494,11.454,11.454,0,0,1,3.318-.721,102.353,102.353,0,0,1,10.7-.574c.01.189.074.358.067.552l0,.125-.446,10.559c-.266,6.28-6.366,11.864-11.817,12.979l.528,12.235c-.051,1.2-.449,2.329-1.77,2.293l-6.227-.171a29.508,29.508,0,0,1-2.343-8.237,48.122,48.122,0,0,1-.106-7.608" transform="translate(-620.598 -325.09)" fill="#ff8698"/>
    </g>
  </g>
  <g id="Grupo_30233" data-name="Grupo 30233" transform="translate(213.544 105.866)">
    <g id="Grupo_30232" data-name="Grupo 30232" clip-path="url(#clip-path-7)">
      <rect id="Rectángulo_3771" data-name="Rectángulo 3771" width="17.032" height="18.592" transform="translate(-0.999 0.033) rotate(-2.47)" fill="url(#linear-gradient-4)"/>
    </g>
  </g>
  <g id="Grupo_30235" data-name="Grupo 30235" transform="translate(215.815 102.468)">
    <g id="Grupo_30234" data-name="Grupo 30234" clip-path="url(#clip-path-8)">
      <rect id="Rectángulo_3772" data-name="Rectángulo 3772" width="26.795" height="12.236" transform="matrix(0.999, -0.043, 0.043, 0.999, -0.478, 0.021)" fill="url(#linear-gradient-5)"/>
    </g>
  </g>
  <g id="Grupo_30237" data-name="Grupo 30237">
    <g id="Grupo_30236" data-name="Grupo 30236" clip-path="url(#clip-path)">
      <path id="Trazado_25653" data-name="Trazado 25653" d="M836.234,456.022a20.449,20.449,0,0,0,2.312,8.863,9.119,9.119,0,0,0,2.692,3.574c.593.42,1.27.716,1.837,1.171a1.986,1.986,0,0,1,.727,1.832c-.041.378-.017.774-.345.969a2.528,2.528,0,0,1-1.281.2,6.84,6.84,0,0,0-6.382,9.061,2.6,2.6,0,0,1,.227,1,.714.714,0,0,1-.624.7.851.851,0,0,1-.356-.1c-1.559-.741-2.018-2.707-2.232-4.419a98.817,98.817,0,0,1-.669-12.377,25.078,25.078,0,0,1,.351-4.883,27.269,27.269,0,0,1,1.28-4.1l2.317-6.249a8.869,8.869,0,0,1,1.53-2.89c.981-1.092,1.56-.788.727.479a12.927,12.927,0,0,0-2.111,7.165" transform="translate(-616.028 -331.436)" fill="#f76f87"/>
      <path id="Trazado_25654" data-name="Trazado 25654" d="M826.225,453.753a4.682,4.682,0,0,1,.489,3.9c-.013.047-.041.1-.09.1s-.062-.046-.075-.083a4.392,4.392,0,0,1-.151-.985,2.082,2.082,0,0,0-.893-1.611,4.592,4.592,0,0,1-.536-.285.874.874,0,0,1-.313-.869.84.84,0,0,1,1.568-.164" transform="translate(-610.474 -335.563)" fill="#ff8698"/>
      <path id="Trazado_25655" data-name="Trazado 25655" d="M803.344,400.132a9.311,9.311,0,0,1,4.054-2.554c.236,1.753,1.405,3.5,2.03,5.25,1.086,3.043.2,6.913-2.581,8.562A16.159,16.159,0,0,1,804,412.541c-.064-.177-.091-.363-.168-.536-.727-1.632-2.042-3-2.577-4.7-.779-2.482.3-5.239,2.092-7.174" transform="translate(-592.972 -294.325)" fill="#152682"/>
    </g>
  </g>
  <g id="Grupo_30239" data-name="Grupo 30239" transform="translate(217.216 96.787)">
    <g id="Grupo_30238" data-name="Grupo 30238" clip-path="url(#clip-path-10)">
      <rect id="Rectángulo_3774" data-name="Rectángulo 3774" width="26.229" height="14.563" transform="translate(0 0)" fill="url(#linear-gradient-6)"/>
    </g>
  </g>
  <g id="Grupo_30241" data-name="Grupo 30241">
    <g id="Grupo_30240" data-name="Grupo 30240" clip-path="url(#clip-path)">
      <path id="Trazado_25657" data-name="Trazado 25657" d="M918.727,380.142a8.838,8.838,0,0,1,3.233,4.519,8.237,8.237,0,0,1-.228,5.243A21.749,21.749,0,0,0,921,392.9a14.576,14.576,0,0,0,.02,3.1c.146,1.9.226,3.831-1.062,5.424,1.924-.978,2.457-3.492,2.561-5.417a17.392,17.392,0,0,1,1.081-5.542,8.315,8.315,0,0,0-.25-6.346,7.172,7.172,0,0,0-4.621-3.971" transform="translate(-680.129 -281.417)" fill="#3451ad"/>
      <rect id="Rectángulo_3775" data-name="Rectángulo 3775" width="2.634" height="213.851" transform="translate(339.786 36.868)" fill="#0098ff"/>
      <rect id="Rectángulo_3776" data-name="Rectángulo 3776" width="2.633" height="213.851" transform="translate(438.792 36.868)" fill="#0098ff"/>
      <path id="Trazado_25658" data-name="Trazado 25658" d="M771.35,1142.529h0Z" transform="translate(-563.513 -845.808)" fill="#ffc179"/>
      <path id="Trazado_25659" data-name="Trazado 25659" d="M1579.18,1157.455v-14.733c0,.763,0,10.156,0,14.733Z" transform="translate(-1169.058 -845.951)" fill="#fff1c2"/>
      <path id="Trazado_25660" data-name="Trazado 25660" d="M656.779,1157.312V1142.53H452.453v14.782Z" transform="translate(-334.948 -845.808)" fill="#fff"/>
      <path id="Trazado_25661" data-name="Trazado 25661" d="M1327.5,1157.312v-14.782h-88.291v14.783Z" transform="translate(-917.382 -845.808)" fill="#deebff"/>
      <path id="Trazado_25662" data-name="Trazado 25662" d="M2157.556,570.894a21.135,21.135,0,0,0,.526,4.38c.063.23,1.738,11.551,1.64,11.779s-5.73.94-5.948,1.05c-2.775,1.4-1.754.263-4.4-1.019-.677-.328-1.22-.042-1.44-.8-.624-2.153-1.39-14-1.242-15.573a29.872,29.872,0,0,0-.075-6.385c.011-.048,7.783,1.163,8.434,1.26.9.134,2.4-.007,2.629,1.074.208.98-.2,3.038-.122,4.234" transform="translate(-1589.127 -417.767)" fill="#f76f87"/>
      <path id="Trazado_25663" data-name="Trazado 25663" d="M2113.466,476.978a72.238,72.238,0,0,1-.34-11.033c.042-.672.136-1.323.171-1.957l16.414-7.179a11.275,11.275,0,0,1,4.2,9.174l-.067,9.985a14.682,14.682,0,0,1-1.862,6.991c-.068.242-.224.828-.38,1.616l-4.211,2.178a1.861,1.861,0,0,0-.628-1.35,2.113,2.113,0,0,0-2.177-.017c-.714.338-1.34.871-2.037,1.251a5.165,5.165,0,0,1-3.527.544,6.474,6.474,0,0,1-4.3-3.993,20.449,20.449,0,0,1-1.256-6.211" transform="translate(-1564.268 -338.173)" fill="#ff8698"/>
      <path id="Trazado_25664" data-name="Trazado 25664" d="M2135.364,570.133l-5.179,1.557-.005-.494a.905.905,0,0,0-.781-.91,11.056,11.056,0,0,1-5.159-2.26,8.506,8.506,0,0,0,1.517.359,10.309,10.309,0,0,0,5.881-1.041,11.966,11.966,0,0,0,2.483-1.576,1.525,1.525,0,0,1,.934.3c.8.628.706,1.927.515,3.009-.062.354-.137.706-.206,1.06" transform="translate(-1572.563 -418.834)" fill="#f76f87"/>
      <path id="Trazado_25665" data-name="Trazado 25665" d="M2107.8,499.118l.588-14.214,1.032-.452c-.034.633-.129,1.285-.171,1.957a72.177,72.177,0,0,0,.34,11.033,20.447,20.447,0,0,0,1.256,6.211,6.474,6.474,0,0,0,4.3,3.993,5.165,5.165,0,0,0,3.527-.544c.7-.38,1.323-.913,2.037-1.251a2.815,2.815,0,0,1,1.243-.281,11.95,11.95,0,0,1-2.483,1.576,10.307,10.307,0,0,1-5.881,1.041,8.518,8.518,0,0,1-1.517-.359,10.95,10.95,0,0,1-4.269-8.711" transform="translate(-1560.393 -358.637)" fill="#ff8698"/>
    </g>
  </g>
  <g id="Grupo_30243" data-name="Grupo 30243" transform="translate(546.224 112.951)">
    <g id="Grupo_30242" data-name="Grupo 30242" clip-path="url(#clip-path-12)">
      <path id="Trazado_25666" data-name="Trazado 25666" d="M2126.836,434.921h-32.406l-2.751,37.68h32.407Z" transform="translate(-2094.683 -434.921)" fill="url(#linear-gradient-7)"/>
    </g>
  </g>
  <g id="Grupo_30245" data-name="Grupo 30245">
    <g id="Grupo_30244" data-name="Grupo 30244" clip-path="url(#clip-path)">
      <path id="Trazado_25668" data-name="Trazado 25668" d="M2123.126,522.143c.131-2.277-1.031-4.021-2.6-3.9a2.246,2.246,0,0,0-.838.265,2.622,2.622,0,0,1,1.619-.825c1.565-.125,2.728,1.619,2.6,3.9a4.921,4.921,0,0,1-2.233,4.083,5.52,5.52,0,0,0,1.452-3.522" transform="translate(-1569.196 -383.236)" fill="#f76f87"/>
      <path id="Trazado_25669" data-name="Trazado 25669" d="M2116.67,527.529c-1.565.125-2.728-1.619-2.6-3.9a5.517,5.517,0,0,1,1.452-3.523,2.234,2.234,0,0,1,.837-.265c1.566-.125,2.728,1.619,2.6,3.9a5.519,5.519,0,0,1-1.452,3.522,2.246,2.246,0,0,1-.838.265" transform="translate(-1565.029 -384.834)" fill="#ff8698"/>
      <path id="Trazado_25670" data-name="Trazado 25670" d="M1848.993,865.189c-15.912,4.435-31.829,7.853-48.186,11.172l-2.981-2.786c15.266-7.9,38.353-12.241,53.468-20.323,1.34-.717,5.585-.921,6.986-1.564.7.5-5.385,2.648-4.718,3.08,4.459,2.885,2.862,8.4-2.268,9.764-.908.242-1.758.507-2.3.659" transform="translate(-1330.922 -630.499)" fill="#ff8698"/>
      <path id="Trazado_25671" data-name="Trazado 25671" d="M1988.041,741.584c.122-2.359,2.031-3.516,3.481-5.576,6.634-9.428,23.214-28.3,33.591-41.586l11.252-1.8c.083.707.129,1.421.148,2.13a41.014,41.014,0,0,1-5.979,21.885c-.084.077-.17.153-.255.231-2.69,2.467-5.511,4.839-8.317,7.178-3.268,2.724-22.677,19.044-26.47,21.125a7.556,7.556,0,0,1-3.067,1.085,4.358,4.358,0,0,1-4.384-4.674" transform="translate(-1471.731 -512.747)" fill="#ff8698"/>
    </g>
  </g>
  <g id="Grupo_30247" data-name="Grupo 30247" transform="translate(571.588 448.198)">
    <g id="Grupo_30246" data-name="Grupo 30246" clip-path="url(#clip-path-14)">
      <rect id="Rectángulo_3779" data-name="Rectángulo 3779" width="25.842" height="10.863" transform="translate(-1.673)" fill="url(#linear-gradient-8)"/>
    </g>
  </g>
  <g id="Grupo_30249" data-name="Grupo 30249" transform="translate(533.991 448.073)">
    <g id="Grupo_30248" data-name="Grupo 30248" clip-path="url(#clip-path-15)">
      <rect id="Rectángulo_3780" data-name="Rectángulo 3780" width="25.86" height="10.88" transform="translate(-1.692)" fill="url(#linear-gradient-9)"/>
    </g>
  </g>
  <g id="Grupo_30251" data-name="Grupo 30251">
    <g id="Grupo_30250" data-name="Grupo 30250" clip-path="url(#clip-path)">
      <path id="Trazado_25674" data-name="Trazado 25674" d="M2081.135,1467.336c-.245-26.62-.2-74.7,1.272-91.758h-23.445c.5,14.838,10.4,68.191,12.466,93.462.3,3.653.957,4.57,4.813,4.57h.355c4.548,0,4.578-1.931,4.538-6.274" transform="translate(-1524.238 -1018.333)" fill="#ff8698"/>
      <path id="Trazado_25675" data-name="Trazado 25675" d="M2208.479,1463.68c-.837-20.244-2.274-51.367-5.122-92.418h-22.7c1.488,21.451,14.56,65.009,18.246,92.681.534,4.008-.166,5.579,4.027,5.579,4.3,0,5.722-1.724,5.552-5.842" transform="translate(-1614.326 -1015.138)" fill="#ff8698"/>
      <path id="Trazado_25676" data-name="Trazado 25676" d="M2264.246,731.594a234.708,234.708,0,0,0-6.409-55.724c-1.242-5.239,2.653-11.41,6.625-12.771,4.684-1.6,8.214,2.046,9.448,7.251,8.005,33.768-.15,74.939-10.222,109.588h-5.829a187.227,187.227,0,0,0,6.244-41.879c.084-2.155.126-4.31.144-6.466" transform="translate(-1671.29 -490.606)" fill="#ff8698"/>
    </g>
  </g>
  <g id="Grupo_30253" data-name="Grupo 30253" transform="translate(559.773 112.951)">
    <g id="Grupo_30252" data-name="Grupo 30252" clip-path="url(#clip-path-17)">
      <path id="Trazado_25677" data-name="Trazado 25677" d="M2148.427,434.921h-45.186l-2.017,27.626h45.186Z" transform="translate(-2115.298 -434.921)" fill="url(#linear-gradient-10)"/>
    </g>
  </g>
  <g id="Grupo_30255" data-name="Grupo 30255">
    <g id="Grupo_30254" data-name="Grupo 30254" clip-path="url(#clip-path)">
      <path id="Trazado_25679" data-name="Trazado 25679" d="M2131.21,1138.2c.384-3.937.939-7.988,2.856-11.537,5.324-9.855,18.362-11.865,26.558-19.475,5.308-4.929,8.281-12.027,9.48-19.074,1.1-6.486.846-13.014.479-19.487h1.449a12.626,12.626,0,0,1,2.882,9.931c-.454,6.107-.9,12.149-1.359,18.257.206,10.22-7.152,24.036-7.912,34.715-.83,11.667,4.069,20.61,3.239,32.277,0,0-8.187,4.724-16.971,4.724-14.7,0-17.757-1.82-21.226-3.465a173.051,173.051,0,0,1,.525-26.865" transform="translate(-1577.118 -791.098)" fill="#de1491"/>
      <path id="Trazado_25680" data-name="Trazado 25680" d="M2052.814,1074.4a14.8,14.8,0,0,1,2.068-6.214l15.706.114h41.429c.367,6.473.624,13-.479,19.486-1.2,7.048-4.172,14.146-9.481,19.074-8.2,7.61-21.234,9.62-26.557,19.475-1.917,3.549-2.472,7.6-2.856,11.537a173.023,173.023,0,0,0-.525,26.865,22.206,22.206,0,0,0-3.151-1.259c-4.074-1.249-10.474-.711-13.787-.3a1.994,1.994,0,0,1-2.222-2.012c-1.089-28.839-3.084-57.931-.144-86.763" transform="translate(-1518.551 -790.774)" fill="#ff20ac"/>
      <path id="Trazado_25681" data-name="Trazado 25681" d="M2104.788,759.068c4.314.2,8.571.98,12.914.772s8.956-1.57,12.065-4.9c4.546-4.87,4.552-12.443,2.551-18.45s-5.627-11.251-7.508-17.307c-4.173-13.438.742-28.5,5.187-42.489,3.3-10.384,6.313-21.645,5.256-31.935,2.993,1.787,5.73,3.547,7.9,4.655-.6,11.968-1.813,18.13-5.057,29.971-2.948,10.76-7.968,20.909-6.446,32.128.762,5.619,3.2,10.7,5.051,15.892a144.04,144.04,0,0,1,5,16.583,76.546,76.546,0,0,1,1.916,17.912s-6.789,7.264-24.464,7.264c-14.694,0-15.965-5.212-26.852-7.207-1.74-.319-3.277-.513-4.638-.625a49.945,49.945,0,0,1,17.122-2.264" transform="translate(-1545.488 -477.312)" fill="#65bdff"/>
      <path id="Trazado_25682" data-name="Trazado 25682" d="M2057.217,743.775a67.664,67.664,0,0,1,3.7-16.344c4.622-12.532,7.027-57.4,8.387-82.336a26.394,26.394,0,0,1,17.9-23.328,21.965,21.965,0,0,1,8.241-1.3c5.41-.369,11.773,3.006,17.263,6.285,1.057,10.291-1.957,21.551-5.256,31.935-4.445,13.991-9.36,29.052-5.187,42.489,1.88,6.056,5.507,11.3,7.508,17.307s1.995,13.581-2.551,18.45c-3.109,3.33-7.723,4.692-12.065,4.9s-8.6-.573-12.914-.772a49.95,49.95,0,0,0-17.122,2.264c-5.423-.448-7.908.455-7.908.455" transform="translate(-1522.947 -459.3)" fill="#b6e9ff"/>
    </g>
  </g>
  <g id="Grupo_30257" data-name="Grupo 30257" transform="translate(539.849 112.924)">
    <g id="Grupo_30256" data-name="Grupo 30256" clip-path="url(#clip-path-19)">
      <path id="Trazado_25683" data-name="Trazado 25683" d="M2010.643,403.5l95.726-14.375,18.41,128.172-95.726,14.375Z" transform="translate(-2028.317 -400.987)" fill="url(#linear-gradient-11)"/>
    </g>
  </g>
  <g id="Grupo_30259" data-name="Grupo 30259" transform="translate(301.162 242.871)">
    <g id="Grupo_30258" data-name="Grupo 30258" clip-path="url(#clip-path-20)">
      <rect id="Rectángulo_3783" data-name="Rectángulo 3783" width="96.808" height="54.274" transform="translate(-0.842 0)" fill="url(#linear-gradient-12)"/>
    </g>
  </g>
  <g id="Grupo_30261" data-name="Grupo 30261" transform="translate(327.937 291.086)">
    <g id="Grupo_30260" data-name="Grupo 30260" clip-path="url(#clip-path-21)">
      <rect id="Rectángulo_3784" data-name="Rectángulo 3784" width="81.363" height="6.058" fill="url(#linear-gradient-13)"/>
    </g>
  </g>
  <g id="Grupo_30263" data-name="Grupo 30263" transform="translate(360.261 446.062)">
    <g id="Grupo_30262" data-name="Grupo 30262" clip-path="url(#clip-path-22)">
      <rect id="Rectángulo_3785" data-name="Rectángulo 3785" width="27.02" height="10.834" transform="translate(-0.008)" fill="url(#linear-gradient-14)"/>
    </g>
  </g>
  <g id="Grupo_30265" data-name="Grupo 30265" transform="translate(418.122 446.282)">
    <g id="Grupo_30264" data-name="Grupo 30264" clip-path="url(#clip-path-23)">
      <rect id="Rectángulo_3786" data-name="Rectángulo 3786" width="27.02" height="10.834" transform="translate(-0.008)" fill="url(#linear-gradient-15)"/>
    </g>
  </g>
  <g id="Grupo_30267" data-name="Grupo 30267">
    <g id="Grupo_30266" data-name="Grupo 30266" clip-path="url(#clip-path)">
      <path id="Trazado_25689" data-name="Trazado 25689" d="M1251.825,1109.2a11.344,11.344,0,0,0-3.625-1.71,10.442,10.442,0,0,0-2.805-.057l-5,.351c-.828.058-1.657.116-2.474.253a.756.756,0,0,0-.489.218.634.634,0,0,0,.013.7,1.2,1.2,0,0,0,.574.434,4.831,4.831,0,0,0,1.918.246l2.871-.023a3.029,3.029,0,0,1,1.839.386.349.349,0,0,1,.142.163c.077.23-.24.342-.463.327l-5.714-.387a4.779,4.779,0,0,1-.9-.12,6.37,6.37,0,0,1-2.28-1.517c-.385-.327-.963-.631-1.3-.271a1.078,1.078,0,0,0,.011,1.133,7.479,7.479,0,0,0,1.007,1.5q1.8,2.243,3.765,4.323a6.261,6.261,0,0,0,1.365,1.182,4.191,4.191,0,0,0,3.269.209c1.067-.309,2.058-.85,3.109-1.212a4.7,4.7,0,0,1,3.279-.113c1.276.513,3.148,1.081,4.328-1.119.852-1.589.02-2.936-1.4-4.051Z" transform="translate(-913.505 -819.777)" fill="#ff8698"/>
      <path id="Trazado_25690" data-name="Trazado 25690" d="M1670.908,860.75a23.921,23.921,0,0,0,1.864,4.363,1.221,1.221,0,0,1,.242.725,1.057,1.057,0,0,1-.4.632,9.716,9.716,0,0,1-8.557,2.429c-.772-.163-1.236,1.225-1.687.5a18.83,18.83,0,0,1-2.29-6.054,33.565,33.565,0,0,0-2.033-6.536c0-.051,8.07-.8,8.745-.868.93-.092,2.375-.622,2.935.429.507.952.73,3.171,1.178,4.378" transform="translate(-1227.446 -633.491)" fill="#f76f87"/>
      <path id="Trazado_25691" data-name="Trazado 25691" d="M1618.189,761.532a82.379,82.379,0,0,1-2.1-11.707c-.065-.718-.071-1.418-.137-2.095l15.58-8.933a13.339,13.339,0,0,1,5.734,9.425l1.52,10.625a15.668,15.668,0,0,1-.785,7.583c-.031.262-.1.9-.13,1.749l-3.943,2.649a2.21,2.21,0,0,0-.854-1.386,2.077,2.077,0,0,0-2.221.154c-.673.416-1.227,1.032-1.876,1.491a4.9,4.9,0,0,1-3.506.858,7.455,7.455,0,0,1-5.013-3.907,23.964,23.964,0,0,1-2.267-6.506" transform="translate(-1196.28 -546.927)" fill="#ff8698"/>
      <path id="Trazado_25692" data-name="Trazado 25692" d="M1652.318,860.4l-5.028,2.066-.084-.525a1.047,1.047,0,0,0-.94-.906,11.939,11.939,0,0,1-5.615-2,8.759,8.759,0,0,0,1.6.262,9.732,9.732,0,0,0,5.825-1.572,11.01,11.01,0,0,0,2.279-1.873,1.6,1.6,0,0,1,1,.242c.911.605,1.026,1.994,1,3.159-.007.381-.027.762-.042,1.143" transform="translate(-1214.565 -633.58)" fill="#f76f87"/>
      <path id="Trazado_25693" data-name="Trazado 25693" d="M1613.836,788.919l-1.661-15.164.981-.562c.066.676.073,1.377.137,2.095a82.382,82.382,0,0,0,2.1,11.707,23.956,23.956,0,0,0,2.267,6.506,7.455,7.455,0,0,0,5.012,3.907,4.9,4.9,0,0,0,3.506-.858c.65-.459,1.2-1.076,1.876-1.491a2.636,2.636,0,0,1,1.222-.4,11.02,11.02,0,0,1-2.279,1.873,9.734,9.734,0,0,1-5.825,1.572,8.759,8.759,0,0,1-1.6-.262,12.963,12.963,0,0,1-5.734-8.927" transform="translate(-1193.484 -572.391)" fill="#ff8698"/>
    </g>
  </g>
  <g id="Grupo_30269" data-name="Grupo 30269" transform="translate(416.402 192.434)">
    <g id="Grupo_30268" data-name="Grupo 30268" clip-path="url(#clip-path-25)">
      <rect id="Rectángulo_3788" data-name="Rectángulo 3788" width="32.51" height="33.512" transform="translate(-0.371 0)" fill="url(#linear-gradient-16)"/>
    </g>
  </g>
  <g id="Grupo_30271" data-name="Grupo 30271">
    <g id="Grupo_30270" data-name="Grupo 30270" clip-path="url(#clip-path)">
      <path id="Trazado_25695" data-name="Trazado 25695" d="M1631.576,812.144c-.229-2.432-1.69-4.2-3.265-3.938a2.078,2.078,0,0,0-.811.348,2.421,2.421,0,0,1,1.518-1.006c1.575-.257,3.036,1.506,3.265,3.938a4.935,4.935,0,0,1-1.626,4.519,5.688,5.688,0,0,0,.919-3.861" transform="translate(-1204.829 -597.805)" fill="#f76f87"/>
      <path id="Trazado_25696" data-name="Trazado 25696" d="M1627.138,818.23c-1.574.257-3.036-1.506-3.265-3.938a5.686,5.686,0,0,1,.919-3.862,2.078,2.078,0,0,1,.811-.347c1.575-.257,3.036,1.506,3.265,3.938a5.686,5.686,0,0,1-.919,3.861,2.087,2.087,0,0,1-.811.348" transform="translate(-1202.123 -599.682)" fill="#ff8698"/>
      <path id="Trazado_25697" data-name="Trazado 25697" d="M1642.47,761.072a38.265,38.265,0,0,1-2.839-3.17c-.4-.5-.8-1-1.213-1.487-.271-.321-1.723-1.805-.295-.427a8.822,8.822,0,0,1-2.583-4.43,55.543,55.543,0,0,0-8.741-.2,5.135,5.135,0,0,1-.859.426c-1.92.789-4.048,2.011-4.411,4.255-.321,1.984.916,3.9,2.277,5.282a11.578,11.578,0,0,0,3.915,2.742c1.527.6,3.19.718,4.655,1.493a5.3,5.3,0,0,1,2.848,5.033,10.345,10.345,0,0,0-.352,2.543,2.922,2.922,0,0,0,1.575,2.111,7.138,7.138,0,0,0,2.482.634c1.589.205,3.329.374,4.64-.6,1.584-1.18,2.239-3.791,3.9-4.559a15.767,15.767,0,0,1,1.374-4.981c.076-.208.142-.422.211-.634a14.533,14.533,0,0,1-6.589-4.029" transform="translate(-1200.372 -556.16)" fill="#152682"/>
      <path id="Trazado_25698" data-name="Trazado 25698" d="M1828.092,925.5a11.918,11.918,0,0,0-3.929,1.247,10.008,10.008,0,0,0-2.082,1.87l-3.368,3.654a24.324,24.324,0,0,0-1.607,1.865.559.559,0,0,0,.351.983,1.311,1.311,0,0,0,.745-.081,4.752,4.752,0,0,0,1.581-1.131l2.07-1.971a3.027,3.027,0,0,1,1.629-.977.392.392,0,0,1,.227.02c.23.112.084.408-.089.548l-4.445,3.615a4.691,4.691,0,0,1-.749.531,6.893,6.893,0,0,1-2.806.469c-.528.029-1.178.205-1.147.69.023.375.464.655.865.8a8.493,8.493,0,0,0,1.868.386q3.006.375,6.008.523a6.915,6.915,0,0,0,1.886-.085,4.067,4.067,0,0,0,2.535-2.077c.542-.948.853-2.008,1.343-2.982a4.47,4.47,0,0,1,2.3-2.313c1.316-.5,3.107-1.372,2.3-3.746-.583-1.715-2.207-2.11-4.085-1.937Z" transform="translate(-1343.244 -685.042)" fill="#ff8698"/>
      <path id="Trazado_25699" data-name="Trazado 25699" d="M1523.063,1346.2l26.812-6.516c-.036.1-.08.2-.116.306,1.055,14.226,10.247,55.562,15.6,91.431.44,2.94,4.461,5.11,3.781,7.411-1.872,3.025-2.434,3.287-5.656,3.918-4.258.834-6.685-1.971-8.043-6.168-1.207-3.73-2.684-7.888-3.493-10.532-13.551-44.3-25.375-65.15-28.888-79.851" transform="translate(-1127.515 -991.759)" fill="#63baff"/>
      <path id="Trazado_25700" data-name="Trazado 25700" d="M1364.56,1331.821c-2.014-7.9,2.847-14.526,10.575-17.79.047-.02-.814-1.69-.767-1.71l.961,1.516c22.04-9.564,56.528-9.888,80.8-6.784-.08.369,16.241,2.564,21.639,1.088l-1.2,13.492a20.584,20.584,0,0,1-22.924,18.642c-18.725-2.23-46.063-7.239-66.094-4.472,2.025,11.758,1.3,31.544,3.421,47.238,1.109,8.2,3.652,17.491,4.109,25.563.485,8.553-6.311,14.56-12.051,3.376-1.892-3.686-2.161-6.595-3.49-13.453-5.519-28.474-11.591-53.4-14.983-66.706" transform="translate(-1009.839 -966.308)" fill="#fff"/>
    </g>
  </g>
  <g id="Grupo_30273" data-name="Grupo 30273" transform="translate(417.73 193.041)">
    <g id="Grupo_30272" data-name="Grupo 30272" clip-path="url(#clip-path-27)">
      <rect id="Rectángulo_3790" data-name="Rectángulo 3790" width="33.937" height="28.488" fill="url(#linear-gradient-17)"/>
    </g>
  </g>
  <g id="Grupo_30275" data-name="Grupo 30275" transform="translate(416.289 187.68)">
    <g id="Grupo_30274" data-name="Grupo 30274" clip-path="url(#clip-path-28)">
      <rect id="Rectángulo_3791" data-name="Rectángulo 3791" width="30.988" height="22.048" transform="translate(-0.347 0)" fill="url(#linear-gradient-18)"/>
    </g>
  </g>
  <g id="Grupo_30277" data-name="Grupo 30277" transform="translate(334.541 232.19)">
    <g id="Grupo_30276" data-name="Grupo 30276" clip-path="url(#clip-path-29)">
      <rect id="Rectángulo_3792" data-name="Rectángulo 3792" width="143.148" height="121.127" transform="translate(-3.186 0)" fill="url(#linear-gradient-19)"/>
    </g>
  </g>
  <g id="Grupo_30279" data-name="Grupo 30279">
    <g id="Grupo_30278" data-name="Grupo 30278" clip-path="url(#clip-path)">
      <path id="Trazado_25704" data-name="Trazado 25704" d="M1441.655,1428.678h103.982a5.65,5.65,0,1,0,0-11.285H1441.655a5.65,5.65,0,1,0,0,11.285" transform="translate(-1062.854 -1049.288)" fill="#deebff"/>
      <path id="Trazado_25705" data-name="Trazado 25705" d="M1443.091,1294.749a1.975,1.975,0,0,1-1.966-1.837c-1.249-17.733,2.89-31.308,12.3-40.347,14.867-14.276,37.27-11.918,38.214-11.813a1.976,1.976,0,0,1-.442,3.927c-.214-.019-21.552-2.238-35.063,10.759-8.511,8.188-12.238,20.7-11.076,37.2a1.975,1.975,0,0,1-1.829,2.11c-.047,0-.094.005-.141.005" transform="translate(-1066.696 -918.369)" fill="#deebff"/>
      <path id="Trazado_25706" data-name="Trazado 25706" d="M1524.9,1754.382h5.753a2.062,2.062,0,0,0,2.055-2.058h-9.862a2.062,2.062,0,0,0,2.055,2.058" transform="translate(-1127.358 -1297.236)" fill="#deebff"/>
      <rect id="Rectángulo_3793" data-name="Rectángulo 3793" width="5.381" height="77.103" transform="translate(437.418 376.009)" fill="#e6f3ff"/>
      <path id="Trazado_25707" data-name="Trazado 25707" d="M1606.164,1746.1H1520.8a1.537,1.537,0,0,1,0-3.074h85.366a1.537,1.537,0,0,1,0,3.074" transform="translate(-1124.703 -1290.352)" fill="#deebff"/>
      <path id="Trazado_25708" data-name="Trazado 25708" d="M1677.126,1754.7h5.753a2.062,2.062,0,0,0,2.055-2.058h-9.862a2.062,2.062,0,0,0,2.055,2.058" transform="translate(-1240.046 -1297.471)" fill="#deebff"/>
      <path id="Trazado_25709" data-name="Trazado 25709" d="M1820.168,1755.545h5.753a2.062,2.062,0,0,0,2.054-2.058h-9.862a2.062,2.062,0,0,0,2.055,2.058" transform="translate(-1345.939 -1298.097)" fill="#deebff"/>
      <path id="Trazado_25710" data-name="Trazado 25710" d="M1653.773,1073.6H1591.75c-5.916,0-9.628-9.032-7.941-19.318l16.04-97.758c1.689-10.293,7.5-18.715,12.92-18.715H1666.2c5.417,0,8.468,8.422,6.779,18.715Z" transform="translate(-1172.183 -694.256)" fill="#e6f3ff"/>
    </g>
  </g>
  <g id="Grupo_30281" data-name="Grupo 30281" transform="translate(420.319 243.554)">
    <g id="Grupo_30280" data-name="Grupo 30280" clip-path="url(#clip-path-31)">
      <rect id="Rectángulo_3795" data-name="Rectángulo 3795" width="92.896" height="135.79" transform="translate(-0.98 0)" fill="url(#linear-gradient-20)"/>
    </g>
  </g>
  <g id="Grupo_30283" data-name="Grupo 30283">
    <g id="Grupo_30282" data-name="Grupo 30282" clip-path="url(#clip-path)">
      <rect id="Rectángulo_3796" data-name="Rectángulo 3796" width="13.018" height="14.834" transform="translate(504.148 84.053) rotate(-0.261)" fill="#0098ff"/>
      <rect id="Rectángulo_3797" data-name="Rectángulo 3797" width="13.018" height="14.834" transform="matrix(1, -0.005, 0.005, 1, 451.438, 130.696)" fill="#0098ff"/>
      <rect id="Rectángulo_3798" data-name="Rectángulo 3798" width="13.018" height="14.834" transform="matrix(1, -0.005, 0.005, 1, 477.741, 130.576)" fill="#0098ff"/>
      <rect id="Rectángulo_3799" data-name="Rectángulo 3799" width="13.018" height="14.834" transform="matrix(1, -0.005, 0.005, 1, 504.044, 130.457)" fill="#0098ff"/>
      <rect id="Rectángulo_3800" data-name="Rectángulo 3800" width="13.018" height="14.834" transform="matrix(1, -0.005, 0.005, 1, 451.542, 153.455)" fill="#f9327e"/>
      <rect id="Rectángulo_3801" data-name="Rectángulo 3801" width="13.018" height="14.834" transform="translate(477.845 153.336) rotate(-0.261)" fill="#b6e9ff"/>
      <rect id="Rectángulo_3802" data-name="Rectángulo 3802" width="13.018" height="14.834" transform="translate(504.148 153.216) rotate(-0.262)" fill="#0098ff"/>
      <rect id="Rectángulo_3803" data-name="Rectángulo 3803" width="13.018" height="14.834" transform="matrix(1, -0.005, 0.005, 1, 451.648, 176.62)" fill="#0098ff"/>
      <rect id="Rectángulo_3804" data-name="Rectángulo 3804" width="13.018" height="14.834" transform="translate(477.951 176.501) rotate(-0.261)" fill="#b6e9ff"/>
      <rect id="Rectángulo_3805" data-name="Rectángulo 3805" width="13.018" height="14.834" transform="matrix(1, -0.005, 0.005, 1, 504.254, 176.381)" fill="#f9327e"/>
      <rect id="Rectángulo_3806" data-name="Rectángulo 3806" width="13.018" height="14.834" transform="translate(477.741 107.374) rotate(-0.261)" fill="#0098ff"/>
      <rect id="Rectángulo_3807" data-name="Rectángulo 3807" width="13.018" height="14.834" transform="translate(504.044 107.255) rotate(-0.263)" fill="#f9327e"/>
      <rect id="Rectángulo_3808" data-name="Rectángulo 3808" width="13.018" height="14.834" transform="matrix(1, -0.005, 0.005, 1, 370.757, 85.58)" fill="#b6e9ff"/>
      <rect id="Rectángulo_3809" data-name="Rectángulo 3809" width="13.018" height="14.834" transform="matrix(1, -0.005, 0.005, 1, 397.06, 85.46)" fill="#0098ff"/>
      <rect id="Rectángulo_3810" data-name="Rectángulo 3810" width="13.018" height="14.834" transform="matrix(1, -0.005, 0.005, 1, 370.861, 108.339)" fill="#f9327e"/>
      <rect id="Rectángulo_3811" data-name="Rectángulo 3811" width="13.018" height="14.834" transform="translate(397.164 108.219) rotate(-0.262)" fill="#0098ff"/>
      <rect id="Rectángulo_3812" data-name="Rectángulo 3812" width="13.018" height="14.834" transform="translate(371.066 175.932) rotate(-0.261)" fill="#0098ff"/>
      <rect id="Rectángulo_3813" data-name="Rectángulo 3813" width="13.018" height="14.834" transform="matrix(1, -0.005, 0.005, 1, 370.968, 131.504)" fill="#0098ff"/>
      <rect id="Rectángulo_3814" data-name="Rectángulo 3814" width="13.018" height="14.834" transform="matrix(1, -0.005, 0.005, 1, 397.271, 131.384)" fill="#f9327e"/>
      <rect id="Rectángulo_3815" data-name="Rectángulo 3815" width="13.018" height="14.834" transform="matrix(1, -0.005, 0.005, 1, 371.066, 153.043)" fill="#0098ff"/>
      <rect id="Rectángulo_3816" data-name="Rectángulo 3816" width="13.018" height="14.834" transform="translate(397.369 152.924) rotate(-0.262)" fill="#0098ff"/>
      <path id="Trazado_25712" data-name="Trazado 25712" d="M1053.97,244.791l1.646,3.335,3.68.535-2.663,2.6.629,3.665-3.292-1.73-3.292,1.73.629-3.665-2.663-2.6,3.68-.535Z" transform="translate(-776.306 -181.218)" fill="#b6e9ff"/>
      <path id="Trazado_25713" data-name="Trazado 25713" d="M1003.957,244.791l1.646,3.335,3.68.535-2.663,2.6.629,3.665-3.292-1.73-3.292,1.73.629-3.665-2.663-2.6,3.68-.535Z" transform="translate(-739.281 -181.218)" fill="#0098ff"/>
      <path id="Trazado_25714" data-name="Trazado 25714" d="M294.575,1712.6c6.7.689,21.189,5.732,21.189,5.732,4.79,1.534,3.1,6.236-2.263,6.311l-20.428.288c-.98.014-1.729-.551-1.564-1.18l2.833-10.8a.87.87,0,0,1,.234-.355" transform="translate(-215.785 -1267.828)" fill="#fff"/>
    </g>
  </g>
  <g id="Grupo_30285" data-name="Grupo 30285" transform="translate(76.901 346.453)">
    <g id="Grupo_30284" data-name="Grupo 30284" clip-path="url(#clip-path-33)">
      <rect id="Rectángulo_3818" data-name="Rectángulo 3818" width="49.869" height="103.209" transform="translate(-0.585)" fill="url(#linear-gradient-21)"/>
    </g>
  </g>
  <g id="Grupo_30287" data-name="Grupo 30287">
    <g id="Grupo_30286" data-name="Grupo 30286" clip-path="url(#clip-path)">
      <path id="Trazado_25716" data-name="Trazado 25716" d="M182.473,913.7l-25.541,47.739c-3.036,5.674.708,12.98,7.459,12.951l53.1-.229c11.114-.048,11.137-17.262,0-17.214l-53.1.23,7.459,12.951,25.541-47.739a8.772,8.772,0,0,0-3.1-11.776c-3.915-2.281-9.617-1.028-11.819,3.088" transform="translate(-115.386 -673.288)" fill="#23263d"/>
      <path id="Trazado_25717" data-name="Trazado 25717" d="M516.237,1715.876c6.36.654,20.113,5.441,20.113,5.441,4.547,1.456,2.946,5.919-2.148,5.991l-19.391.274c-.93.013-1.642-.523-1.485-1.12l2.689-10.249a.828.828,0,0,1,.222-.337" transform="translate(-379.996 -1270.254)" fill="#fff"/>
    </g>
  </g>
  <g id="Grupo_30289" data-name="Grupo 30289" transform="translate(52.634 337.428)">
    <g id="Grupo_30288" data-name="Grupo 30288" clip-path="url(#clip-path-35)">
      <rect id="Rectángulo_3820" data-name="Rectángulo 3820" width="166.965" height="166.863" transform="matrix(0.682, -0.732, 0.732, 0.682, -59.41, 63.77)" fill="url(#linear-gradient-22)"/>
    </g>
  </g>
  <g id="Grupo_30291" data-name="Grupo 30291">
    <g id="Grupo_30290" data-name="Grupo 30290" clip-path="url(#clip-path)">
      <path id="Trazado_25719" data-name="Trazado 25719" d="M335.921,709.264a13.827,13.827,0,0,0-4.347,10.508l.258,10.717c.177,7.322,5.7,13.185,12.277,13.029s11.811-6.273,11.635-13.595l-.25-14.113Z" transform="translate(-245.459 -525.064)" fill="#ff8698"/>
      <path id="Trazado_25720" data-name="Trazado 25720" d="M342,811.309l-9.148.3a2.382,2.382,0,0,1-2.37-2.373s1.753-9.555,1.646-12.74c-.106-3.134-2.5-12.535-2.5-12.535a2.38,2.38,0,0,1,2.2-2.525l9.148-.3a2.384,2.384,0,0,1,2.37,2.374l.854,25.275a2.38,2.38,0,0,1-2.2,2.526" transform="translate(-244.02 -578.269)" fill="#ff8698"/>
      <path id="Trazado_25721" data-name="Trazado 25721" d="M317.8,876.142a3.732,3.732,0,0,1,3.535-3.232L336,872.285a3.734,3.734,0,0,1,3.8,2.92Z" transform="translate(-235.267 -645.746)" fill="#fff"/>
      <path id="Trazado_25722" data-name="Trazado 25722" d="M456.707,954.686c-1.655-5.51-4.764-4.692-6.419-10.2-2.765-9.2-4.077-24.735-6.842-33.939-3.18-10.586-25.048-2.024-21.3,8.45,6.162,17.214,12.09,30.409,18.717,46.821a7.67,7.67,0,0,0,6.269,4.159l10.108-15.223-.534-.066" transform="translate(-312.194 -670.483)" fill="#ff20ac"/>
      <path id="Trazado_25723" data-name="Trazado 25723" d="M390.682,765.85A4.422,4.422,0,0,0,392.2,768.9a3.1,3.1,0,0,0,2.237.774c1.893-.147,3.283-2.1,3.1-4.358a4.255,4.255,0,0,0-2.1-3.448,2.987,2.987,0,0,0-1.655-.378c-1.894.147-3.283,2.1-3.105,4.359" transform="translate(-289.209 -563.722)" fill="#ff8698"/>
      <path id="Trazado_25724" data-name="Trazado 25724" d="M234.721,993.264c-.311-6.119.811-12.244.5-18.364s-2.418-12.643-7.533-16.044c-2.378-1.581-5.2-2.348-7.788-3.549-10.81-5-16.723-17.27-17.482-29.122-.591-9.232,1.4-18.352,3.936-27.306-.808.212-1.595.424-2.34.632a15.372,15.372,0,0,0-11.191,13.63l-4.081,95.695c-.651,8.5,3.922,8.254,13.1,8.254h26.172q.675,0,1.342-.036a21.406,21.406,0,0,0,14.509-6.845,14,14,0,0,1-1.61-.9c-5.117-3.4-7.227-9.922-7.538-16.041" transform="translate(-139.681 -665.436)" fill="#ff20ac"/>
      <path id="Trazado_25725" data-name="Trazado 25725" d="M309.108,895.425a6.979,6.979,0,0,0-3.784-7.785c-19.759-9.417-45.117-5.25-60.113-1.315-2.538,8.954-4.527,18.073-3.936,27.306.759,11.852,6.672,24.118,17.482,29.122,2.593,1.2,5.41,1.967,7.788,3.549,5.115,3.4,7.223,9.925,7.534,16.044s-.812,12.244-.5,18.364,2.421,12.642,7.538,16.041a13.969,13.969,0,0,0,1.61.9,22.622,22.622,0,0,0,6.107-16.249c-.266-7.528-.449-19.951.881-26.087,3.013-13.9,19.394-59.894,19.394-59.894" transform="translate(-178.537 -652.881)" fill="#ff20ac"/>
    </g>
  </g>
  <g id="Grupo_30293" data-name="Grupo 30293" transform="translate(78.872 184.693)">
    <g id="Grupo_30292" data-name="Grupo 30292" clip-path="url(#clip-path-37)">
      <rect id="Rectángulo_3822" data-name="Rectángulo 3822" width="41.665" height="43.627" transform="translate(-12.637 19.504) rotate(-57.236)" fill="url(#linear-gradient-23)"/>
    </g>
  </g>
  <g id="Grupo_30295" data-name="Grupo 30295" transform="translate(83.336 178.34)">
    <g id="Grupo_30294" data-name="Grupo 30294" clip-path="url(#clip-path-38)">
      <rect id="Rectángulo_3823" data-name="Rectángulo 3823" width="35.867" height="38.012" transform="translate(-10.821 16.369) rotate(-57.236)" fill="url(#linear-gradient-24)"/>
    </g>
  </g>
  <g id="Grupo_30297" data-name="Grupo 30297">
    <g id="Grupo_30296" data-name="Grupo 30296" clip-path="url(#clip-path)">
      <path id="Trazado_25728" data-name="Trazado 25728" d="M669.607,949.946a10.055,10.055,0,0,1,3.721-3,11.87,11.87,0,0,0,1.965-.979,2.245,2.245,0,0,0,1.044-1.828c-.058-1.167-3.116-7.5-3.254-7.72-.377-.6.051-1.356.436-1.948a18.528,18.528,0,0,0,2.22-4.815c.115-.388.179-.893-.158-1.119-.394-.264-.895.123-1.193.492-2.94,3.64-5.753,9.441-6.707,10.053-1.328.7-3.456,2.161-4.019,3.551a4.522,4.522,0,0,0-.488,2.352c.152.956.894,1.712,1.2,2.629a20.449,20.449,0,0,0,.55,2.345c.345.727,1.4,1.227,1.951.639Z" transform="translate(-490.922 -687.327)" fill="#ff8698"/>
      <path id="Trazado_25729" data-name="Trazado 25729" d="M553.928,991.3c-9.61,6.735-19.19,13.21-29.07,19.972l-5.387,20.251a10.8,10.8,0,0,0,7.4-2.431c10.3-9.53,22.606-20.015,32.906-29.544,8.136-7.528,3.205-14.594-5.848-8.248" transform="translate(-384.562 -732.029)" fill="#ff20ac"/>
      <rect id="Rectángulo_3824" data-name="Rectángulo 3824" width="5.381" height="77.103" transform="translate(94.721 376.396)" fill="#e6f3ff"/>
      <path id="Trazado_25730" data-name="Trazado 25730" d="M259.835,1435.239H155.853a5.65,5.65,0,1,1,0-11.285H259.835a5.65,5.65,0,1,1,0,11.285" transform="translate(-110.981 -1054.145)" fill="#deebff"/>
      <path id="Trazado_25731" data-name="Trazado 25731" d="M165.033,1282.022l-9.269,4.905-8.731-58.88,9.965,0Z" transform="translate(-108.848 -909.117)" fill="#3736e7"/>
      <path id="Trazado_25732" data-name="Trazado 25732" d="M338.324,1284.985l-9.965,0-8.035-53.972,9.965,0Z" transform="translate(-237.134 -911.31)" fill="#3736e7"/>
      <path id="Trazado_25733" data-name="Trazado 25733" d="M117.662,1081.006h62.023c5.916,0,9.628-9.032,7.941-19.318l-16.04-97.758c-1.689-10.293-7.5-18.715-12.92-18.715H105.232c-5.417,0-8.468,8.422-6.779,18.715Z" transform="translate(-72.539 -699.738)" fill="#e6f3ff"/>
    </g>
  </g>
  <g id="Grupo_30299" data-name="Grupo 30299" transform="translate(15.702 245.477)">
    <g id="Grupo_30298" data-name="Grupo 30298" clip-path="url(#clip-path-40)">
      <rect id="Rectángulo_3826" data-name="Rectángulo 3826" width="92.896" height="135.79" transform="translate(-1.223 0)" fill="url(#linear-gradient-25)"/>
    </g>
  </g>
  <g id="Grupo_30301" data-name="Grupo 30301">
    <g id="Grupo_30300" data-name="Grupo 30300" clip-path="url(#clip-path)">
      <path id="Trazado_25735" data-name="Trazado 25735" d="M286.606,1747.587H201.24a1.537,1.537,0,0,1,0-3.074h85.366a1.537,1.537,0,0,1,0,3.074" transform="translate(-147.841 -1291.453)" fill="#deebff"/>
      <path id="Trazado_25736" data-name="Trazado 25736" d="M439.042,1301.311c-.047,0-.094,0-.141-.005a1.975,1.975,0,0,1-1.829-2.11c1.162-16.493-2.565-29.007-11.076-37.2-13.51-13-34.846-10.781-35.063-10.759a1.976,1.976,0,0,1-.442-3.927c.947-.1,23.347-2.463,38.214,11.813,9.413,9.039,13.551,22.613,12.3,40.347a1.974,1.974,0,0,1-1.965,1.837" transform="translate(-287.783 -923.227)" fill="#deebff"/>
      <path id="Trazado_25737" data-name="Trazado 25737" d="M205.348,1755.871H211.1a2.063,2.063,0,0,0,2.055-2.058h-9.863a2.062,2.062,0,0,0,2.055,2.058" transform="translate(-150.497 -1298.338)" fill="#deebff"/>
      <path id="Trazado_25738" data-name="Trazado 25738" d="M357.567,1756.188h5.753a2.062,2.062,0,0,0,2.055-2.058h-9.863a2.063,2.063,0,0,0,2.055,2.058" transform="translate(-263.184 -1298.572)" fill="#deebff"/>
      <path id="Trazado_25739" data-name="Trazado 25739" d="M500.61,1757.033h5.753a2.063,2.063,0,0,0,2.055-2.058h-9.863a2.063,2.063,0,0,0,2.055,2.058" transform="translate(-369.078 -1299.198)" fill="#deebff"/>
    </g>
  </g>
</svg>
